<?xml version="1.0" standalone="no"?>
<!DOCTYPE svg PUBLIC "-//W3C//DTD SVG 1.1//EN" "http://www.w3.org/Graphics/SVG/1.1/DTD/svg11.dtd" >
<svg>
<metadata>
Created by FontForge 20120731 at Thu Dec  4 05:00:33 2014
 By Orthosie Webhosting
Copyright (c) 2012 Natanael Gama (info@ndiscovered.com), with Reserved Font Name 'Cinzel'
</metadata>
<defs>
<font id="CinzelDecorativeBold" horiz-adv-x="600" >
  <font-face 
    font-family="CinzelDecorativeBold"
    font-weight="700"
    font-stretch="normal"
    units-per-em="1000"
    panose-1="0 0 8 0 0 0 0 0 0 0"
    ascent="800"
    descent="-200"
    x-height="700"
    cap-height="720"
    bbox="-285 -343 1570 951"
    underline-thickness="50"
    underline-position="-50"
    unicode-range="U+0020-FB02"
  />
<missing-glyph horiz-adv-x="250" 
 />
    <glyph glyph-name=".notdef" horiz-adv-x="250" 
 />
    <glyph glyph-name=".null" horiz-adv-x="0" 
 />
    <glyph glyph-name="nonmarkingreturn" horiz-adv-x="333" 
 />
    <glyph glyph-name="space" unicode=" " horiz-adv-x="250" 
 />
    <glyph glyph-name="exclam" unicode="!" horiz-adv-x="269" 
d="M193 379l-36 -173h-46l-35 173l-19 323h154zM133 -10q-30 0 -51 21t-21 51t21 51.5t51 21.5t51.5 -21.5t21.5 -51.5t-21.5 -51t-51.5 -21z" />
    <glyph glyph-name="quotedbl" unicode="&#x22;" horiz-adv-x="362" 
d="M38 505q28 85 28 124.5t-4 70.5l107 14v-15.5t-4.5 -38t-16.5 -59t-37.5 -61t-58.5 -40.5zM194 505q28 85 28 124.5t-4 70.5l107 14q1 -4 1 -15.5t-5 -38t-17 -59t-37 -61t-59 -40.5z" />
    <glyph glyph-name="numbersign" unicode="#" horiz-adv-x="574" 
d="M534 449h-116l-32 -184h104v-48h-112l-39 -217h-50l38 217h-149l-39 -217h-50l38 217h-107v48h116l32 184h-104v48h113l35 203h51l-36 -203h150l35 203h51l-36 -203h107v-48zM336 265l32 184h-150l-32 -184h150z" />
    <glyph glyph-name="dollar" unicode="$" horiz-adv-x="557" 
d="M43 93q0 72 31 123h8v-15q0 -64 41.5 -113.5t119.5 -57.5l19 258l-107 71q-53 30 -75 72.5t-22 86.5q0 11 1 21q7 80 62.5 127t141.5 47h2h30l5 75l42 -1l-6 -76q37 -3 70 -7h63l-13 -147h-10q0 46 -30 76t-83 37l-18 -233l120 -78q90 -52 90 -152q0 -104 -67 -160
t-178 -61l-6 -88l-41 3l6 85q-64 3 -114 19t-75 42q-7 19 -7 46zM292 671q-51 -3 -84.5 -30.5t-33.5 -72t70 -85.5l32 -21zM302 262l-18 -233q58 4 91.5 35t33.5 76q0 60 -80 104z" />
    <glyph glyph-name="percent" unicode="%" horiz-adv-x="740" 
d="M343 648q15 -31 15 -61q0 -120 -66 -179q-52 -47 -127.5 -47t-110.5 48q-24 35 -24 89q0 110 67 170q51 46 129 46q38 0 68 -12t54 -25q29 -15 51 -15t41.5 4.5t33 11t34.5 17.5t26 14l33 -14l-373 -711l-37 16l350 662q-49 -29 -88 -29t-76 15zM132 474q0 -81 41 -81
q30 0 52 38.5t29.5 88.5t7.5 77q0 85 -42 85q-28 0 -49.5 -38.5t-30 -90.5t-8.5 -79zM440 294q51 45 124.5 45t108.5 -47q27 -37 27 -95q0 -106 -64 -164q-52 -47 -128.5 -47t-110.5 49q-25 34 -25 88q0 110 68 171zM471 99q0 -81 40 -81q30 0 52.5 38t29.5 88.5t7 77.5
q0 85 -41 85q-28 0 -50 -38.5t-30 -90.5t-8 -79z" />
    <glyph glyph-name="ampersand" unicode="&#x26;" horiz-adv-x="878" 
d="M1189 -106q-90 -51 -198 -51q-162 0 -304 110q-29 23 -102 81q-90 -45 -198 -45q-79 0 -144 20.5t-106.5 45.5t-69 66.5t-27.5 94.5q0 82 65 136q35 29 80 45q-46 71 -46 134t34 104q64 79 204 79q89 0 152 -32q32 -16 48 -39l-34 -143h-9q-3 101 -56 147q-29 25 -76 25
t-78 -32.5t-31 -85.5t41 -104.5t124.5 -123t207.5 -174.5q120 123 120 284q0 119 -76 220q-52 69 -136 125l6 6q89 -51 146 -119.5t76 -133t19 -124.5q0 -164 -119 -288l31 -26q47 -40 79.5 -65t80.5 -55.5t90 -45.5q75 -29 156 -29q24 0 48 3zM198 250q0 -105 74 -163
q63 -49 146 -49q65 0 127 28q-159 128 -194 158q-82 68 -128 122q-25 -41 -25 -96z" />
    <glyph glyph-name="quotesingle" unicode="'" horiz-adv-x="200" 
d="M32 505q28 85 28 124.5t-4 70.5l107 14v-15.5t-4.5 -38t-16.5 -59t-37.5 -61t-58.5 -40.5z" />
    <glyph glyph-name="parenleft" unicode="(" horiz-adv-x="423" 
d="M281 70.5q42 -113.5 111 -161.5l-6 -9q-94 29 -162 95q-134 132 -134 341q0 212 134 324q68 56 164 72l6 -8q-74 -35 -114.5 -135t-40.5 -252.5t42 -266z" />
    <glyph glyph-name="parenright" unicode=")" horiz-adv-x="423" 
d="M144 589q-41 100 -114 135l6 8q143 -23 220.5 -132t77.5 -264q0 -209 -135 -341q-68 -66 -161 -95l-6 9q67 47 108 155q45 118 45 271.5t-41 253.5z" />
    <glyph glyph-name="asterisk" unicode="*" horiz-adv-x="388" 
d="M202 605l55 -29l64 -64l-29 -38l-44 -15l-43 79l-10 62l-11 -62l-41 -80l-45 16l-28 37l62 65l56 29l-62 -9l-89 15v47l28 39l81 -40l45 -44l-28 57l-14 89l45 14l46 -14l-13 -89l-28 -57l45 44l81 41l28 -39v-47l-89 -16z" />
    <glyph glyph-name="plus" unicode="+" horiz-adv-x="481" 
d="M442 338v-57h-173v-172h-57v172h-172v57h172v173h57v-173h173z" />
    <glyph glyph-name="comma" unicode="," horiz-adv-x="230" 
d="M42 -102q46 17 46 61q0 25 -22 50.5t-22 56.5t18.5 49.5t43.5 18.5q53 0 73 -47q14 -28 14 -47q0 -55 -23 -90q-42 -64 -108 -64q-8 0 -16 1z" />
    <glyph glyph-name="hyphen" unicode="-" horiz-adv-x="380" 
d="M32 292l8 33h300l8 -33l-8 -34h-300z" />
    <glyph glyph-name="period" unicode="." horiz-adv-x="222" 
d="M111 -10q-30 0 -51 21t-21 51t21 51.5t51 21.5t51.5 -21.5t21.5 -51.5t-21.5 -51t-51.5 -21z" />
    <glyph glyph-name="slash" unicode="/" horiz-adv-x="426" 
d="M9 11l360 708l48 -23l-361 -710z" />
    <glyph glyph-name="zero" unicode="0" horiz-adv-x="688" 
d="M344 614q139 0 219.5 -84.5t80.5 -229.5t-80.5 -229.5t-219.5 -84.5q-92 0 -160 38t-104 109t-36 167q0 145 80.5 229.5t219.5 84.5zM344 572q-44 0 -77 -33q-68 -68 -68 -239q0 -126 39 -199t106 -73t106.5 73t39.5 199q0 171 -69 239q-33 33 -77 33z" />
    <glyph glyph-name="one" unicode="1" horiz-adv-x="381" 
d="M118 64v473q0 30 -28 46q-13 7 -28 7h-20l-1 10h302v-10h-21q-31 0 -47 -26q-8 -13 -8 -27v-473q0 -31 28 -47q12 -7 27 -7h21v-10h-301v10h21q22 0 38.5 16t16.5 38z" />
    <glyph glyph-name="two" unicode="2" horiz-adv-x="616" 
d="M276 626q116 0 188.5 -47.5t72.5 -130.5q0 -64 -47 -122q-35 -43 -62.5 -65.5t-42 -34t-41 -29t-38 -25t-37.5 -23.5t-32 -20h207q44 0 73.5 20.5t56.5 67.5h10l-60 -217h-480v9q25 26 70.5 71.5t76 76.5t69 75t61.5 79q56 84 56 147.5t-34.5 96t-89.5 32.5
q-74 0 -111.5 -45.5t-37.5 -124.5h-10l-47 144q37 30 100.5 47.5t128.5 17.5z" />
    <glyph glyph-name="three" unicode="3" horiz-adv-x="563" 
d="M42 541q78 71 221 71q101 0 162 -43.5t61 -119.5q0 -43 -20.5 -78t-51 -54t-65.5 -21q63 -12 110 -55q52 -48 53 -135q0 -59 -28 -110q-52 -94 -181 -135q-54 -17 -115 -17q-73 0 -141 24l2 10h10q75 0 142 28t108.5 84t41.5 127q0 99 -82 142q-47 25 -111 25l2 10h5
q68 0 117.5 46t49.5 111q0 61 -34 90t-80 29q-124 0 -124 -156v-15h-10z" />
    <glyph glyph-name="four" unicode="4" horiz-adv-x="619" 
d="M473 112v-149q1 -32 32 -48q11 -5 24 -5h10l1 -10h-283v10h11q22 0 38 15t17 37v150h-316v10l457 492h9v-416h44q26 0 38.5 7.5t22.5 24.5h10l-28 -118h-87zM323 198v197l-184 -197h184z" />
    <glyph glyph-name="five" unicode="5" horiz-adv-x="555" 
d="M252 350q86 0 147 -39q96 -59 96 -180q0 -67 -27.5 -118.5t-67.5 -83.5q-106 -83 -249 -83q-74 0 -125 23l2 10h17t48 7t75.5 24.5t76.5 42.5t60 65q28 45 28 97t-35 88q-38 40 -102.5 40t-133.5 -24l-9 5l81 340l258 21q54 0 80 50h10l-39 -167l-279 -21l-29 -112
q63 15 117 15z" />
    <glyph glyph-name="six" unicode="6" horiz-adv-x="629" 
d="M327 374q-40 0 -69 -28l-7 8q28 46 83 67q32 12 61 12t53.5 -5.5t49.5 -21.5q86 -56 86 -183q0 -100 -67 -168q-70 -70 -197.5 -70t-198.5 78.5t-71 231.5q0 199 110 322q54 60 134 89t172 29q15 0 31 -1l4 -7q-124 -39 -184 -102q-63 -65 -83 -147q-18 -80 -18 -200.5
t23 -182.5t84 -62q39 0 64 26q43 45 43 149q0 153 -83 164q-10 2 -20 2z" />
    <glyph glyph-name="seven" unicode="7" horiz-adv-x="544" 
d="M102 472q-29 0 -46.5 -14.5t-28.5 -45.5h-10l28 186h478l-119 -292q-27 -64 -72 -199t-65 -207h-130q46 86 110.5 216t93.5 198l66 158h-305z" />
    <glyph glyph-name="eight" unicode="8" horiz-adv-x="603" 
d="M116 27q-36 21 -56.5 56.5t-20.5 81.5q0 119 144 173q-104 76 -104 183q0 87 61 140q62 53 157.5 53t159 -46.5t63.5 -122.5q0 -37 -18 -68q-33 -58 -113 -80q72 -37 89.5 -51t32 -27t22.5 -26t16 -29q15 -30 15 -74q0 -96 -74.5 -150t-188.5 -54t-185 41zM346 419
q44 49 44 133q0 54 -25 86q-26 33 -68 33t-65.5 -28t-23.5 -72t29 -76q30 -33 109 -76zM388.5 58.5q34.5 30.5 34.5 77.5t-34.5 77.5t-91.5 60t-78 41.5q-48 -51 -48 -127t32 -117q36 -43 93.5 -43t92 30.5z" />
    <glyph glyph-name="nine" unicode="9" horiz-adv-x="629" 
d="M302 222q41 0 70 29l7 -9q-18 -30 -50 -50q-46 -29 -98 -29q-64 0 -116 40q-31 23 -50 66.5t-19 99.5q0 109 68 175q70 67 197.5 67t198 -78t70.5 -235q0 -195 -110 -318q-54 -61 -133.5 -90t-168.5 -29q-17 0 -35 1l-4 7q139 42 207 125q58 71 72 194q6 51 6 120
q0 132 -23 193.5t-84 61.5q-39 0 -64 -26q-43 -44 -43 -148q0 -155 84 -165q9 -2 18 -2z" />
    <glyph glyph-name="colon" unicode=":" horiz-adv-x="222" 
d="M147.5 382.5q-16.5 -9.5 -41.5 -9.5t-46 21t-21 51t21 51t51 21t51.5 -21t21.5 -46t-10 -41.5t-26.5 -26zM111 -10q-30 0 -51 21t-21 51t21 51.5t51 21.5t51.5 -21.5t21.5 -51.5t-21.5 -51t-51.5 -21z" />
    <glyph glyph-name="semicolon" unicode=";" horiz-adv-x="230" 
d="M111 401q-30 0 -51 21.5t-21 51t21 51t51 21.5t51.5 -21.5t21.5 -51t-21.5 -51t-51.5 -21.5zM42 -102q46 17 46 61q0 25 -22 50.5t-22 56.5t18.5 49.5t43.5 18.5q53 0 73 -47q14 -28 14 -47q0 -55 -23 -90q-42 -64 -108 -64q-8 0 -16 1z" />
    <glyph glyph-name="less" unicode="&#x3c;" horiz-adv-x="493" 
d="M442 525v-62l-322 -153l322 -154v-62l-402 189v53z" />
    <glyph glyph-name="equal" unicode="=" horiz-adv-x="481" 
d="M40 358v57h402v-57h-402zM40 183v57h402v-57h-402z" />
    <glyph glyph-name="greater" unicode="&#x3e;" horiz-adv-x="481" 
d="M40 525l402 -188v-54l-402 -189v62l322 154l-322 153v62z" />
    <glyph glyph-name="question" unicode="?" horiz-adv-x="461" 
d="M200 714q107 0 165.5 -46t58.5 -128q0 -36 -16 -69t-35 -53t-54 -53.5t-51.5 -52t-23 -26.5t-13.5 -23q-13 -26 7 -60l-8 -6q-78 35 -78 104q0 45 32 81q31 35 48 59q32 46 32 105t-27 92.5t-68.5 33.5t-66.5 -17q-51 -35 -50 -137h-10l-34 107q23 41 73.5 65t118.5 24z
M259 11q-21 -21 -51 -21t-51.5 21t-21.5 46t10 42q21 36 63 36q30 0 51 -21.5t21 -51.5t-21 -51z" />
    <glyph glyph-name="at" unicode="@" horiz-adv-x="989" 
d="M90 115q-54 53 -54 145q0 61 28 135q64 153 220 235q119 64 256 64q226 0 334 -132q77 -93 77 -222t-58.5 -232t-155.5 -164q-107 -69 -244 -69t-290 62l-4 10q110 -45 207 -45q128 0 228 63q84 53 136 145q63 112 63 250q0 106 -46 179q-73 115 -233 115
q-138 0 -251 -99q-73 -64 -119.5 -164.5t-46.5 -184.5q0 -43 16 -68q17 -26 43 -26t46.5 10.5t42 33.5t36.5 41.5t37 50t31 43.5l127 173q47 57 55 77h7l67 -404q8 -47 40 -47h5l-1 -7h-207l1 7h7q15 0 29.5 12.5t12.5 30.5l-8 74h-147q-53 -71 -92 -102q-41 -32 -96 -32
t-99 42zM504 386l-105 -149h122z" />
    <glyph glyph-name="A" unicode="A" horiz-adv-x="705" 
d="M965 -183q-109 -55 -221 -18q-119 38 -205 162q-46 66 -79 153l-32 85h-236l-53 -126q-5 -13 -5 -21t3.5 -17.5t15 -17t25.5 -7.5h8v-10h-214v10h9q23 0 45.5 13.5t37.5 40.5l223 509q-39 88 -83 121q-37 28 -70.5 28t-62.5 -10l-2 10q72 37 138 37q82 0 147 -64
q64 -63 113 -182l145 -358q82 -203 168 -279q35 -31 72 -43t62.5 -12t49.5 6zM209 242h204l-70 185q-5 14 -14 38.5t-12 34.5z" />
    <glyph glyph-name="B" unicode="B" horiz-adv-x="691" 
d="M565 528q0 -47 -23.5 -84t-60.5 -51q116 -6 169 -91q27 -43 27 -106t-48.5 -115t-123.5 -74t-158 -22q-207 0 -296 110q-57 70 -57 189q0 20 2 40l10 1q7 -172 123 -246v549q-1 37 -33 54q-14 8 -31 8h-13v10h254q111 0 185 -44.5t74 -127.5zM307 32q93 0 145.5 49
t52.5 129q0 50 -18.5 84.5t-48.5 51.5q-55 33 -125 33v9q32 0 54 23q38 40 38 109t-30.5 102t-95.5 35v-624q14 -1 28 -1z" />
    <glyph glyph-name="C" unicode="C" horiz-adv-x="826" 
d="M808 391q3 -30 3 -75.5t-18 -111t-65 -115.5q-96 -103 -264 -103q-204 0 -322 100.5t-118 263t119.5 263.5t315.5 101q75 0 143 -15t113 -39l2 -172h-8q-17 64 -57 107q-72 77 -194 77t-196.5 -87t-74.5 -230.5t77.5 -233.5t213.5 -93q147 0 234 94t87 255v14h9z" />
    <glyph glyph-name="D" unicode="D" horiz-adv-x="862" 
d="M206 701h62t167 -1q177 -2 280 -95.5t103 -255t-103 -255.5t-280 -94h-363v10h13q25 0 43.5 17.5t20.5 42.5v585q-112 -8 -166 -52q-27 -21 -42.5 -43t-30.5 -53l-10 4q24 100 100.5 144.5t205.5 45.5zM423 42q107 0 169.5 83t62.5 225t-62.5 224t-167.5 82h-2h-124v-614
h124v0z" />
    <glyph glyph-name="E" unicode="E" horiz-adv-x="670" 
d="M55 10q26 0 44.5 18.5t19.5 44.5v557q-3 35 -33 52q-15 8 -31 8h-13v10h281q44 0 77 7t43 11v-175h-11v12q1 45 -25.5 72.5t-71.5 29.5h-66v-291h159q37 1 61 25.5t24 60.5v9h9v-231h-9v8q0 37 -24 61t-60 25h-160v-281h195q73 0 122.5 42t73.5 119h10l-47 -204h-581v10
h13z" />
    <glyph glyph-name="F" unicode="F" horiz-adv-x="657" 
d="M269 324v-251q0 -26 19 -44.5t45 -18.5h12l1 -10h-304v10h13q26 0 44.5 18.5t19.5 44.5v557q-2 25 -20.5 42.5t-43.5 17.5h-13v10h383q44 0 77 7t43 11v-169h-10v10q0 60 -45 85q-21 12 -50 13h-171v-291h288q37 1 61 25.5t24 60.5v9h10v-231h-10v8q0 37 -23.5 61
t-59.5 25h-290z" />
    <glyph glyph-name="G" unicode="G" horiz-adv-x="861" 
d="M955 -198q-25 0 -49 4q-97 15 -165 73.5t-98 145.5q-94 -39 -203 -39q-180 0 -295 102t-115 262q0 107 52.5 190t147.5 128.5t217 45.5q80 0 155 -15.5t121 -38.5l2 -172h-8q-24 91 -92.5 137.5t-164.5 46.5q-118 0 -192.5 -90.5t-74.5 -233t73 -231.5t188 -89
q62 0 107.5 27t61.5 72v152q0 22 -13 34t-37 12h-16v10h281v-10h-15q-25 0 -38 -12t-12 -33v-159q1 -66 25 -123q53 -122 176 -152q33 -8 68.5 -8t72.5 8l2 -10q-86 -34 -162 -34z" />
    <glyph glyph-name="H" unicode="H" horiz-adv-x="861" 
d="M523 10q26 0 45 18t20 44v255h-315v-257q0 -120 -61 -191q-48 -56 -138 -56q-29 0 -63 7l-2 10q74 31 95 92q19 52 19 138v558q-1 26 -19.5 44t-44.5 18h-13v10h304v-10h-13q-36 0 -54 -30q-9 -14 -10 -32v-258h315v240q0 117 73 186q58 57 146 57q20 0 42 -3l2 -10
q-73 -26 -95 -92q-18 -54 -19 -138v-537q1 -36 32 -54q15 -9 33 -9h12v-10h-303v10h12z" />
    <glyph glyph-name="I" unicode="I" horiz-adv-x="456" 
d="M403 10h13v-10h-304v10h13q26 0 44.5 18.5t19.5 44.5v586l-95 -4q-94 -4 -94 -70q0 -27 18.5 -45.5t51.5 -18.5h6v-6q-20 -7 -34 -7q-45 0 -69 32q-17 22 -17 50q0 44 34.5 72.5t106.5 33.5q13 1 84 4q162 6 235 20l2 -10q-43 -7 -60.5 -29t-18.5 -65v-543
q1 -26 19.5 -44.5t44.5 -18.5z" />
    <glyph glyph-name="J" unicode="J" horiz-adv-x="390" 
d="M336 690q-36 0 -55 -31q-9 -14 -9 -32v-547q0 -135 -69 -210q-63 -68 -148 -68q-66 0 -134 37l3 10q19 -4 36 -4q41 0 73 21q89 56 89 217v544q-1 37 -32 55q-15 8 -32 8h-13v10h304v-10h-13z" />
    <glyph glyph-name="K" unicode="K" horiz-adv-x="761" 
d="M55 10q26 0 44.5 18.5t19.5 44.5v555q-1 36 -33 54q-14 8 -31 8h-13v10h304l-1 -10h-12q-26 0 -45 -18t-19 -44v-555q0 -26 19 -44.5t45 -18.5h12l1 -10h-304v10h13zM1048 -170q-73 -38 -133 -38t-108 17q-119 43 -243 197l-263 324l237 314q8 10 8 18t-3 14
q-8 15 -28 15h-10v9h229v-9h-4q-67 0 -109 -48l-195 -232l272 -338q91 -120 171 -174t178 -59z" />
    <glyph glyph-name="L" unicode="L" horiz-adv-x="427" 
d="M854 -139q104 0 168 41l7 -8q-86 -119 -214 -132q-27 -3 -46.5 -3t-45 1.5t-71.5 13.5t-81 24.5t-81 33t-76 36t-71.5 37t-72.5 36.5t-60 26q-82 33 -168 33v10h13q26 0 44.5 18t19.5 45v554q-1 27 -19.5 45t-44.5 18h-13v10h304l-1 -10h-10q-38 0 -57 -31q-9 -14 -9 -32
v-580q0 -33 13 -45.5t29 -17.5q376 -123 543 -123z" />
    <glyph glyph-name="M" unicode="M" horiz-adv-x="968" 
d="M-96 766q57 24 99 24t74 -8t65.5 -26.5t62.5 -45.5q56 -53 95 -120l200 -375l290 499h9l104 -588q24 -136 83 -216q59 -81 162 -81h13v-10q-55 -15 -108 -15q-108 0 -197 85q-86 81 -117 237l-49 291l-188 -326q-38 -63 -39 -111h-9l-249 472l-49 -400q-3 -23 20 -37
q9 -6 19 -6h16v-9h-209v10h16q26 0 46.5 15.5t25.5 42.5l68 477q-45 80 -103 142q-65 70 -136 70q-7 0 -13 -1z" />
    <glyph glyph-name="N" unicode="N" horiz-adv-x="865" 
d="M971 -122.5q21 -8.5 40.5 -12t43 -3.5t48.5 6l4 -10q-56 -27 -113 -27q-131 0 -267 145l-474 503v-409q0 -25 18 -42.5t43 -17.5h19v-10h-303v10h18q26 0 44 17.5t18 43.5v561q-49 56 -74 78.5t-44.5 37.5t-37.5 25q-42 24 -67.5 28t-48 4t-48.5 -9l-4 10q55 32 113 32
q126 0 267 -150l447 -475v416q-1 26 -19 43.5t-43 17.5h-18v10h303v-10h-19q-25 0 -43 -17.5t-19 -42.5v-569l16 -16q6 -6 18.5 -20.5t22.5 -25t25.5 -26.5t29 -28t32 -26t35 -23.5t37.5 -18z" />
    <glyph glyph-name="O" unicode="O" horiz-adv-x="930" 
d="M332 447q-18 38 -18 72.5t9 64t30 58t59 47.5q52 27 125 27q96 0 182 -49q113 -64 157 -177q25 -62 25 -133q0 -167 -120.5 -269t-314 -102t-315 102t-121.5 268q0 124 70.5 215.5t190.5 124.5l6 -9q-51 -43 -77 -126t-26 -179q0 -162 75 -258t196.5 -96t196 90.5
t74.5 239.5q0 90 -27.5 162.5t-79.5 112t-116 39.5q-71 0 -115 -37q-62 -53 -62 -135q0 -26 7 -53h-11z" />
    <glyph glyph-name="P" unicode="P" horiz-adv-x="705" 
d="M318 380q17 -40 70 -40q60 0 96 60q25 41 25 104q0 93 -49 136q-37 32 -94 32q-13 0 -27 -2l-67 -10v-587q0 -27 19 -45t45 -18h13v-10h-304v10h13q26 0 44.5 18t19.5 45v533q-1 26 -15.5 41t-42.5 15q-7 0 -18 -1l-2 9q85 7 178.5 23.5t123 20.5t60 4t73.5 -6.5t88 -29
t73 -66.5q29 -48 29 -108.5t-22 -106.5q-42 -88 -144 -112q-25 -6 -47.5 -6t-42.5 4q-41 6 -69 28t-35 61z" />
    <glyph glyph-name="Q" unicode="Q" horiz-adv-x="925" 
d="M1480 -202q-103 -70 -263 -70q-170 0 -340 65q-50 19 -147 61q-256 112 -319 132v10h2h2q119 0 209 75q45 38 74 102q33 73 33 165q0 129 -65 225q-34 49 -86 80q-57 34 -129 34q-112 0 -190 -85.5t-78 -240.5q0 -107 43 -180q51 -86 150 -86q21 0 48.5 6.5t57 36.5
t37.5 78l11 -1q-1 -84 -49 -122q-49 -38 -111 -38q-32 0 -69 5q-123 21 -200.5 105t-77.5 204q0 76 31 143q65 137 228 191q79 26 172 26q195 0 316 -104t121 -262q0 -78 -29.5 -145t-78.5 -112q-100 -94 -234 -114q88 -13 227.5 -43.5t194.5 -42.5q220 -47 359 -47
q17 0 54 2t91.5 18t88.5 47l6 -4q-23 -69 -90 -114z" />
    <glyph glyph-name="R" unicode="R" horiz-adv-x="731" 
d="M1085 -170q-78 -39 -166 -39q-78 0 -142 24q-138 51 -235 199q-25 36 -93 138t-88 130q-35 55 -56 60v10h2.5h3.5h4h5h5q51 0 94 23q65 36 65 133q0 71 -40 109.5t-96 38.5h-76v-583q0 -26 19 -44.5t45 -18.5h13v-10h-304v10h13q25 0 44 18t20 44v555q-1 26 -19.5 44.5
t-44.5 18.5h-13v10h343q129 0 200 -59q56 -46 56 -130t-54.5 -136.5t-124.5 -52.5q-6 0 -13 1q41 -22 68.5 -49t48 -51t35 -42.5t38.5 -49t50 -63.5t57.5 -67.5t70 -65.5t78.5 -51q85 -43 187 -44v-10z" />
    <glyph glyph-name="S" unicode="S" horiz-adv-x="623" 
d="M94 284q-40 -64 -40 -131q0 -73 53 -133q29 -34 73.5 -53t97.5 -19t95 20q84 41 84 134q0 35 -23.5 74t-70.5 70l-170 114q-99 62 -99 160q0 10 1 20q6 77 61.5 125.5t148.5 48.5q57 0 138 -10h62l-13 -147h-9q-1 52 -40 83.5t-103 31.5q-78 0 -113 -47q-17 -24 -17 -52
t17 -47.5t54 -42.5l187 -122q57 -37 89 -87q38 -59 38 -121q0 -40 -16.5 -84.5t-54 -82.5t-96.5 -62t-130.5 -24t-129.5 25q-107 45 -136 157q-6 24 -6 50q0 84 59 159z" />
    <glyph glyph-name="T" unicode="T" horiz-adv-x="698" 
d="M-26 467q-49 47 -49 101q0 42 27 73q51 60 143 60h471q44 1 77 7.5t42 10.5v-174h-10v12q0 45 -27 73t-73 29h-135v-587q2 -36 33 -54q14 -8 31 -8h13v-10h-304v10h13q26 0 44.5 18t19.5 43v588h-195q-41 0 -72 -15q-63 -30 -63 -94q0 -38 24 -78z" />
    <glyph glyph-name="U" unicode="U" horiz-adv-x="824" 
d="M910 903q13 0 27 -1v-10q-118 -9 -170 -112q-34 -67 -34 -170v-357q-2 -126 -81 -196.5t-225.5 -70.5t-233.5 72.5t-86 193.5v389q0 21 -15.5 35t-37.5 14h-16v10h288v-10h-16q-31 0 -46 -24q-7 -11 -7 -24v-382q0 -106 55 -168t145 -62h1h1q89 0 146 58t57 159v363
q0 135 71.5 214t176.5 79z" />
    <glyph glyph-name="V" unicode="V" horiz-adv-x="719" 
d="M925 948q25 0 42 -2v-10q-62 -3 -107 -30q-51 -31 -72.5 -57.5t-34 -43t-24.5 -39.5q-19 -35 -35 -69l-268 -586q-46 -99 -49 -131h-9l-303 653q-15 28 -38 42.5t-47 14.5h-8v10h318v-10h-8q-22 0 -32.5 -13.5t-10.5 -25.5t4 -24l170 -413l207 483q47 111 110 167
q93 84 195 84z" />
    <glyph glyph-name="W" unicode="W" horiz-adv-x="960" 
d="M1079 934q46 12 75 12t46 -2v-10q-131 -7 -210 -120q-41 -58 -66 -135l-188 -586q-17 -55 -17 -102v-9h-10l-217 482l-178 -423q-27 -66 -79 -128q-56 -66 -136 -87q-19 -6 -40 -6t-45 7l1 10q37 2 71.5 20t60.5 43.5t50 59.5q39 55 66 120l-203 552q-13 29 -37 43.5
t-49 14.5h-8v10h305v-10h-9q-21 0 -31.5 -13.5t-10.5 -25.5t4 -23l123 -347l181 435l9 -1l199 -439l115 403q25 87 79 154q63 79 149 101z" />
    <glyph glyph-name="X" unicode="X" horiz-adv-x="729" 
d="M742 10h14v-10h-341v10h13q21 0 34 20q6 11 6 21t-6 20l-139 217l-194 -276q-118 -166 -259 -166q-21 0 -43 4v10q88 8 151 75q30 32 72 89l234 324l-183 283q-23 35 -61 51q-20 8 -40 8h-14v10h340v-10h-13q-21 0 -34 -20q-6 -11 -6 -21.5t5 -19.5l123 -189l174 256
q114 167 256 167q12 0 25 -1v-10q-82 -2 -164 -113q-12 -15 -23.5 -32t-14.5 -20l-213 -309l200 -310q17 -25 44.5 -41.5t56.5 -16.5z" />
    <glyph glyph-name="Y" unicode="Y" horiz-adv-x="667" 
d="M-67 758q16 1 50.5 1t91 -14.5t104.5 -45.5t88 -75q74 -82 116 -197q60 171 156 262q73 69 161 69h8v-10q-50 -1 -103.5 -52.5t-93.5 -124.5t-67.5 -152t-32.5 -137v-209q0 -25 18.5 -44t45.5 -19h13v-10h-304v10h13q26 0 44.5 18.5t19.5 44.5v210q-12 108 -72 229
q-69 140 -155 199q-50 35 -101 37v10z" />
    <glyph glyph-name="Z" unicode="Z" horiz-adv-x="649" 
d="M969.5 -187q-47.5 -28 -90.5 -36t-70 -8t-61.5 2t-88.5 16.5t-112 34.5t-111 44t-108 47.5t-102 42.5q-104 43 -174 44h-7v9l367 650h-242q-46 -1 -73.5 -28.5t-27.5 -73.5v-12h-10v174q15 -6 52.5 -12t53 -6h15.5h319q42 0 71 5t34 8v-9l-390 -697l30 -7
q35 -10 107.5 -29t104 -27.5t92 -23.5t90 -21t80 -16t78.5 -12q78 -5 99.5 -5t42.5 2q66 8 111 26l7 -7q-39 -47 -86.5 -75z" />
    <glyph glyph-name="bracketleft" unicode="[" horiz-adv-x="417" 
d="M120 -90v812h254v-10l-104 -38v-716l107 -38v-10h-257z" />
    <glyph glyph-name="backslash" unicode="\" horiz-adv-x="426" 
d="M9 696l48 23l360 -708l-47 -25z" />
    <glyph glyph-name="bracketright" unicode="]" horiz-adv-x="350" 
d="M43 722h254v-812h-257v10l107 38v716l-104 38v10z" />
    <glyph glyph-name="asciicircum" unicode="^" horiz-adv-x="552" 
d="M245 377h65l208 -201h-78l-162 153l-164 -153h-79z" />
    <glyph glyph-name="underscore" unicode="_" horiz-adv-x="500" 
d="M0 -102v42h500v-42h-500z" />
    <glyph glyph-name="grave" unicode="`" horiz-adv-x="536" 
d="M272 751l-7 -7q-100 24 -204 90q19 57 68 81q101 -91 143 -164z" />
    <glyph glyph-name="a" unicode="a" horiz-adv-x="716" 
d="M737 10h9v-10h-319v10h9q22 0 32.5 13.5t10.5 25.5t-5 24l-49 123h-234l-52 -123q-5 -13 -5 -24.5t10.5 -25t33.5 -13.5h8v-10h-214v10h9q23 0 46 14t38 42l231 523q47 99 50 131h9l297 -652q15 -29 38 -43.5t47 -14.5zM208 238h200l-97 246z" />
    <glyph glyph-name="b" unicode="b" horiz-adv-x="673" 
d="M359 0h-317v10h13q26 0 44.5 18t19.5 44v556q-1 26 -19.5 44t-44.5 18h-13v10h290q116 0 184.5 -42t69.5 -129q-1 -44 -19 -77q-33 -62 -104 -71q77 -7 127 -57.5t50 -128.5q0 -94 -75.5 -144.5t-205.5 -50.5zM426 516q-1 141 -128 141h-29v-611h46h2q69 0 110 40t41 121
q0 57 -23 94q-43 69 -142 69v0v9v0q52 0 87 33.5t36 103.5z" />
    <glyph glyph-name="c" unicode="c" horiz-adv-x="780" 
d="M155 84q-110 97 -110 266t109 266.5t299 97.5q145 0 249 -54l2 -172h-8q-51 184 -233 184q-118 0 -186.5 -85.5t-68.5 -233.5t65.5 -235t177.5 -90q116 0 177 58q62 60 86 206h8l10 -172q-81 -134 -274 -133.5t-303 97.5z" />
    <glyph glyph-name="d" unicode="d" horiz-adv-x="828" 
d="M685 606q103 -94 103 -256t-103 -256t-280 -94h-363v10h13q26 0 44.5 18.5t19.5 44.5v560q-3 24 -21 40.5t-43 16.5h-13v10h363q177 0 280 -94zM392 42q72 0 124.5 37.5t80.5 107t28 163.5q0 142 -62.5 225t-170.5 83h-123v-616h123z" />
    <glyph glyph-name="e" unicode="e" horiz-adv-x="631" 
d="M55 10q26 0 44.5 18.5t19.5 44.5v557q-3 35 -33 52q-15 8 -31 8h-13v10h383q31 0 68 6t52 12v-175h-10v12q0 45 -26.5 72.5t-71.5 29.5h-168v-291h132q37 1 61 25.5t24 60.5v9h10v-231h-10v8q0 50 -40 74q-20 11 -44 12h-133v-281h131q73 0 122.5 42t73.5 119h10
l-46 -204h-518v10h13z" />
    <glyph glyph-name="f" unicode="f" horiz-adv-x="595" 
d="M269 657v-291h132q37 1 61 25t24 61v9h10v-231h-10v8q0 37 -23.5 61t-60.5 25h-133v-251q0 -37 32 -55q15 -8 32 -8h12l1 -10h-304v10h13q26 0 44.5 18.5t19.5 44.5v557q-2 25 -20.5 42.5t-43.5 17.5h-13v10h383q49 0 81 7.5t39 10.5v-169h-10v10q0 44 -25.5 70.5
t-69.5 27.5h-171z" />
    <glyph glyph-name="g" unicode="g" horiz-adv-x="836" 
d="M819 325h-15q-24 0 -37 -11.5t-13 -33.5v-165q-39 -51 -129 -90t-202 -39q-171 0 -274.5 98.5t-103.5 266t103.5 265.5t280.5 98q80 0 155 -15.5t121 -38.5l2 -172h-9q-26 97 -89 140.5t-150 43.5q-121 0 -186 -86.5t-65 -237t59.5 -235.5t168.5 -85q79 0 132 45
q26 23 38 54v153q0 22 -13.5 33.5t-38.5 11.5h-16v10h281v-10z" />
    <glyph glyph-name="h" unicode="h" horiz-adv-x="861" 
d="M529 10q26 0 40 13q23 23 24 49v255h-324v-254q0 -26 19 -44.5t45 -18.5h12l1 -10h-304v10h13q26 0 44.5 18.5t19.5 44.5v555q-1 26 -19.5 44t-44.5 18h-13v10h304l-1 -10h-12q-26 0 -45 -18t-19 -44v-258h324v258q-1 26 -19.5 44t-44.5 18h-13v10h304v-10h-13
q-26 0 -45 -18.5t-19 -44.5v-554q0 -26 19 -44.5t45 -18.5h13v-10h-304v10h13z" />
    <glyph glyph-name="i" unicode="i" horiz-adv-x="386" 
d="M55 10q26 0 44.5 18.5t19.5 44.5v555q-1 26 -19.5 44t-44.5 18h-13v10h304l-1 -10h-12q-26 0 -45 -18t-19 -44v-555q0 -26 19 -44.5t45 -18.5h12l1 -10h-304v10h13z" />
    <glyph glyph-name="j" unicode="j" horiz-adv-x="384" 
d="M336 690q-26 0 -44.5 -18.5t-19.5 -44.5v-597q0 -71 -38 -127t-93 -80t-110 -24q-13 0 -26 1v9q60 25 88.5 86.5t28.5 137.5v594q-1 37 -32 55q-15 8 -32 8h-13v10h304v-10h-13z" />
    <glyph glyph-name="k" unicode="k" horiz-adv-x="756" 
d="M55 10q26 0 44.5 18.5t19.5 44.5v555q-1 36 -33 54q-14 8 -31 8h-13v10h304l-1 -10h-12q-36 0 -55 -31q-9 -14 -9 -31v-555q0 -26 19 -44.5t45 -18.5h12l1 -10h-304v10h13zM777 0h-82q-152 0 -215 83q-179 243 -179 247l237 314q8 10 8 18t-3 14q-8 15 -28 15h-10v9h229
v-9h-4q-67 0 -109 -48l-195 -231l249 -340q46 -60 102 -62v-10z" />
    <glyph glyph-name="l" unicode="l" horiz-adv-x="616" 
d="M55 10q26 0 44.5 18.5t19.5 44.5v554q-1 26 -19.5 44.5t-44.5 18.5h-13v10h304l-1 -10h-12q-26 0 -45 -18.5t-19 -44.5v-584h131q73 0 122.5 42t73.5 119h10l-46 -204h-518v10h13z" />
    <glyph glyph-name="m" unicode="m" horiz-adv-x="953" 
d="M947 10h16v-10h-300v9h15q17 0 29 13.5t10 29.5l-39 363l-188 -324q-37 -62 -38 -111h-10l-257 432l-39 -360q-2 -16 10 -29.5t29 -13.5h15v-9h-209v10h16q28 0 48.5 17t24.5 46l83 641h9l310 -510l298 510h9l85 -641q5 -29 25.5 -46t47.5 -17z" />
    <glyph glyph-name="n" unicode="n" horiz-adv-x="865" 
d="M817 690q-25 0 -43 -17.5t-19 -42.5v-516q0 -67 9 -113l3 -15h-9l-505 481v-397q0 -25 18 -42.5t43 -17.5h19v-10h-303v10h18q26 0 44 17.5t18 43.5v519q0 66 -9 110l-2 15h9l505 -481v395q-1 26 -19 43.5t-43 17.5h-18v10h303v-10h-19z" />
    <glyph glyph-name="o" unicode="o" horiz-adv-x="879" 
d="M440 714q185 0 294 -98t109 -266t-109 -266t-294 -98t-294 98t-109 266q0 111 49.5 193.5t140.5 126.5t213 44zM440 28q110 0 174.5 86.5t64.5 235.5q0 98 -29 171t-83 112t-127 39q-110 0 -174.5 -86.5t-64.5 -235.5t64.5 -235.5t174.5 -86.5z" />
    <glyph glyph-name="p" unicode="p" horiz-adv-x="655" 
d="M609 413q-34 -78 -126 -108q-27 -9 -50 -9q-71 0 -127 37v10q75 -2 121 49q41 44 41 115q0 109 -76 141q-24 10 -53 10h-67v-585q0 -26 19 -44.5t45 -18.5h13v-10h-304v10h13q26 0 44.5 18.5t19.5 44.5v559q-4 34 -34 50q-14 8 -30 8h-13v10h334q181 0 232 -115
q16 -38 16 -84.5t-18 -87.5z" />
    <glyph glyph-name="q" unicode="q" horiz-adv-x="894" 
d="M1120 -145q141 0 231 73l6 -4q-5 -81 -76 -138q-80 -65 -198.5 -65t-256.5 67q-62 31 -205 123q-40 27 -91 49t-95 26q-180 4 -285.5 101.5t-105.5 262.5q0 111 49.5 193.5t140.5 126.5t213 44q185 0 294 -98t109 -266q0 -133 -70 -224t-195 -123q63 -13 125.5 -34.5
t180 -67.5t229.5 -46zM208 350q0 -149 64.5 -235.5t174.5 -86.5t174.5 86.5t64.5 235.5q0 98 -29 171t-83 112t-127 39q-110 0 -174.5 -86.5t-64.5 -235.5z" />
    <glyph glyph-name="r" unicode="r" horiz-adv-x="746" 
d="M318 656h-43h-3v-583q1 -37 32 -55q15 -8 32 -8h13v-10h-304v10h13q36 0 55 31q8 14 9 31v555q-1 26 -19.5 44.5t-44.5 18.5h-13v10h343q97 0 164 -42q34 -21 54 -58.5t20 -85t-16.5 -87.5t-55 -70t-92.5 -36q58 -19 102 -88q108 -173 160 -206q26 -16 65 -17v-10h-98
q-85 0 -142 23.5t-93 80.5q-18 29 -46 87.5t-37 83.5q-27 60 -68 67v10h31q45 0 79.5 27t46.5 88q4 21 4 33q0 82 -33 118.5t-85 37.5h-30z" />
    <glyph glyph-name="s" unicode="s" horiz-adv-x="578" 
d="M50 93q0 72 31 123h9q-1 -8 -1 -16q0 -69 49.5 -120.5t135.5 -51.5q67 0 104.5 32t37.5 81q0 59 -80 103l-174 115q-52 30 -74.5 72.5t-22.5 86.5q0 94 59.5 145t152.5 51q55 0 136 -10h63l-13 -147h-10q0 52 -38.5 83.5t-102.5 31.5q-78 0 -113 -48q-18 -23 -18 -52
q0 -48 70 -89l191 -124q90 -52 90 -153q0 -107 -72.5 -163.5t-192.5 -56.5q-68 0 -125.5 16.5t-84.5 44.5q-7 19 -7 46z" />
    <glyph glyph-name="t" unicode="t" horiz-adv-x="666" 
d="M409 659v-587q1 -26 19.5 -44t44.5 -18h12l1 -10h-304v10h13q25 0 43.5 18t20.5 43v588h-135q-46 -1 -73 -29t-27 -73v-12h-10v174q14 -6 50.5 -12t67.5 -6h403q49 1 80 8t38 10v-174h-10v12q0 45 -27 73t-73 29h-134z" />
    <glyph glyph-name="u" unicode="u" horiz-adv-x="821" 
d="M790 690h-17q-21 0 -36.5 -13.5t-15.5 -33.5v-390q0 -123 -77 -195t-211 -72q-158 0 -242 70.5t-84 195.5v388q0 22 -15.5 36t-37.5 14h-16v10h288v-10h-16q-22 0 -37 -13.5t-16 -34.5v-382q0 -106 52 -168t143 -62t144 58.5t54 158.5v395q0 21 -15.5 34.5t-37.5 13.5
h-16v10h209v-10z" />
    <glyph glyph-name="v" unicode="v" horiz-adv-x="727" 
d="M756 690h-9q-23 0 -46 -14t-38 -42l-237 -523q-46 -99 -49 -131h-9l-303 653q-15 28 -38 42.5t-47 14.5h-8v10h318v-10h-8q-22 0 -32.5 -13.5t-10.5 -25.5t4 -24l170 -413l176 413q5 13 5 24.5t-10.5 25t-32.5 13.5h-9v10h214v-10z" />
    <glyph glyph-name="w" unicode="w" horiz-adv-x="971" 
d="M1000 690h-9q-25 0 -50.5 -15t-36.5 -43l-168 -539q-17 -55 -17 -102v-9h-10l-218 483l-158 -372q-23 -58 -24 -111h-10l-239 650q-13 29 -37 43.5t-49 14.5h-8v10h305v-10h-9q-21 0 -31.5 -13.5t-10.5 -25.5t4 -23l123 -348l181 436l9 -1l199 -439l100 352q3 11 3 23
t-9.5 25.5t-31.5 13.5h-9v10h211v-10z" />
    <glyph glyph-name="x" unicode="x" horiz-adv-x="729" 
d="M428 10q21 0 34 20q6 11 6 21t-6 20l-140 218l-147 -217q-17 -30 10 -52q12 -10 25 -10h13v-10h-247v10h14q56 0 99 56l197 279l-185 286q-17 25 -44 42t-57 17h-14v10h340v-10h-13q-21 0 -34 -20q-6 -11 -6 -21.5t5 -19.5l125 -193l123 192q6 10 6 20.5t-7 20.5
q-13 21 -34 21h-13v10h246v-10h-14q-30 0 -56 -16.5t-44 -41.5l-170 -253l201 -311q17 -25 44.5 -41.5t56.5 -16.5h14v-10h-341v10h13z" />
    <glyph glyph-name="y" unicode="y" horiz-adv-x="702" 
d="M734 690h-14q-30 0 -57 -17t-43 -41l-197 -314v-245q0 -26 19 -44.5t45 -18.5h12l1 -10h-304v10h13q26 0 44.5 18t19.5 44v247l-191 314q-15 24 -42.5 40.5t-56.5 16.5h-14v10h331v-10h-13q-22 0 -34 -20q-6 -11 -6 -21.5t5 -20.5l143 -260l148 260q6 10 6 20.5t-7 20.5
q-12 21 -34 21h-12v10h238v-10z" />
    <glyph glyph-name="z" unicode="z" horiz-adv-x="660" 
d="M59 719q15 -6 52.5 -12t53 -6h15.5h319q49 0 75 5.5t30 7.5v-9l-370 -663h210q64 0 111.5 43t67.5 116h10l-36 -201h-552v9l367 650h-242q-46 -1 -73.5 -28.5t-27.5 -73.5v-12h-10v174z" />
    <glyph glyph-name="braceleft" unicode="{" horiz-adv-x="439" 
d="M0 443l8 3q9 -48 41 -70q18 -12 35 -12t32 7q28 13 40 50q5 17 5 57l-4 96q0 64 19 113.5t52 75.5q51 41 116 41q60 0 113 -36l-5 -7q-28 7 -51 7t-39 -5q-24 -7 -41 -46q-12 -26 -15 -125q-3 -121 -40 -178q-35 -54 -109 -72q-23 -6 -45 -6q-95 0 -112 107zM161 156
q0 11 -1.5 37.5t-18.5 49.5q-10 13 -25 20t-32 7t-35 -12q-32 -22 -41 -70l-8 3q7 41 24 66t41 33q44 14 92 2q75 -19 110.5 -75t38.5 -162q0 -1 0.5 -31.5t5.5 -64.5q3 -27 8.5 -39.5t16 -28t25.5 -20.5t27 -5h23.5t39.5 7l5 -7q-54 -36 -116 -36q-20 0 -42 6
q-90 22 -124 112q-18 49 -18 111z" />
    <glyph glyph-name="bar" unicode="|" horiz-adv-x="257" 
d="M100 -180v880h57v-880h-57z" />
    <glyph glyph-name="braceright" unicode="}" horiz-adv-x="439" 
d="M279 478q0 -12 2 -38t19 -49q10 -13 25 -20t31.5 -7t35.5 12q31 22 41 70l7 -3q-8 -56 -37 -81q-13 -11 -27.5 -18t-26.5 -7.5t-27 -0.5t-39 6q-73 18 -108 72t-40 157q0 7 -1 41t-5 67q-4 26 -9 38t-16 27t-26 19.5t-27 4.5h-23.5t-39.5 -7l-5 7q53 36 115 36
q20 0 42 -5q91 -22 125 -112q19 -49 19 -113zM440 191l-7 -3q-9 48 -42 70q-18 12 -34.5 12t-32.5 -7q-27 -13 -39 -50q-6 -18 -6 -57l5 -97q0 -62 -18.5 -111.5t-51.5 -75.5q-52 -42 -117 -42q-60 0 -114 36l5 7q28 -7 50.5 -7t39.5 5q24 7 42 48q12 27 15 132
q3 110 39 168q34 54 109 73q24 6 46 6q94 0 111 -107z" />
    <glyph glyph-name="asciitilde" unicode="~" horiz-adv-x="493" 
d="M464 313q0 -40 -23 -66q-37 -39 -95 -39q-46 0 -109 48q-66 51 -96.5 51t-43.5 -22q-9 -14 -9 -33t4 -39h-57q-4 21 -4 40q0 42 22 70q34 41 89 41q46 0 110 -49q67 -50 97.5 -50t48.5 25q10 13 10 30.5t-9 38.5h59q6 -25 6 -46z" />
    <glyph glyph-name="exclamdown" unicode="&#xa1;" horiz-adv-x="269" 
d="M136 712q30 0 51 -21.5t21 -51.5t-21 -51t-51 -21t-51 21t-21 51t21 51.5t51 21.5zM76 323l36 171h47l35 -171l18 -323h-154z" />
    <glyph glyph-name="cent" unicode="&#xa2;" horiz-adv-x="587" 
d="M103.5 159q-74.5 71 -74.5 193.5t85.5 193.5t236.5 71l7 84l41 -1l-7 -85q85 -8 142 -37v-137h-7q-32 121 -138 136l-38 -462q87 1 129.5 43.5t58.5 145.5h6l11 -130q-26 -44 -78.5 -70.5t-129.5 -26.5l-7 -86l-40 3l7 84q-130 10 -204.5 81zM311 118l37 461
q-88 -2 -132.5 -61.5t-44.5 -163t36 -163t104 -73.5z" />
    <glyph glyph-name="sterling" unicode="&#xa3;" horiz-adv-x="603" 
d="M148 66q23 8 47 8t38.5 -2t45.5 -6q52 -7 82.5 -7t68.5 9t80.5 41.5t68.5 86.5h10l-45 -172q-75 -34 -178 -34q-41 0 -116 17.5t-96 17.5t-31.5 -1t-37.5 -11.5t-34 -18.5h-10v10q34 44 61 124t29 195h-93l15 48h77v25q0 301 247 318q13 1 42.5 1t71.5 -15t65 -43
l-40 -122h-10v7q0 130 -99 130q-46 0 -73.5 -23.5t-38.5 -61.5q-15 -54 -15 -140q0 -17 3 -76h181l-17 -48h-163q-2 -129 -42 -185q-20 -28 -41 -43.5t-53 -28.5z" />
    <glyph glyph-name="currency" unicode="&#xa4;" horiz-adv-x="541" 
d="M410 193q-60 -54 -140 -54t-140 52l-59 -59l-21 22l59 58q-53 60 -53 140.5t54 140.5l-60 60l21 21l60 -60q60 51 139 51t139 -52l61 61l22 -21l-62 -61q52 -60 52 -139.5t-51 -138.5l61 -60l-22 -22zM269.5 169q75.5 0 129 53.5t53.5 129.5t-53.5 129.5t-129 53.5
t-129.5 -53.5t-54 -129.5t54 -129.5t129.5 -53.5z" />
    <glyph glyph-name="yen" unicode="&#xa5;" horiz-adv-x="702" 
d="M734 690h-14q-40 0 -75 -30q-15 -12 -25 -28l-133 -211h107v-42h-133l-38 -61v-11h171v-42h-171v-192q0 -26 19 -44.5t45 -18.5h12l1 -10h-304v10h13q26 0 44.5 18.5t19.5 44.5v192h-173v42h173v12l-37 60h-136v42h111l-129 212q-15 24 -42.5 40.5t-56.5 16.5h-14v10h331
v-10h-13q-22 0 -34 -20q-6 -11 -6 -21.5t5 -20.5l143 -260l148 260q15 31 -10 52q-11 10 -25 10h-12v10h238v-10z" />
    <glyph glyph-name="brokenbar" unicode="&#xa6;" horiz-adv-x="257" 
d="M100 350v350h57v-350h-57zM100 -180v350h57v-350h-57z" />
    <glyph glyph-name="section" unicode="&#xa7;" horiz-adv-x="526" 
d="M82 566q90 147 253 147q50 0 86 -22q40 -26 40 -58q0 -17 -14 -34q-14 -19 -31.5 -19t-33 11t-34.5 26t-37 29q-21 16 -41 16t-36 -11q-21 -16 -21 -32t7 -33t17 -34t35 -46q35 -40 63.5 -70.5t30.5 -32.5q54 -59 85 -126q35 -78 35 -151q0 -111 -62 -187
q-34 -41 -84 -67q-57 -29 -129 -29q-89 0 -132 50q-13 15 -13 32t13 35q14 21 32 21t34.5 -11t37.5 -26.5t40 -29.5q44 -32 80 -5q21 16 21 36q0 37 -56 101q-39 45 -99 104q-112 110 -125 222q-2 20 -2 46q0 83 40 148zM143 583q-28 -58 -28 -99t12 -76
q23 -70 108.5 -152.5t119 -139t33.5 -104.5q0 -15 -3 -31q27 50 27 90.5t-13 77.5q-26 73 -114 162.5t-115 139t-27 119.5v13z" />
    <glyph glyph-name="dieresis" unicode="&#xa8;" 
d="M164 679q-25 0 -42.5 17.5t-17.5 42.5t17.5 42.5t42.5 17.5t42.5 -17.5t17.5 -42.5t-17.5 -42.5t-42.5 -17.5zM397 679q-25 0 -42.5 17.5t-17.5 42.5t17.5 42.5t42.5 17.5t42.5 -17.5t17.5 -42.5t-17.5 -42.5t-42.5 -17.5z" />
    <glyph glyph-name="copyright" unicode="&#xa9;" horiz-adv-x="848" 
d="M424 714q151 0 257.5 -106.5t106.5 -257.5t-106.5 -257.5t-257.5 -106.5t-257.5 106.5t-106.5 257.5t106.5 257.5t257.5 106.5zM424 668q-86 0 -159.5 -42.5t-116 -116t-42.5 -159.5t42.5 -159.5t116 -116t159.5 -42.5t159.5 42.5t116 116t42.5 159.5t-42.5 159.5
t-116 116t-159.5 42.5zM612 322h6l12 -103q-33 -44 -84 -68t-114 -24q-104 1 -172.5 64.5t-68.5 159t69 159t174 63.5q44 0 91 -11.5t81 -31.5l2 -112h-6q-21 57 -62.5 88.5t-103 31.5t-99 -51.5t-37.5 -136t38 -136t105.5 -51.5t113.5 40t55 119z" />
    <glyph glyph-name="ordfeminine" unicode="&#xaa;" horiz-adv-x="381" 
d="M380 382h5v-5h-173v5h4q11 0 18 8t2 21l-20 46h-109l-20 -44q-6 -14 1 -22.5t18 -8.5h4v-5h-113v5h4q26 0 42 27l114 234q25 56 26 68h5l150 -300q17 -29 42 -29zM119 483h86l-42 95z" />
    <glyph glyph-name="guillemotleft" unicode="&#xab;" horiz-adv-x="501" 
d="M160 292l100 -197l-9 -7q-90 117 -211 204q66 46 116 90t95 108l8 -5zM350 292l100 -197l-9 -7q-90 117 -211 204q66 46 116 90t95 108l8 -5z" />
    <glyph glyph-name="logicalnot" unicode="&#xac;" 
d="M562 195h-57v151h-465v57h522v-208z" />
    <glyph glyph-name="softhyphen" unicode="&#xad;" horiz-adv-x="380" 
d="M32 292l8 33h300l8 -33l-8 -34h-300z" />
    <glyph glyph-name="registered" unicode="&#xae;" horiz-adv-x="245" 
d="M123 701q47 0 80 -33t33 -80t-33 -80t-80 -33t-80 33t-33 80t33 80t80 33zM122.5 497q38.5 0 65 26.5t26.5 64.5t-26.5 64.5t-65 26.5t-64.5 -26.5t-26 -64.5t26 -64.5t64.5 -26.5zM169 618q0 -30 -30 -33q9 -2 24.5 -25.5t25.5 -26.5v-2h-16q-26 0 -38 19q-5 8 -9 16
q-11 23 -15 23v2h11q18 1 17 25.5t-22 24.5h-11v-98q0 -10 11 -10h2v-2h-54v2h2q10 0 11 10v95q-1 10 -11 10h-2v2h41l20 1q19 0 31 -9t12 -24z" />
    <glyph glyph-name="macron" unicode="&#xaf;" 
d="M158 703v65h274v-65h-274z" />
    <glyph glyph-name="degree" unicode="&#xb0;" horiz-adv-x="244" 
d="M122.5 664q40.5 0 69.5 -28.5t29 -69.5t-29 -70t-69.5 -29t-69.5 29t-29 70t29 69.5t69.5 28.5zM122 613q-20 0 -33.5 -13.5t-13.5 -33.5t13.5 -34t33.5 -14t34 14t14 34t-14 33.5t-34 13.5z" />
    <glyph glyph-name="plusminus" unicode="&#xb1;" horiz-adv-x="481" 
d="M269 408h173v-57h-173v-172h-57v172h-172v57h172v173h57v-173zM40 54v57h402v-57h-402z" />
    <glyph glyph-name="twosuperior" unicode="&#xb2;" horiz-adv-x="401" 
d="M177 717q70 0 116.5 -31.5t46.5 -84.5q0 -104 -167 -200h111q26 0 44.5 14t33.5 45h6l-38 -152h-295v6q15 17 50 57t53.5 63t42.5 57q45 64 45 120q0 37 -20 57t-49 20q-41 0 -62 -31t-21 -84h-6l-34 99q32 29 90 40q26 5 53 5z" />
    <glyph glyph-name="threesuperior" unicode="&#xb3;" horiz-adv-x="348" 
d="M282 669q17 -21 17 -52.5t-23 -53t-54 -24.5q38 -7 65.5 -32.5t27.5 -72t-27 -81.5q-49 -65 -154 -65q-55 0 -106 21l1 5h8q70 0 119 33t49 96q0 45 -31.5 66.5t-77.5 22.5l1 6h3q40 0 66.5 25t26.5 60t-19 48.5t-42 13.5q-51 0 -64 -45q-6 -19 -6 -35.5v-20.5h-6l-28 92
q43 37 130.5 37t123.5 -44z" />
    <glyph glyph-name="acute" unicode="&#xb4;" horiz-adv-x="536" 
d="M209 744l-7 7q44 74 144 164q49 -25 68 -81q-103 -65 -205 -90z" />
    <glyph glyph-name="paragraph" unicode="&#xb6;" horiz-adv-x="532" 
d="M416 147q0 -105 -60 -160l-9 8q25 42 27 90v60v513h-83v-658q0 -154 -98 -199l-7 9q41 42 51 75.5t10 67.5t-1 47v333q-85 0 -140.5 50t-55.5 133t56.5 133.5t139.5 50.5h174h7.5h8.5t9 0.5t10.5 2t10 3t12 5t11.5 7.5q12 8 27 25l7 -6q-9 -31 -37 -54.5t-70 -24.5v-511z
" />
    <glyph glyph-name="periodcentered" unicode="&#xb7;" horiz-adv-x="218" 
d="M109.5 393q31.5 0 60.5 -20.5t42 -51.5q-13 -31 -42 -51.5t-60.5 -20.5t-61 20.5t-41.5 51.5q12 31 41.5 51.5t61 20.5zM109 362q-18 0 -35 -12t-24 -29q7 -17 24 -29t35 -12t35.5 12t24.5 29q-7 17 -24.5 29t-35.5 12z" />
    <glyph glyph-name="cedilla" unicode="&#xb8;" 
d="M283 -48q32 11 61 3q53 -14 53 -63.5t-57 -75.5q-31 -14 -59.5 -14t-53.5 9l1 10q36 0 67 18.5t31 55.5q0 18 -15 29t-36 11t-41 -7l-5 10l48 63h48z" />
    <glyph glyph-name="onesuperior" unicode="&#xb9;" horiz-adv-x="260" 
d="M184 715h6v-369q0 -13 9.5 -22.5t22.5 -9.5h12v-6h-196v6h13q13 0 22.5 9.5t9.5 22.5v286q0 39 -37 39h-12v6q103 7 150 38z" />
    <glyph glyph-name="ordmasculine" unicode="&#xba;" horiz-adv-x="404" 
d="M72 665.5q48 45.5 130 45.5t130.5 -45.5t48.5 -123t-48.5 -123t-130.5 -45.5t-130 45.5t-48 123t48 123zM202 398q40 0 62 38.5t22 106t-22 106.5t-62 39t-61.5 -39t-21.5 -95t9 -88q20 -68 74 -68z" />
    <glyph glyph-name="guillemotright" unicode="&#xbb;" horiz-adv-x="501" 
d="M343 292l-100 193l8 5q45 -64 95 -108t116 -90q-121 -87 -211 -203l-9 6zM153 292l-100 193l8 5q45 -64 95 -108t116 -90q-121 -87 -211 -203l-9 6z" />
    <glyph glyph-name="onequarter" unicode="&#xbc;" horiz-adv-x="747" 
d="M590 719l38 -25l-478 -712l-38 26zM36 677q103 7 150 38h5v-369q0 -13 10 -22.5t23 -9.5h12v-6h-196v6h13q13 0 22.5 9.5t9.5 22.5v286q0 39 -37 39h-12v6zM682 6h7v-6h-188v6h7q19 0 30 16q4 7 5 16v69h-190v6l289 294h5v-243h28q27 0 39 22h6l-18 -79h-54v-68
q0 -13 10 -23t24 -10zM543 164v97l-96 -97h96z" />
    <glyph glyph-name="onehalf" unicode="&#xbd;" horiz-adv-x="832" 
d="M576 719l38 -25l-478 -712l-38 26zM185 715h6v-369q0 -13 10 -22.5t23 -9.5h12v-6h-196v6h12q14 0 23.5 9.5t9.5 22.5v286q0 39 -37 39h-12v6q103 7 149 38zM521 397.5q39 11.5 82.5 11.5t80.5 -13.5t58.5 -40.5t21.5 -62q0 -104 -166 -200h110q34 0 57 25q11 13 22 35h6
l-38 -153h-296v6q15 17 42 48t44.5 51t39.5 49t35 51q31 54 31 94.5t-20 60.5t-50 20q-41 0 -62 -31t-21 -84h-5l-35 100q24 21 63 32.5z" />
    <glyph glyph-name="threequarters" unicode="&#xbe;" horiz-adv-x="789" 
d="M649 719l38 -25l-478 -712l-39 26zM277 678q24 -24 24 -53t-11 -47q-22 -35 -65 -39q38 -7 65.5 -32.5t27.5 -72t-27 -81.5q-50 -65 -154 -65q-55 0 -106 21l1 5h8q70 0 119 33t49 96q0 31 -17 52q-29 36 -92 37l1 6h3q40 0 66.5 25t26.5 60t-19.5 48.5t-41.5 13.5
q-40 0 -55 -24t-15 -69v-8h-6l-28 92q42 37 125 37t121 -35zM733 6h6v-6h-187v6h6q14 0 24 9.5t11 22.5v69h-189v6l288 294h6v-243h27q27 0 39 22h6l-18 -79h-54v-68q0 -19 18 -29q7 -4 17 -4zM593 164v97l-96 -97h96z" />
    <glyph glyph-name="questiondown" unicode="&#xbf;" horiz-adv-x="487" 
d="M203 689q21 21 45.5 21t41.5 -10q37 -20 36 -62q1 -30 -20.5 -51.5t-51.5 -21.5t-51 21.5t-21 51.5t21 51zM262 -14q-107 0 -165.5 46t-58.5 128q0 36 16 69t35 53t54 53.5t51.5 52t23 26.5t13.5 23q13 26 -7 60l7 6q79 -35 79 -104q0 -47 -42 -94q-17 -18 -33 -38
q-37 -46 -37 -109t27 -96.5t77.5 -33.5t79 39t28.5 115h10l34 -107q-23 -41 -74 -65t-118 -24z" />
    <glyph glyph-name="Agrave" unicode="&#xc0;" horiz-adv-x="705" 
d="M363 787l-7 -7q-101 24 -205 90q19 57 68 81q101 -91 144 -164zM965 -183q-65 -33 -121 -33t-106 16.5t-101 55.5q-110 84 -177 258l-32 85h-236l-53 -126q-5 -13 -5 -21t3.5 -17.5t15 -17t25.5 -7.5h8v-10h-214v10h9q23 0 45.5 13.5t37.5 40.5l223 509q-39 88 -83 121
q-37 28 -70.5 28t-62.5 -10l-2 10q72 37 138 37q82 0 147 -64q64 -63 113 -182l145 -358q82 -203 168 -279q35 -31 72 -43t62.5 -12t49.5 6zM209 242h204l-70 185q-5 14 -14 38.5t-12 34.5z" />
    <glyph glyph-name="Aacute" unicode="&#xc1;" horiz-adv-x="705" 
d="M333 778l-7 7q43 74 144 164q49 -25 68 -81q-103 -65 -205 -90zM965 -183q-109 -55 -221 -18q-119 38 -205 162q-46 66 -79 153l-32 85h-236l-53 -126q-5 -13 -5 -24.5t11 -25t33 -13.5h8v-10h-214v10h9q23 0 45.5 13.5t37.5 40.5l223 509q-39 88 -83 121
q-37 28 -70.5 28t-62.5 -10l-2 10q72 37 138 37q82 0 147 -64q64 -63 113 -182l145 -358q82 -203 168 -279q35 -31 72 -43t62.5 -12t49.5 6zM209 242h204l-70 185q-5 13 -14.5 39t-11.5 34z" />
    <glyph glyph-name="Acircumflex" unicode="&#xc2;" horiz-adv-x="705" 
d="M337 931h11l154 -153l-7 -8l-153 65l-142 -65l-7 8zM965 -183q-65 -33 -121 -33t-106 16.5t-101 55.5q-110 84 -177 258l-32 85h-236l-53 -126q-5 -13 -5 -21t3.5 -17.5t15 -17t25.5 -7.5h8v-10h-214v10h9q23 0 45.5 13.5t37.5 40.5l223 509q-39 88 -83 121
q-37 28 -70.5 28t-62.5 -10l-2 10q72 37 138 37q82 0 147 -64q64 -63 113 -182l145 -358q82 -203 168 -279q35 -31 72 -43t62.5 -12t49.5 6zM209 242h204l-70 185q-5 13 -14.5 39t-11.5 34z" />
    <glyph glyph-name="Atilde" unicode="&#xc3;" horiz-adv-x="705" 
d="M511 905h12q2 -10 2 -21q0 -31 -20 -62q-27 -42 -78 -42q-30 0 -76 23.5t-60 25.5t-26.5 2t-32.5 -14t-28 -34h-11q-1 8 -1 15q0 38 23.5 77.5t73.5 39.5q27 0 75.5 -25t87.5 -25q13 0 33 12t26 28zM965 -183q-65 -33 -121 -33t-106 16.5t-101 55.5q-110 84 -177 258
l-32 85h-236l-53 -126q-5 -13 -5 -21t3.5 -17.5t15 -17t25.5 -7.5h8v-10h-214v10h9q23 0 45.5 13.5t37.5 40.5l223 509q-39 88 -83 121q-37 28 -70.5 28t-62.5 -10l-2 10q72 37 138 37q82 0 147 -64q64 -63 113 -182l145 -358q50 -124 92 -186q50 -75 86 -100
q66 -47 106 -47q25 0 68 5zM209 242h204l-70 185q-5 14 -14 38.5t-12 34.5z" />
    <glyph glyph-name="Adieresis" unicode="&#xc4;" horiz-adv-x="705" 
d="M225 775q-25 0 -42.5 17.5t-17.5 42.5t17.5 42.5t42.5 17.5t42.5 -17.5t17.5 -42.5t-17.5 -42.5t-42.5 -17.5zM458 775q-25 0 -42.5 17.5t-17.5 42.5t17.5 42.5t42.5 17.5t42.5 -17.5t17.5 -42.5t-17.5 -42.5t-42.5 -17.5zM965 -183q-65 -33 -121 -33t-106 16.5
t-101 55.5q-110 84 -177 258l-32 85h-236l-53 -126q-5 -13 -5 -21t3.5 -17.5t15 -17t25.5 -7.5h8v-10h-214v10h9q23 0 45.5 13.5t37.5 40.5l223 509q-39 88 -83 121q-37 28 -70.5 28t-62.5 -10l-2 10q72 37 138 37q82 0 147 -64q64 -63 113 -182l145 -358q82 -203 168 -279
q35 -31 72 -43t62.5 -12t49.5 6zM209 242h204l-70 185q-5 13 -14.5 39t-11.5 34z" />
    <glyph glyph-name="Aring" unicode="&#xc5;" horiz-adv-x="705" 
d="M266 923q31 24 69.5 24t63 -10.5t38.5 -29t14 -42.5t-14 -44q-30 -41 -94 -41q-47 0 -77.5 23.5t-30.5 59.5t31 60zM379.5 905.5q-14.5 16.5 -36.5 16.5t-36 -16.5t-14 -42.5t14 -42t36 -16t36.5 16t14.5 42t-14.5 42.5zM965 -183q-65 -33 -121 -33t-106 16.5t-101 55.5
q-110 84 -177 258l-32 85h-236l-53 -126q-5 -13 -5 -21t3.5 -17.5t15 -17t25.5 -7.5h8v-10h-214v10h9q23 0 45.5 13.5t37.5 40.5l223 509q-39 88 -83 121q-37 28 -70.5 28t-62.5 -10l-2 10q72 37 138 37q82 0 147 -64q64 -63 113 -182l145 -358q82 -203 168 -279
q35 -31 72 -43t62.5 -12t49.5 6zM209 242h204l-70 185q-5 14 -14 38.5t-12 34.5z" />
    <glyph glyph-name="AE" unicode="&#xc6;" horiz-adv-x="913" 
d="M-20 -43q-44 -38 -88 -51t-87.5 -13t-89.5 16l1 10h8q74 0 134 31.5t124 128.5l380 572q6 14 -1.5 26t-22.5 12h-4v11h233q31 0 69 6t53 12v-169h-10v10q0 60 -46 86q-21 12 -51 12h-69v-296h163q49 1 72 42q10 19 10 43v9h10v-231h-10v9q1 35 -22 59t-59 26h-164v-275
h204q66 0 114.5 40.5t70.5 111.5h10l-45 -195h-563v10h10q20 0 34.5 14t15.5 34v260h-146l-158 -263q-36 -60 -80 -98zM364 361v203l-121 -203h121z" />
    <glyph glyph-name="Ccedilla" unicode="&#xc7;" horiz-adv-x="826" 
d="M379 -188q51 0 81 31q17 17 17 39t-15 33t-36 11t-41 -7l-5 10l45 58q-187 10 -294 109t-107 257.5t119.5 259.5t315.5 101q75 0 143 -15t113 -39l2 -172h-8q-17 64 -57 107q-72 77 -194 77t-196.5 -87t-74.5 -230.5t77.5 -233.5t213.5 -93q147 0 234 94t87 255v14h9
q3 -30 3 -66t-9.5 -88.5t-38.5 -100t-73 -81.5q-86 -67 -218 -69l-37 -43q31 11 60 3q53 -14 53 -63.5t-57 -75.5q-30 -14 -58.5 -14t-54.5 9z" />
    <glyph glyph-name="Egrave" unicode="&#xc8;" horiz-adv-x="670" 
d="M286 771l-7 -7q-100 24 -205 90q20 57 68 81q102 -91 144 -164zM55 10q26 0 44.5 18.5t19.5 44.5v557q-3 35 -33 52q-15 8 -31 8h-13v10h281q31 0 68 6t52 12v-175h-11v12q1 45 -25.5 72.5t-71.5 29.5h-66v-291h159q37 1 61 25t24 61v9h9v-231h-9v8q0 37 -24 61t-60 25
h-160v-281h195q73 0 122.5 42t73.5 119h10l-47 -204h-581v10h13z" />
    <glyph glyph-name="Eacute" unicode="&#xc9;" horiz-adv-x="670" 
d="M257 762l-7 7q43 74 143 164q49 -25 68 -81q-103 -65 -204 -90zM55 10q26 0 44.5 18.5t19.5 44.5v557q-2 25 -20.5 42.5t-43.5 17.5h-13v10h281q44 0 77 7t43 11v-175l-11 1v11q1 45 -25.5 72.5t-71.5 29.5h-66v-291h159q37 1 61 25.5t24 60.5v9h9v-231h-9v8q0 37 -24 61
t-60 25h-160v-281h195q73 0 122.5 42t73.5 119h10l-47 -204h-581v10h13z" />
    <glyph glyph-name="Ecircumflex" unicode="&#xca;" horiz-adv-x="670" 
d="M261 915h11l153 -153l-7 -8l-152 65l-143 -65l-7 8zM55 10q26 0 44.5 18.5t19.5 44.5v557q-3 35 -33 52q-15 8 -31 8h-13v10h281q31 0 68 6t52 12v-175h-11v12q1 45 -25.5 72.5t-71.5 29.5h-66v-291h159q37 1 61 25t24 61v9h9v-231h-9v8q0 37 -24 61t-60 25h-160v-281
h195q73 0 122.5 42t73.5 119h10l-47 -204h-581v10h13z" />
    <glyph glyph-name="Edieresis" unicode="&#xcb;" horiz-adv-x="670" 
d="M148 759q-25 0 -42.5 17.5t-17.5 42.5t17.5 42.5t42.5 17.5t42.5 -17.5t17.5 -42.5t-17.5 -42.5t-42.5 -17.5zM381.5 759q-24.5 0 -42.5 17.5t-18 42.5t18 42.5t42.5 17.5t42.5 -17.5t18 -42.5t-18 -42.5t-42.5 -17.5zM55 10q26 0 44.5 18.5t19.5 44.5v557q-3 35 -33 52
q-15 8 -31 8h-13v10h281q44 0 77 7t43 11v-175h-11v12q1 45 -25.5 72.5t-71.5 29.5h-66v-291h159q37 1 61 25.5t24 60.5v9h9v-231h-9v8q0 37 -24 61t-60 25h-160v-281h195q73 0 122.5 42t73.5 119h10l-47 -204h-581v10h13z" />
    <glyph glyph-name="Igrave" unicode="&#xcc;" horiz-adv-x="456" 
d="M282 771l-7 -7q-100 24 -204 90q19 57 67 81q102 -91 144 -164zM403 10h13v-10h-304v10h13q26 0 44.5 18.5t19.5 44.5v586l-95 -4q-94 -5 -94 -70q0 -28 18.5 -46t51.5 -18h6v-6q-20 -7 -34 -7q-45 0 -69 32q-17 22 -17 50q0 44 34.5 72.5t106.5 33.5q13 1 84 4
q162 6 235 20l2 -10q-43 -7 -60.5 -29t-18.5 -65v-543q1 -26 19.5 -44.5t44.5 -18.5z" />
    <glyph glyph-name="Iacute" unicode="&#xcd;" horiz-adv-x="456" 
d="M253 762l-7 7q43 74 144 164q48 -25 67 -81q-102 -65 -204 -90zM403 10h13v-10h-304v10h13q26 0 44.5 18.5t19.5 44.5v586l-95 -4q-94 -4 -94 -70q0 -27 18.5 -45.5t51.5 -18.5h6v-6q-20 -7 -34 -7q-45 0 -69 32q-17 22 -17 50q0 44 34.5 72.5t106.5 33.5q13 1 84 4
q162 6 235 20l2 -10q-43 -7 -60.5 -29t-18.5 -65v-543q1 -37 32 -55q15 -8 32 -8z" />
    <glyph glyph-name="Icircumflex" unicode="&#xce;" horiz-adv-x="456" 
d="M257 915h11l153 -153l-7 -8l-152 65l-143 -65l-6 8zM403 10h13v-10h-304v10h13q26 0 44.5 18.5t19.5 44.5v586l-95 -4q-94 -5 -94 -70q0 -27 18.5 -45.5t51.5 -18.5h6v-6q-20 -7 -34 -7q-45 0 -69 32q-17 22 -17 50q0 44 34.5 72.5t106.5 33.5q13 1 84 4q162 6 235 20
l2 -10q-43 -7 -60.5 -29t-18.5 -65v-543q1 -37 32 -55q15 -8 32 -8z" />
    <glyph glyph-name="Idieresis" unicode="&#xcf;" horiz-adv-x="456" 
d="M144 759q-25 0 -42.5 17.5t-17.5 42.5t17.5 42.5t42.5 17.5t42.5 -17.5t17.5 -42.5t-17.5 -42.5t-42.5 -17.5zM378 759q-25 0 -42.5 17.5t-17.5 42.5t17.5 42.5t42.5 17.5t42.5 -17.5t17.5 -42.5t-17.5 -42.5t-42.5 -17.5zM403 10h13v-10h-304v10h13q26 0 44.5 18.5
t19.5 44.5v586l-95 -4q-94 -4 -94 -70q0 -27 18.5 -45.5t51.5 -18.5h6v-6q-20 -7 -34 -7q-45 0 -69 32q-17 22 -17 50q0 44 34.5 72.5t106.5 33.5q13 1 84 4q162 6 235 20l2 -10q-43 -7 -60.5 -29t-18.5 -65v-543q1 -26 19.5 -44.5t44.5 -18.5z" />
    <glyph glyph-name="Eth" unicode="&#xd0;" horiz-adv-x="854" 
d="M194 701h67.5t164.5 -1q178 -2 281 -95.5t103 -255t-103 -255.5t-281 -94h-362v10h13q25 0 43.5 17.5t20.5 42.5v259h-77v42h77v283q-157 -12 -216 -104q-12 -19 -23 -43l-10 4q23 99 99 144t203 46zM415 42q107 0 169.5 83t62.5 225t-62.5 224t-168.5 82h-2h-123v-285
h131v-42h-131v-287h123h1z" />
    <glyph glyph-name="Ntilde" unicode="&#xd1;" horiz-adv-x="865" 
d="M579 889h11q3 -11 3 -21q0 -31 -20 -62q-27 -42 -79 -42q-29 0 -75.5 23.5t-60.5 25.5t-26.5 2t-32 -14t-27.5 -34h-12q-1 8 -1 15q0 38 24 77.5t74 39.5q27 0 75.5 -25t86.5 -25q13 0 33 12t27 28zM971 -122.5q21 -8.5 40.5 -12t43 -3.5t48.5 6l4 -10q-56 -27 -113 -27
q-131 0 -267 145l-474 503v-409q0 -25 18 -42.5t43 -17.5h19v-10h-303v10h18q26 0 44 17.5t18 43.5v561q-59 68 -87 90.5t-50 38.5q-37 26 -72 35.5t-59 9.5t-52 -10l-4 10q55 32 113 32q126 0 267 -150l447 -475v416q-1 26 -19 43.5t-43 17.5h-18v10h303v-10h-19
q-25 0 -43 -17.5t-19 -42.5v-569l16 -16q6 -6 18.5 -20.5t22.5 -25t25.5 -26.5t29 -28t32 -26t35 -23.5t37.5 -18z" />
    <glyph glyph-name="Ograve" unicode="&#xd2;" horiz-adv-x="930" 
d="M486 779l-7 -7q-100 24 -205 90q20 57 68 82q101 -91 144 -165zM332 447q-18 38 -18 72.5t9 64t30 58t59 47.5q52 27 125 27q96 0 182 -49q113 -64 157 -177q25 -62 25 -133q0 -167 -120.5 -269t-314 -102t-315 102t-121.5 268q0 124 70.5 215.5t190.5 124.5l6 -9
q-51 -43 -77 -126t-26 -179q0 -162 75 -258t196.5 -96t196 90.5t74.5 239.5q0 90 -27.5 162.5t-79.5 112t-116 39.5q-71 0 -115 -37q-62 -53 -62 -135q0 -26 7 -53h-11z" />
    <glyph glyph-name="Oacute" unicode="&#xd3;" horiz-adv-x="930" 
d="M456 771l-7 7q44 74 144 164q49 -25 68 -81q-103 -66 -205 -90zM332 447q-18 38 -18 72.5t9 64t30 58t59 47.5q52 27 125 27q96 0 182 -49q113 -64 157 -177q25 -61 25 -133q0 -167 -120.5 -269t-314 -102t-315 102t-121.5 268q0 124 70.5 215.5t190.5 124.5l6 -9
q-51 -43 -77 -126t-26 -185t34.5 -182.5t96 -123t141.5 -42.5q121 0 195.5 90.5t74.5 239.5q0 90 -27.5 162.5t-79.5 112t-116 39.5q-71 0 -115 -37q-62 -53 -62 -135q0 -26 7 -53h-11z" />
    <glyph glyph-name="Ocircumflex" unicode="&#xd4;" horiz-adv-x="930" 
d="M460 924h12l153 -154l-7 -8l-153 66l-142 -65l-7 8zM332 447q-18 38 -18 72.5t9 64t30 58t59 47.5q52 27 125 27q96 0 182 -49q113 -64 157 -177q25 -62 25 -133q0 -167 -120.5 -269t-314 -102t-315 102t-121.5 268q0 124 71 215.5t190 124.5l6 -9q-51 -43 -77 -126
t-26 -179q0 -162 75 -258t196.5 -96t196 90.5t74.5 239.5q0 90 -27 162.5t-79.5 112t-116.5 39.5q-71 0 -115 -37q-62 -53 -62 -135q0 -26 7 -53h-11z" />
    <glyph glyph-name="Otilde" unicode="&#xd5;" horiz-adv-x="930" 
d="M635 898h11q2 -11 2 -22q0 -30 -19 -62q-27 -41 -79 -41q-30 0 -76 23.5t-60 25t-26.5 1.5t-32.5 -13.5t-28 -33.5h-11q-1 7 -1 15q0 38 23.5 77t73.5 39q28 0 76.5 -24.5t86.5 -24.5q13 0 33 11.5t27 28.5zM332 447q-18 38 -18 72.5t9 64t30 58t59 47.5q52 27 125 27
q96 0 182 -49q113 -64 157 -177q25 -62 25 -133q0 -167 -120.5 -269t-314 -102t-315 102t-121.5 268q0 124 71 215.5t190 124.5l6 -9q-51 -43 -77 -126t-26 -185t34.5 -182.5t96 -123t141.5 -42.5q121 0 195.5 90.5t74.5 239.5q0 90 -27 162.5t-79.5 112t-116.5 39.5
q-71 0 -115 -37q-62 -53 -62 -135q0 -26 7 -53h-11z" />
    <glyph glyph-name="Odieresis" unicode="&#xd6;" horiz-adv-x="930" 
d="M348 767q-25 0 -42.5 18t-17.5 42.5t17.5 42.5t42.5 18t42.5 -18t17.5 -42.5t-17.5 -42.5t-42.5 -18zM581.5 767q-24.5 0 -42.5 18t-18 42.5t18 42.5t42.5 18t42 -18t17.5 -42.5t-17.5 -42.5t-42 -18zM332 447q-18 38 -18 72.5t9 64t30 58t59 47.5q52 27 125 27
q96 0 182 -49q113 -64 157 -177q25 -62 25 -133q0 -167 -120.5 -269t-314 -102t-315 102t-121.5 268q0 124 70.5 215.5t190.5 124.5l6 -9q-51 -43 -77 -126t-26 -179q0 -162 75 -258t196.5 -96t196 90.5t74.5 239.5q0 90 -27.5 162.5t-79.5 112t-116 39.5q-71 0 -115 -37
q-62 -53 -62 -135q0 -26 7 -53h-11z" />
    <glyph glyph-name="multiply" unicode="&#xd7;" horiz-adv-x="411" 
d="M368 432l-121 -122l121 -122l-40 -40l-122 121l-122 -121l-40 40l122 122l-122 122l40 40l122 -122l122 122z" />
    <glyph glyph-name="Oslash" unicode="&#xd8;" horiz-adv-x="914" 
d="M322 447q-17 38 -17 72.5t9 64t30 58t59 47.5q52 27 131.5 27t160.5 -41l42 50l36 -30l-37 -44q71 -47 113 -122t42 -172q0 -167 -121 -269t-314 -102q-136 0 -239 52l-52 -61l-37 30l47 56q-74 49 -114 124.5t-40 168.5q0 124 70.5 215.5t190.5 124.5l6 -9
q-51 -43 -77 -126t-26 -179q0 -144 60 -237l397 468q-57 59 -138 59q-71 0 -115 -37q-62 -53 -62 -135q0 -26 7 -53h-12zM274 106q72 -78 187 -78t190.5 90.5t75.5 230t-55 226.5z" />
    <glyph glyph-name="Ugrave" unicode="&#xd9;" horiz-adv-x="824" 
d="M488 771l-7 -7q-100 24 -204 90q19 57 67 81q102 -91 144 -164zM910 903q13 0 27 -1v-10q-98 -8 -151 -81t-53 -201v-357q-2 -171 -140 -235q-68 -32 -163 -32q-150 0 -237 72.5t-86 193.5v389q0 21 -15.5 35t-37.5 14h-16v10h288v-10h-16q-22 0 -37 -14t-16 -34v-382
q0 -106 55 -168t145 -62h1h1q89 0 146 58t57 159v363q0 135 71.5 214t176.5 79z" />
    <glyph glyph-name="Uacute" unicode="&#xda;" horiz-adv-x="824" 
d="M459 762l-7 7q43 74 144 164q48 -25 67 -81q-102 -65 -204 -90zM910 903q13 0 27 -1v-10q-98 -7 -151 -80.5t-53 -201.5v-357q-2 -171 -140 -235q-68 -32 -163 -32q-150 0 -237 72.5t-86 193.5v389q0 21 -15.5 35t-37.5 14h-16v10h288v-10h-16q-31 0 -46 -24
q-7 -11 -7 -24v-382q0 -106 55 -168t145 -62h1v0q90 0 146 57q58 58 58 160v363q0 135 71.5 214t176.5 79z" />
    <glyph glyph-name="Ucircumflex" unicode="&#xdb;" horiz-adv-x="824" 
d="M463 915h11l153 -153l-7 -8l-152 65l-143 -65l-6 8zM910 903q13 0 27 -1v-10q-98 -8 -151 -81t-53 -201v-357q-2 -126 -81 -196.5t-225.5 -70.5t-233.5 72.5t-86 193.5v389q0 21 -15.5 35t-37.5 14h-16v10h288v-10h-16q-22 0 -37 -14t-16 -34v-382q0 -106 55 -168
t145 -62h1h1q89 0 146 58t57 159v363q0 135 71.5 214t176.5 79z" />
    <glyph glyph-name="Udieresis" unicode="&#xdc;" horiz-adv-x="824" 
d="M910 903q13 0 27 -1v-10q-118 -9 -170 -112q-34 -67 -34 -170v-357q-2 -126 -81 -196.5t-225.5 -70.5t-233.5 72.5t-86 193.5v389q0 21 -15.5 35t-37.5 14h-16v10h288v-10h-16q-31 0 -46 -24q-7 -11 -7 -24v-382q0 -106 55 -168t145 -62h1h1q89 0 146 58t57 159v363
q0 135 71.5 214t176.5 79zM350 759q-25 0 -42.5 17.5t-17.5 42.5t17.5 42.5t42.5 17.5t42.5 -17.5t17.5 -42.5t-17.5 -42.5t-42.5 -17.5zM584 759q-25 0 -42.5 17.5t-17.5 42.5t17.5 42.5t42.5 17.5t42.5 -17.5t17.5 -42.5t-17.5 -42.5t-42.5 -17.5z" />
    <glyph glyph-name="Yacute" unicode="&#xdd;" horiz-adv-x="667" 
d="M341 762l-7 7q43 74 144 164q49 -25 68 -81q-103 -65 -205 -90zM-67 758q16 1 50.5 1t91 -14.5t104.5 -45.5t88 -75q74 -82 116 -197q60 171 156 262q73 69 161 69h8v-10q-50 -1 -103.5 -52.5t-93.5 -124.5t-67.5 -152t-32.5 -137v-209q0 -25 18.5 -44t45.5 -19h13v-10
h-304v10h13q26 0 44.5 18.5t19.5 44.5v210q-12 108 -72 229q-69 140 -155 199q-50 35 -101 37v10z" />
    <glyph glyph-name="Thorn" unicode="&#xde;" horiz-adv-x="646" 
d="M619 354q0 -46 -18 -87q-34 -78 -126 -108q-26 -9 -49 -9q-70 0 -127 37v10q75 -2 122 49q40 44 40 115q0 109 -76 141q-24 10 -53 10h-62v-439q0 -26 18.5 -44.5t45.5 -18.5h12v-10h-303v10h12q27 0 45.5 18.5t19.5 44.5v555q-1 26 -19.5 44t-44.5 18h-13v10h303v-10
h-12q-26 0 -45 -18t-19 -44v-74h102q123 0 183 -52q64 -55 64 -148z" />
    <glyph glyph-name="germandbls" unicode="&#xdf;" horiz-adv-x="1156" 
d="M628 93q0 72 31 123h9q-1 -8 -1 -16q0 -69 50 -120.5t135 -51.5q67 0 104.5 32t37.5 81q0 59 -80 103l-174 115q-52 30 -74.5 72.5t-22.5 86.5q0 94 59.5 145t152.5 51q55 0 136 -10h63l-13 -147h-10q0 52 -38.5 83.5t-102.5 31.5q-88 0 -120 -59q-11 -19 -11 -41
q0 -48 70 -89l191 -124q90 -52 90 -153q0 -107 -72.5 -163.5t-192.5 -56.5q-68 0 -125.5 16.5t-84.5 44.5q-7 19 -7 46zM50 93q0 72 31 123h9q-1 -8 -1 -16q0 -69 49.5 -120.5t135.5 -51.5q67 0 104.5 32t37.5 81q0 59 -80 103l-174 115q-52 30 -74.5 72.5t-22.5 86.5
q0 94 59.5 145t152.5 51q55 0 136 -10h63l-13 -147h-10q0 52 -38.5 83.5t-102.5 31.5q-78 0 -113 -48q-18 -23 -18 -52q0 -48 70 -89l191 -124q90 -52 90 -153q0 -107 -72.5 -163.5t-192.5 -56.5q-68 0 -125.5 16.5t-84.5 44.5q-7 19 -7 46z" />
    <glyph glyph-name="agrave" unicode="&#xe0;" horiz-adv-x="716" 
d="M372 771l-7 -7q-101 24 -205 90q19 57 68 81q101 -91 144 -164zM737 10h9v-10h-319v10h9q22 0 32.5 13.5t10.5 25.5t-5 24l-49 123h-234l-52 -123q-5 -13 -5 -21t3.5 -17.5t15 -17t25.5 -7.5h8v-10h-214v10h9q23 0 46 14t38 42l231 523q47 99 50 131h9l297 -652
q15 -29 38 -43.5t47 -14.5zM208 238h200l-97 246z" />
    <glyph glyph-name="aacute" unicode="&#xe1;" horiz-adv-x="716" 
d="M342 762l-7 7q43 74 144 164q48 -25 68 -81q-103 -65 -205 -90zM737 10h9v-10h-319v10h9q22 0 32.5 13.5t10.5 25.5t-5 24l-49 123h-234l-52 -123q-5 -13 -5 -24.5t10.5 -25t33.5 -13.5h8v-10h-214v10h9q23 0 46 14t38 42l231 523q47 99 50 131h9l297 -652
q15 -29 38 -43.5t47 -14.5zM208 238h200l-97 246z" />
    <glyph glyph-name="acircumflex" unicode="&#xe2;" horiz-adv-x="716" 
d="M346 915h11l153 -153l-6 -8l-153 65l-142 -65l-7 8zM737 10h9v-10h-319v10h9q22 0 32.5 13.5t10.5 25.5t-5 24l-49 123h-234l-52 -123q-5 -13 -5 -21t3.5 -17.5t15 -17t25.5 -7.5h8v-10h-214v10h9q23 0 46 14t38 42l231 523q47 99 50 131h9l297 -652q15 -29 38 -43.5
t47 -14.5zM208 238h200l-97 246z" />
    <glyph glyph-name="atilde" unicode="&#xe3;" horiz-adv-x="716" 
d="M520 889h12q2 -11 2 -21q0 -31 -20 -62q-27 -42 -78 -42q-30 0 -76 23.5t-60 25.5t-27 2t-32.5 -14t-27.5 -34h-12q-1 8 -1 15q0 38 24 77.5t74 39.5q27 0 75.5 -25t87.5 -25q13 0 33 12t26 28zM737 10h9v-10h-319v10h9q22 0 32.5 13.5t10.5 25.5t-5 24l-49 123h-234
l-52 -123q-5 -13 -5 -24.5t10.5 -25t33.5 -13.5h8v-10h-214v10h9q23 0 46 14t38 42l231 523q47 99 50 131h9l297 -652q15 -29 38 -43.5t47 -14.5zM208 238h200l-97 246z" />
    <glyph glyph-name="adieresis" unicode="&#xe4;" horiz-adv-x="716" 
d="M234 759q-25 0 -42.5 17.5t-17.5 42.5t17.5 42.5t42.5 17.5t42.5 -17.5t17.5 -42.5t-17.5 -42.5t-42.5 -17.5zM467 759q-25 0 -42.5 17.5t-17.5 42.5t17.5 42.5t42.5 17.5t42.5 -17.5t17.5 -42.5t-17.5 -42.5t-42.5 -17.5zM737 10h9v-10h-319v10h9q22 0 32.5 13.5
t10.5 25.5t-5 24l-49 123h-234l-52 -123q-5 -13 -5 -24.5t10.5 -25t33.5 -13.5h8v-10h-214v10h9q23 0 46 14t38 42l231 523q47 99 50 131h9l297 -652q15 -29 38 -43.5t47 -14.5zM208 238h200l-97 246z" />
    <glyph glyph-name="aring" unicode="&#xe5;" horiz-adv-x="716" 
d="M274.5 907q31.5 24 78 24t77 -23t30.5 -59.5t-31 -60.5t-77.5 -24t-77.5 23.5t-31 59.5t31.5 60zM388.5 889.5q-14.5 16.5 -36.5 16.5t-36 -16.5t-14 -38t6 -34.5q14 -28 40 -28t40.5 16t14.5 42t-14.5 42.5zM737 10h9v-10h-319v10h9q22 0 32.5 13.5t10.5 25.5t-5 24
l-49 123h-234l-52 -123q-5 -13 -5 -24.5t10.5 -25t33.5 -13.5h8v-10h-214v10h9q23 0 46 14t38 42l231 523q47 99 50 131h9l297 -652q15 -29 38 -43.5t47 -14.5zM208 238h200l-97 246z" />
    <glyph glyph-name="ae" unicode="&#xe6;" horiz-adv-x="969" 
d="M416 10q20 0 34.5 14t15.5 34v260h-160l-150 -247q-8 -15 -8 -25.5t6 -18.5q12 -17 34 -17h1h10v-10h-223v10h8q47 0 88 61l385 576q6 10 6 17.5t-3 12.5q-7 13 -25 13h-4v10h335q44 0 77 7t42 11v-169h-10v10q1 60 -44 85q-22 12 -51 13h-164v-296h128q36 1 59.5 25
t23.5 60v9h10v-231h-10v9q0 49 -40 73q-18 11 -41 12h-130v-275h133q67 0 115.5 40.5t70.5 111.5h10l-45 -195h-494l1 10h9zM466 361v220l-134 -220h134z" />
    <glyph glyph-name="ccedilla" unicode="&#xe7;" horiz-adv-x="780" 
d="M411 -59q15 5 34 5q48 0 69 -26q11 -14 11 -36q0 -53 -57 -79q-31 -14 -59 -14t-54 9l1 10q51 0 80 30q18 18 18 40t-15 33t-36 11t-41 -7l-5 10l47 61q-166 13 -262.5 108.5t-96.5 259t109 261t299 97.5q145 0 249 -54l2 -172h-8q-51 184 -233 184q-118 0 -186.5 -85.5
t-68.5 -233.5t65.5 -235t177.5 -90q116 0 177 58q62 60 86 206h8l10 -172q-81 -134 -282 -134z" />
    <glyph glyph-name="egrave" unicode="&#xe8;" horiz-adv-x="631" 
d="M342 771l-7 -7q-101 24 -205 90q19 57 68 81q101 -91 144 -164zM55 10q26 0 44.5 18.5t19.5 44.5v557q-3 35 -33 52q-15 8 -31 8h-13v10h383q44 0 77 7t43 11v-175h-10v12q0 45 -26.5 72.5t-71.5 29.5h-168v-291h132q37 1 61 25t24 61v9h10v-231h-10v8q0 37 -23.5 61
t-60.5 25h-133v-281h131q73 0 122.5 42t73.5 119h10l-46 -204h-518v10h13z" />
    <glyph glyph-name="eacute" unicode="&#xe9;" horiz-adv-x="631" 
d="M312 762l-7 7q43 74 144 164q48 -25 68 -81q-103 -65 -205 -90zM55 10q26 0 44.5 18.5t19.5 44.5v557q-3 35 -33 52q-15 8 -31 8h-13v10h383q31 0 68 6t52 12v-175l-10 1v11q0 61 -46 88q-22 13 -52 14h-168v-291h132q37 1 61 25.5t24 60.5v9h10v-231h-10v8q0 50 -40 74
q-20 11 -44 12h-133v-281h131q73 0 122.5 42t73.5 119h10l-46 -204h-518v10h13z" />
    <glyph glyph-name="ecircumflex" unicode="&#xea;" horiz-adv-x="631" 
d="M316 915h11l153 -153l-6 -8l-153 65l-142 -65l-7 8zM55 10q26 0 44.5 18.5t19.5 44.5v557q-3 35 -33 52q-15 8 -31 8h-13v10h383q31 0 68 6t52 12v-175h-10v12q0 45 -26.5 72.5t-71.5 29.5h-168v-291h132q37 1 61 25t24 61v9h10v-231h-10v8q0 37 -23.5 61t-59.5 25h-134
v-281h131q73 0 122.5 42t73.5 119h10l-46 -204h-518v10h13z" />
    <glyph glyph-name="edieresis" unicode="&#xeb;" horiz-adv-x="631" 
d="M204 759q-25 0 -42.5 17.5t-17.5 42.5t17.5 42.5t42.5 17.5t42.5 -17.5t17.5 -42.5t-17.5 -42.5t-42.5 -17.5zM437 759q-25 0 -42.5 17.5t-17.5 42.5t17.5 42.5t42.5 17.5t42.5 -17.5t17.5 -42.5t-17.5 -42.5t-42.5 -17.5zM55 10q26 0 44.5 18.5t19.5 44.5v557
q-3 35 -33 52q-15 8 -31 8h-13v10h383q31 0 68 6t52 12v-175h-10v12q0 45 -26.5 72.5t-71.5 29.5h-168v-291h132q37 1 61 25.5t24 60.5v9h10v-231h-10v8q0 50 -40 74q-20 11 -44 12h-133v-281h131q73 0 122.5 42t73.5 119h10l-46 -204h-518v10h13z" />
    <glyph glyph-name="igrave" unicode="&#xec;" horiz-adv-x="386" 
d="M212 771l-7 -7q-100 24 -204 90q19 57 67 81q102 -91 144 -164zM55 10q26 0 44.5 18.5t19.5 44.5v555q-1 26 -19.5 44t-44.5 18h-13v10h304l-1 -10h-12q-26 0 -45 -18t-19 -44v-555q0 -26 19 -44.5t45 -18.5h12l1 -10h-304v10h13z" />
    <glyph glyph-name="iacute" unicode="&#xed;" horiz-adv-x="386" 
d="M183 762l-7 7q43 74 144 164q48 -25 67 -81q-102 -65 -204 -90zM55 10q26 0 44.5 18.5t19.5 44.5v555q-1 26 -19.5 44t-44.5 18h-13v10h304l-1 -10h-12q-26 0 -45 -18t-19 -44v-555q0 -26 19 -44.5t45 -18.5h12l1 -10h-304v10h13z" />
    <glyph glyph-name="icircumflex" unicode="&#xee;" horiz-adv-x="386" 
d="M187 915h11l153 -153l-7 -8l-152 65l-143 -65l-7 8zM55 10q26 0 44.5 18.5t19.5 44.5v555q-1 26 -19.5 44t-44.5 18h-13v10h304l-1 -10h-12q-26 0 -45 -18t-19 -44v-555q0 -26 19 -44.5t45 -18.5h12l1 -10h-304v10h13z" />
    <glyph glyph-name="idieresis" unicode="&#xef;" horiz-adv-x="386" 
d="M74 759q-25 0 -42.5 17.5t-17.5 42.5t17.5 42.5t42.5 17.5t42.5 -17.5t17.5 -42.5t-17.5 -42.5t-42.5 -17.5zM308 759q-25 0 -42.5 17.5t-17.5 42.5t17.5 42.5t42.5 17.5t42.5 -17.5t17.5 -42.5t-17.5 -42.5t-42.5 -17.5zM55 10q26 0 44.5 18.5t19.5 44.5v555
q-1 26 -19.5 44t-44.5 18h-13v10h304l-1 -10h-12q-26 0 -45 -18t-19 -44v-555q0 -26 19 -44.5t45 -18.5h12l1 -10h-304v10h13z" />
    <glyph glyph-name="eth" unicode="&#xf0;" horiz-adv-x="832" 
d="M686 606q102 -94 102 -256t-102 -256t-279 -94h-363v10h13q26 0 44.5 18.5t19.5 44.5v256h-79v42h79v262q-4 33 -34 50q-14 7 -30 7h-13v10h363q177 0 279 -94zM271 329v-287h123q108 0 172 83t64 225t-64 225t-172 83h-123v-287h129v-42h-129z" />
    <glyph glyph-name="ntilde" unicode="&#xf1;" horiz-adv-x="865" 
d="M585 889h12q2 -11 2 -21q0 -31 -20 -62q-27 -42 -79 -42q-23 0 -48 11t-50.5 24t-38.5 14.5t-25.5 1.5t-32 -14t-27.5 -34h-12q-1 8 -1 15q0 38 24 77.5t74 39.5q27 0 75.5 -25t87.5 -25q12 0 32.5 12t26.5 28zM817 690q-35 0 -53 -30q-8 -13 -9 -30v-516q0 -67 9 -113
l3 -15h-9l-505 481v-397q0 -35 31 -52q14 -8 30 -8h19v-10h-303v10h18q26 0 44 17.5t18 43.5v519q0 66 -9 110l-2 15h9l505 -481v395q-1 26 -19 43.5t-43 17.5h-18v10h303v-10h-19z" />
    <glyph glyph-name="ograve" unicode="&#xf2;" horiz-adv-x="879" 
d="M460 779l-7 -7q-101 24 -205 90q19 57 68 82q101 -91 144 -165zM440 714q185 0 294 -98t109 -266t-109 -266t-294 -98t-294 98t-109 266q0 111 49.5 193.5t140.5 126.5t213 44zM440 28q110 0 174.5 86.5t64.5 235.5q0 98 -29 171t-83 112t-127 39q-110 0 -174.5 -86.5
t-64.5 -235.5t64.5 -235.5t174.5 -86.5z" />
    <glyph glyph-name="oacute" unicode="&#xf3;" horiz-adv-x="879" 
d="M430 771l-7 7q43 74 144 164q49 -25 68 -81q-103 -66 -205 -90zM440 714q185 0 294 -98t109 -266t-109 -266t-294 -98t-294 98t-109 266t109 266t294 98zM440 28q110 0 174.5 86.5t64.5 235.5q0 98 -29 171t-83 112t-127 39q-110 0 -174.5 -86.5t-64.5 -235.5
t64.5 -235.5t174.5 -86.5z" />
    <glyph glyph-name="ocircumflex" unicode="&#xf4;" horiz-adv-x="879" 
d="M434 924h11l154 -154l-7 -8l-153 66l-142 -65l-7 8zM227 670q91 44 198 44t182 -25.5t127 -72t80.5 -115t28.5 -151.5q0 -168 -109 -266t-294 -98t-294 98t-109 266q0 111 49.5 193.5t140.5 126.5zM440 28q110 0 174.5 86.5t64.5 235.5q0 98 -29 171t-83 112t-127 39
q-110 0 -174.5 -86.5t-64.5 -235.5t64.5 -235.5t174.5 -86.5z" />
    <glyph glyph-name="otilde" unicode="&#xf5;" horiz-adv-x="879" 
d="M608 898h12q2 -11 2 -22q0 -30 -20 -62q-27 -41 -78 -41q-30 0 -76 23.5t-60 25t-26.5 1.5t-32.5 -13.5t-28 -33.5h-12v15q0 38 23.5 77t73.5 39q27 0 75.5 -24.5t87.5 -24.5q13 0 33 11.5t26 28.5zM440 714q185 0 294 -98t109 -266t-109 -266t-294 -98t-294 98t-109 266
q0 111 49.5 193.5t140.5 126.5t213 44zM440 28q110 0 174.5 86.5t64.5 235.5q0 98 -29 171t-83 112t-127 39q-110 0 -174.5 -86.5t-64.5 -235.5t64.5 -235.5t174.5 -86.5z" />
    <glyph glyph-name="odieresis" unicode="&#xf6;" horiz-adv-x="879" 
d="M322 767q-25 0 -42.5 18t-17.5 42.5t17.5 42.5t42.5 18t42.5 -18t17.5 -42.5t-17.5 -42.5t-42.5 -18zM555 767q-25 0 -42.5 18t-17.5 42.5t17.5 42.5t42.5 18t42.5 -18t17.5 -42.5t-17.5 -42.5t-42.5 -18zM440 714q185 0 294 -98t109 -266t-109 -266t-294 -98t-294 98
t-109 266q0 111 49.5 193.5t140.5 126.5t213 44zM440 28q110 0 174.5 86.5t64.5 235.5q0 98 -29 171t-83 112t-127 39q-110 0 -174.5 -86.5t-64.5 -235.5t64.5 -235.5t174.5 -86.5z" />
    <glyph glyph-name="divide" unicode="&#xf7;" horiz-adv-x="481" 
d="M240.5 423q-18.5 0 -32 13t-13.5 32t13.5 32.5t32 13.5t32 -13.5t13.5 -32.5t-13.5 -32t-32 -13zM40 281v57h402v-57h-402zM240.5 107q-18.5 0 -32 13t-13.5 32t13.5 32.5t32 13.5t32 -13.5t13.5 -32.5t-13.5 -32t-32 -13z" />
    <glyph glyph-name="oslash" unicode="&#xf8;" horiz-adv-x="879" 
d="M843 350q0 -168 -109 -266t-294 -98q-142 0 -241 59l-58 -68l-36 31l55 64q-123 99 -123 278q0 111 49.5 193.5t140.5 126.5t216 44t220 -49l50 60l37 -30l-46 -55q67 -47 103 -121t36 -169zM605 597q-63 75 -169 75t-170.5 -86.5t-64.5 -235.5q0 -109 36 -186zM262 120
q65 -92 176.5 -92t176 86.5t64.5 223.5t-46 219z" />
    <glyph glyph-name="ugrave" unicode="&#xf9;" horiz-adv-x="821" 
d="M470 771l-7 -7q-100 24 -204 90q19 57 67 81q102 -91 144 -164zM790 690h-17q-21 0 -36.5 -13.5t-15.5 -33.5v-390q0 -123 -77 -195t-211 -72q-158 0 -242 70.5t-84 195.5v388q-1 30 -27 44q-12 6 -26 6h-16v10h288v-10h-16q-22 0 -37 -13.5t-16 -34.5v-382
q0 -106 52 -168t143 -62t144 58.5t54 158.5v395q0 21 -15.5 34.5t-37.5 13.5h-16v10h209v-10z" />
    <glyph glyph-name="uacute" unicode="&#xfa;" horiz-adv-x="821" 
d="M441 762l-7 7q43 74 144 164q48 -25 67 -81q-102 -65 -204 -90zM790 690h-17q-21 0 -36.5 -13.5t-15.5 -33.5v-390q0 -123 -77 -195t-211 -72q-158 0 -242 70.5t-84 195.5v389q-1 29 -27 43q-12 6 -26 6h-16v10h288v-10h-16q-22 0 -37 -13.5t-16 -34.5v-382
q0 -106 52 -168t142 -62q92 0 145 58.5t54 158.5v395q0 21 -15.5 34.5t-37.5 13.5h-16v10h209v-10z" />
    <glyph glyph-name="ucircumflex" unicode="&#xfb;" horiz-adv-x="821" 
d="M445 915h11l153 -153l-7 -8l-152 65l-143 -65l-7 8zM790 690h-16q-31 0 -46 -23q-7 -11 -7 -24v-390q0 -123 -77 -195t-211 -72q-158 0 -242 70.5t-84 195.5v388q-1 30 -27 44q-12 6 -26 6h-16v10h288v-10h-16q-22 0 -37 -13.5t-16 -34.5v-382q0 -106 52 -168t143 -62
t144 58.5t54 158.5v395q0 21 -15.5 34.5t-37.5 13.5h-16v10h209v-10z" />
    <glyph glyph-name="udieresis" unicode="&#xfc;" horiz-adv-x="821" 
d="M332 759q-25 0 -42.5 17.5t-17.5 42.5t17.5 42.5t42.5 17.5t42.5 -17.5t17.5 -42.5t-17.5 -42.5t-42.5 -17.5zM565.5 759q-24.5 0 -42 17.5t-17.5 42.5t17.5 42.5t42 17.5t42.5 -17.5t18 -42.5t-18 -42.5t-42.5 -17.5zM790 690h-17q-30 0 -45 -23q-7 -11 -7 -24v-390
q0 -123 -77 -195t-211 -72q-158 0 -242 70.5t-84 195.5v388q0 22 -15.5 36t-37.5 14h-16v10h288v-10h-16q-22 0 -37 -13.5t-16 -34.5v-382q0 -106 52 -168t143 -62t144 58.5t54 158.5v395q0 21 -15.5 34.5t-37.5 13.5h-16v10h209v-10z" />
    <glyph glyph-name="yacute" unicode="&#xfd;" horiz-adv-x="702" 
d="M389 762l-7 7q43 74 144 164q48 -25 67 -81q-102 -65 -204 -90zM496 700h238v-10h-14q-30 0 -57 -17t-43 -41l-197 -314v-245q0 -37 32 -55q15 -8 32 -8h12l1 -10h-304v10h13q26 0 44.5 18t19.5 44v247l-191 314q-21 33 -60 49q-19 8 -39 8h-14v10h331v-10h-13
q-22 0 -34 -20q-6 -11 -6 -21.5t5 -20.5l143 -260l148 260q6 10 6 20.5t-7 20.5q-12 21 -34 21h-12v10z" />
    <glyph glyph-name="thorn" unicode="&#xfe;" horiz-adv-x="646" 
d="M619 354q0 -46 -18 -87q-34 -78 -126 -108q-26 -9 -49 -9q-70 0 -127 37v10q75 -2 122 49q40 44 40 115q0 109 -76 141q-24 10 -53 10h-62v-439q0 -26 18.5 -44.5t45.5 -18.5h12v-10h-303v10h12q27 0 45.5 18.5t19.5 44.5v555q-1 26 -19.5 44t-44.5 18h-13v10h303v-10
h-12q-26 0 -45 -18t-19 -44v-74h102q123 0 183 -52q64 -55 64 -148z" />
    <glyph glyph-name="ydieresis" unicode="&#xff;" horiz-adv-x="702" 
d="M280 759q-25 0 -42.5 17.5t-17.5 42.5t17.5 42.5t42.5 17.5t42.5 -17.5t17.5 -42.5t-17.5 -42.5t-42.5 -17.5zM514 759q-25 0 -42.5 17.5t-17.5 42.5t17.5 42.5t42.5 17.5t42.5 -17.5t17.5 -42.5t-17.5 -42.5t-42.5 -17.5zM496 700h238v-10h-14q-30 0 -57 -17t-43 -41
l-197 -314v-245q0 -26 19 -44.5t45 -18.5h12l1 -10h-304v10h13q26 0 44.5 18t19.5 44v247l-191 314q-15 24 -42.5 40.5t-56.5 16.5h-14v10h331v-10h-13q-22 0 -34 -20q-6 -11 -6 -21.5t5 -20.5l143 -260l148 260q6 10 6 20.5t-7 20.5q-12 21 -34 21h-12v10z" />
    <glyph glyph-name="Amacron" unicode="&#x100;" horiz-adv-x="705" 
d="M209 811v66h275v-66h-275zM965 -183q-65 -33 -121 -33t-106 16.5t-101 55.5q-110 84 -177 258l-32 85h-236l-53 -126q-5 -13 -5 -21t3.5 -17.5t15 -17t25.5 -7.5h8v-10h-214v10h9q23 0 45.5 13.5t37.5 40.5l223 509q-39 88 -83 121q-37 28 -70.5 28t-62.5 -10l-2 10
q72 37 138 37q82 0 147 -64q64 -63 113 -182l145 -358q82 -203 168 -279q35 -31 72 -43t62.5 -12t49.5 6zM209 242h204l-70 185q-5 13 -14.5 39t-11.5 34z" />
    <glyph glyph-name="amacron" unicode="&#x101;" horiz-adv-x="716" 
d="M218 795v66h274v-66h-274zM737 10h9v-10h-319v10h9q22 0 32.5 13.5t10.5 25.5t-5 24l-49 123h-234l-52 -123q-5 -13 -5 -24.5t10.5 -25t33.5 -13.5h8v-10h-214v10h9q23 0 46 14t38 42l231 523q47 99 50 131h9l297 -652q15 -29 38 -43.5t47 -14.5zM208 238h200l-97 246z
" />
    <glyph glyph-name="Abreve" unicode="&#x102;" horiz-adv-x="705" 
d="M471 900q0 -43 -35 -81.5t-92.5 -38.5t-92 38.5t-34.5 81.5q0 10 2 20h11q11 -25 42.5 -42.5t71 -17.5t71.5 17.5t42 42.5h12q2 -10 2 -20zM965 -183q-65 -33 -121 -33t-106 16.5t-101 55.5q-110 84 -177 258l-32 85h-236l-53 -126q-5 -13 -5 -24.5t11 -25t33 -13.5h8
v-10h-214v10h9q23 0 45.5 13.5t37.5 40.5l223 509q-39 88 -83 121q-37 28 -70.5 28t-62.5 -10l-2 10q72 37 138 37q82 0 147 -64q64 -63 113 -182l145 -358q50 -124 92 -186q50 -75 86 -100q66 -47 106 -47q25 0 68 5zM209 242h204l-70 185q-5 13 -14.5 39t-11.5 34z" />
    <glyph glyph-name="abreve" unicode="&#x103;" horiz-adv-x="716" 
d="M479 884q0 -43 -34.5 -81.5t-92 -38.5t-92 38.5t-34.5 81.5q0 10 1 20h12q10 -25 42 -42.5t71.5 -17.5t71.5 17.5t42 42.5h12q1 -10 1 -20zM737 10h9v-10h-319v10h9q22 0 32.5 13.5t10.5 25.5t-5 24l-49 123h-234l-52 -123q-5 -13 -5 -21t3.5 -17.5t15 -17t25.5 -7.5h8
v-10h-214v10h9q23 0 46 14t38 42l231 523q47 99 50 131h9l297 -652q15 -29 38 -43.5t47 -14.5zM208 238h200l-97 246z" />
    <glyph glyph-name="Aogonek" unicode="&#x104;" horiz-adv-x="699" 
d="M959 -166q-67 -29 -135 -29q-183 0 -302 190q-56 -13 -56 -69q0 -40 32 -58q15 -8 33.5 -8t42.5 15l5 -7q-16 -64 -85 -64q-39 0 -70 28t-31 69q0 62 46 88q29 17 65 17h11q-29 49 -53 108l-33 85h-237l-53 -126q-5 -13 -5 -24.5t11 -25t33 -13.5h8v-10h-214v10h9
q23 0 45.5 13.5t37.5 40.5l217 495q-76 142 -180 142q-24 0 -48 -7l-3 10q81 37 143.5 37t111.5 -29q94 -56 161 -211l148 -345q71 -166 130 -228q66 -70 130 -83q21 -5 42 -5t42 4zM209 242h203l-72 183q-20 50 -27 67z" />
    <glyph glyph-name="aogonek" unicode="&#x105;" horiz-adv-x="726" 
d="M755 0l-132 6q-50 0 -81.5 -6.5t-46 -25.5t-14.5 -46t19.5 -45.5t46.5 -18.5t51 22l6 -6q-5 -33 -27 -53q-42 -36 -109 -12q-27 10 -42.5 35t-15.5 53q0 37 17 56.5t40 33.5q27 17 27 35t-9 41l-52 127h-240l-54 -123q-5 -13 -5 -24.5t10.5 -25t33.5 -13.5h8v-10h-214v10
h9q25 0 49 16t38 47l234 510q46 99 49 131h9l301 -643q25 -53 86 -60l8 -1v-10zM211 238h204l-100 243z" />
    <glyph glyph-name="Cacute" unicode="&#x106;" horiz-adv-x="826" 
d="M438 762l-7 7q43 74 144 164q48 -25 67 -81q-102 -65 -204 -90zM808 391q3 -30 3 -75.5t-18 -111t-65 -115.5q-96 -103 -264 -103q-204 0 -322 100.5t-118 263t119.5 263.5t315.5 101q153 0 256 -54l2 -172h-8q-37 138 -169 174q-37 10 -78 10q-126 0 -200.5 -87
t-74.5 -229q0 -95 34 -168t100.5 -115.5t156.5 -44.5q147 0 234 94t87 255v14h9z" />
    <glyph glyph-name="cacute" unicode="&#x107;" horiz-adv-x="780" 
d="M421 762l-7 7q43 74 144 164q48 -25 68 -81q-103 -65 -205 -90zM155 84q-110 97 -110 266t109 266.5t299 97.5q145 0 249 -54l2 -172h-8q-51 184 -233 184q-118 0 -186.5 -85.5t-68.5 -233.5t65.5 -235t177.5 -90q116 0 177 58q62 60 86 206h8l10 -172
q-81 -134 -274 -133.5t-303 97.5z" />
    <glyph glyph-name="Cdotaccent" unicode="&#x10a;" horiz-adv-x="826" 
d="M447.5 764q-25.5 0 -43.5 18t-18 43.5t18 44t43.5 18.5t43.5 -18.5t18 -44t-18 -43.5t-43.5 -18zM808 391q3 -30 3 -75.5t-18 -111t-65 -115.5q-96 -103 -264 -103q-204 0 -322 100.5t-118 263t119.5 263.5t315.5 101q75 0 143 -15t113 -39l2 -172h-8q-37 138 -169 174
q-37 10 -78 10q-126 0 -200.5 -87t-74.5 -230.5t77.5 -233.5t213.5 -93q147 0 234 94t87 255v14h9z" />
    <glyph glyph-name="cdotaccent" unicode="&#x10b;" horiz-adv-x="780" 
d="M430.5 764q-25.5 0 -43.5 18t-18 43.5t18 44t43.5 18.5t43.5 -18.5t18 -44t-18 -43.5t-43.5 -18zM155 84q-110 97 -110 266t109 266.5t299 97.5q145 0 249 -54l2 -172h-8q-51 184 -233 184q-118 0 -186.5 -85.5t-68.5 -233.5t65.5 -235t177.5 -90q116 0 177 58
q62 60 86 206h8l10 -172q-81 -134 -274 -133.5t-303 97.5z" />
    <glyph glyph-name="Ccaron" unicode="&#x10c;" horiz-adv-x="826" 
d="M454 764h-11l-147 153l6 8l147 -65l137 65l7 -8zM808 391q3 -30 3 -75.5t-18 -111t-65 -115.5q-96 -103 -264 -103q-204 0 -322 100.5t-118 263t119.5 263.5t315.5 101q75 0 143 -15t113 -39l2 -172h-8q-37 138 -169 174q-37 10 -78 10q-126 0 -200.5 -87t-74.5 -230
t77.5 -233.5t213.5 -93.5q147 0 234 94t87 255v14h9z" />
    <glyph glyph-name="ccaron" unicode="&#x10d;" horiz-adv-x="780" 
d="M437 764h-11l-147 153l6 8l147 -65l137 65l7 -8zM155 84q-110 97 -110 266t109 266.5t299 97.5q145 0 249 -54l2 -172h-8q-51 184 -233 184q-118 0 -186.5 -85.5t-68.5 -233.5t65.5 -235t177.5 -90q116 0 177 58q62 60 86 206h8l10 -172q-81 -134 -274 -133.5t-303 97.5z
" />
    <glyph glyph-name="Dcaron" unicode="&#x10e;" horiz-adv-x="862" 
d="M449 764h-11l-148 153l7 8l147 -65l136 65l7 -8zM206 701h62t167 -1q177 -1 280 -95t103 -255.5t-103 -255.5t-280 -94h-363v10h13q35 0 54 30q9 13 10 30v585q-112 -8 -166 -52q-27 -21 -42.5 -43t-30.5 -53l-10 4q24 100 100.5 144.5t205.5 45.5zM423 42
q107 0 169.5 83t62.5 225t-62.5 224t-167.5 82h-2h-124v-614h124v0z" />
    <glyph glyph-name="dcaron" unicode="&#x10f;" horiz-adv-x="828" 
d="M420 764h-12l-147 153l7 8l146 -65l137 65l7 -8zM685 606q103 -94 103 -256t-103 -256t-280 -94h-363v10h13q26 0 44.5 18.5t19.5 44.5v560q-3 24 -21 40.5t-43 16.5h-13v10h363q177 0 280 -94zM392 42q72 0 124.5 37.5t80.5 107t28 151.5t-16.5 139.5t-46.5 97.5
q-62 83 -170 83h-123v-616h123z" />
    <glyph glyph-name="Dcroat" unicode="&#x110;" horiz-adv-x="862" 
d="M308 795v66h275v-66h-275zM206 701h62t167 -1q177 -1 280 -95t103 -255.5t-103 -255.5t-280 -94h-363v10h13q25 0 43.5 17.5t20.5 42.5v585q-112 -8 -166 -52q-27 -21 -42.5 -43t-30.5 -53l-10 4q24 100 100.5 144.5t205.5 45.5zM423 42q107 0 169.5 83t62.5 225
t-62.5 224t-167.5 82h-2h-124v-614h124v0z" />
    <glyph glyph-name="dcroat" unicode="&#x111;" horiz-adv-x="828" 
d="M279 795v66h274v-66h-274zM685 606q103 -94 103 -256t-103 -256t-280 -94h-363v10h13q26 0 44.5 18.5t19.5 44.5v560q-3 24 -21 40.5t-43 16.5h-13v10h363q177 0 280 -94zM392 42q72 0 124.5 37.5t80.5 107t28 144.5t-10.5 123.5t-30.5 86t-48 63.5q-57 54 -144 54h-123
v-616h123z" />
    <glyph glyph-name="Emacron" unicode="&#x112;" horiz-adv-x="670" 
d="M133 795v66h274v-66h-274zM55 10q26 0 44.5 18.5t19.5 44.5v557q-3 35 -33 52q-15 8 -31 8h-13v10h281q44 0 77 7t43 11v-175h-11v12q1 62 -45 88q-22 13 -52 14h-66v-291h159q37 1 61 25.5t24 60.5v9h9v-231h-9v8q0 37 -24 61t-60 25h-160v-281h195q73 0 122.5 42
t73.5 119h10l-47 -204h-581v10h13z" />
    <glyph glyph-name="emacron" unicode="&#x113;" horiz-adv-x="631" 
d="M188 795v66h274v-66h-274zM55 10q26 0 44.5 18.5t19.5 44.5v557q-3 35 -33 52q-15 8 -31 8h-13v10h383q44 0 77 7t43 11v-175l-10 1v11q0 45 -26.5 72.5t-71.5 29.5h-168v-291h132q37 1 61 25.5t24 60.5v9h10v-231h-10v8q0 50 -40 74q-20 11 -44 12h-133v-281h131
q73 0 122.5 42t73.5 119h10l-46 -204h-518v10h13z" />
    <glyph glyph-name="Edotaccent" unicode="&#x116;" horiz-adv-x="670" 
d="M266.5 764q-25.5 0 -43.5 18t-18 43.5t18 44t43.5 18.5t43.5 -18.5t18 -44t-18 -43.5t-43.5 -18zM55 10q26 0 44.5 18.5t19.5 44.5v557q-3 35 -33 52q-15 8 -31 8h-13v10h281q44 0 77 7t43 11v-175h-11v12q1 45 -25.5 72.5t-71.5 29.5h-66v-291h159q37 1 61 25.5t24 60.5
v9h9v-231h-9v8q0 37 -24 61t-60 25h-160v-281h195q73 0 122.5 42t73.5 119h10l-47 -204h-581v10h13z" />
    <glyph glyph-name="edotaccent" unicode="&#x117;" horiz-adv-x="631" 
d="M322 764q-26 0 -44 18t-18 43.5t18 44t44 18.5t44 -18.5t18 -44t-18 -43.5t-44 -18zM55 10q26 0 44.5 18.5t19.5 44.5v557q-3 35 -33 52q-15 8 -31 8h-13v10h383q31 0 68 6t52 12v-175h-10v12q0 45 -26.5 72.5t-71.5 29.5h-168v-291h132q37 1 61 25.5t24 60.5v9h10v-231
h-10v8q0 50 -40 74q-20 11 -44 12h-133v-281h131q73 0 122.5 42t73.5 119h10l-46 -204h-518v10h13z" />
    <glyph glyph-name="Eogonek" unicode="&#x118;" horiz-adv-x="670" 
d="M596 -200h-17t-40 9t-41.5 34.5t-15.5 55.5q0 32 15 53q25 38 74 48h-529v10h13q26 0 44.5 18.5t19.5 44.5v557q-3 35 -33 52q-15 8 -31 8h-13v10h281q31 0 68 6t52 12v-175h-11v12q1 45 -25.5 72.5t-71.5 29.5h-66v-291h159q37 1 61 25.5t24 60.5v9h9v-231h-9v8
q0 37 -24 61t-60 25h-160v-281h195q73 0 122.5 42t73.5 119h10l-47 -204h-2q-68 -16 -68 -72q0 -50 41 -66q12 -4 30.5 -4t44.5 22l6 -6q-5 -33 -27.5 -53t-51.5 -21z" />
    <glyph glyph-name="eogonek" unicode="&#x119;" horiz-adv-x="631" 
d="M534 -200h-17.5t-40 9t-41 34.5t-15.5 55.5q0 45 26.5 69.5t61.5 31.5h-466v10h13q26 0 44.5 18.5t19.5 44.5v557q-3 35 -33 52q-15 8 -31 8h-13v10h383q31 0 68 6t52 12v-175h-10v12q0 45 -26.5 72.5t-71.5 29.5h-168v-291h132q37 1 61 25.5t24 60.5v9h10v-231h-10v8
q0 50 -40 74q-20 11 -44 12h-133v-281h131q73 0 122.5 42t73.5 119h10l-47 -204q-69 -16 -69 -72q0 -50 41 -66q12 -4 31 -4t44 22l6 -6q-5 -33 -27.5 -53t-50.5 -21z" />
    <glyph glyph-name="Ecaron" unicode="&#x11a;" horiz-adv-x="670" 
d="M273 764h-11l-148 153l7 8l147 -65l137 65l6 -8zM55 10q26 0 44.5 18.5t19.5 44.5v557q-3 35 -33 52q-15 8 -31 8h-13v10h281q44 0 77 7t43 11v-175l-11 1v11q1 45 -25.5 72.5t-71.5 29.5h-66v-291h159q37 1 61 25.5t24 60.5v9h9v-231h-9v8q0 37 -24 61t-60 25h-160v-281
h195q73 0 122.5 42t73.5 119h10l-47 -204h-581v10h13z" />
    <glyph glyph-name="ecaron" unicode="&#x11b;" horiz-adv-x="631" 
d="M329 764h-12l-147 153l7 8l147 -65l136 65l7 -8zM55 10q26 0 44.5 18.5t19.5 44.5v557q-2 25 -20.5 42.5t-43.5 17.5h-13v10h383q44 0 77 7t43 11v-175l-10 1v11q0 62 -46 88q-22 13 -52 14h-168v-291h132q37 1 61 25.5t24 60.5v9h10v-231h-10v8q0 37 -23.5 61t-60.5 25
h-133v-281h131q73 0 122.5 42t73.5 119h10l-46 -204h-518v10h13z" />
    <glyph glyph-name="Gbreve" unicode="&#x11e;" horiz-adv-x="861" 
d="M563 884q0 -43 -35 -81.5t-92.5 -38.5t-92 38.5t-34.5 81.5q0 10 2 20h11q11 -25 42.5 -42.5t64.5 -17.5t57 8q49 17 63 52h12q2 -10 2 -20zM955 -198q-25 0 -49 4q-97 15 -165 73.5t-98 145.5q-94 -39 -203 -39q-180 0 -295 102t-115 263t116 262t301 101
q80 0 155 -15.5t121 -38.5l2 -172h-8q-24 91 -92.5 137.5t-164.5 46.5q-118 0 -192.5 -90.5t-74.5 -235.5q0 -92 33 -164.5t92.5 -113t128.5 -40.5t114.5 27t61.5 72v152q1 46 -50 46h-16v10h281v-10h-15q-25 0 -38 -12t-12 -33v-159q1 -66 25 -123q53 -122 176 -152
q33 -8 68.5 -8t72.5 8l2 -10q-86 -34 -162 -34z" />
    <glyph glyph-name="gbreve" unicode="&#x11f;" horiz-adv-x="836" 
d="M549 884q0 -43 -35 -81.5t-92 -38.5t-92 38.5t-35 81.5q0 10 2 20h12q10 -25 42 -42.5t71 -17.5t71 17.5t43 42.5h11q2 -10 2 -20zM819 325h-15q-24 0 -37 -11.5t-13 -33.5v-165q-55 -72 -185 -109q-70 -20 -146 -20q-171 0 -274.5 98.5t-103.5 266t103.5 265.5t280.5 98
q80 0 155 -15.5t121 -38.5l2 -172h-9q-26 97 -89 140.5t-150 43.5q-121 0 -186 -86.5t-65 -237t59.5 -235.5t168.5 -85q57 0 104.5 26.5t65.5 72.5v153q0 22 -13.5 33.5t-38.5 11.5h-16v10h281v-10z" />
    <glyph glyph-name="Gdotaccent" unicode="&#x120;" horiz-adv-x="861" 
d="M435.5 764q-25.5 0 -43.5 18t-18 43.5t18 44t43.5 18.5t43.5 -18.5t18 -44t-18 -43.5t-43.5 -18zM955 -198q-25 0 -49 4q-97 15 -165 73.5t-98 145.5q-94 -39 -203 -39q-180 0 -295 102t-115 262q0 107 52.5 190t147.5 128.5t217 45.5q80 0 155 -15.5t121 -38.5l2 -172
h-8q-24 91 -92.5 137.5t-164.5 46.5q-118 0 -192.5 -90.5t-74.5 -233t73 -231.5t188 -89q62 0 107.5 27t61.5 72v152q0 22 -13 34t-37 12h-16v10h281v-10h-15q-25 0 -38 -12t-12 -33v-159q1 -66 25 -123q53 -122 176 -152q33 -8 68.5 -8t72.5 8l2 -10q-86 -34 -162 -34z" />
    <glyph glyph-name="gdotaccent" unicode="&#x121;" horiz-adv-x="836" 
d="M421.5 764q-25.5 0 -43.5 18t-18 43.5t18 44t43.5 18.5t43.5 -18.5t18 -44t-18 -43.5t-43.5 -18zM819 325h-15q-24 0 -37 -11.5t-13 -33.5v-165q-55 -72 -185 -109q-70 -20 -146 -20q-171 0 -274.5 98.5t-103.5 266t103.5 265.5t280.5 98q80 0 155 -15.5t121 -38.5
l2 -172h-9q-26 97 -89 140.5t-150 43.5q-121 0 -186 -86.5t-65 -237t59.5 -235.5t168.5 -85q79 0 132 45q26 23 38 54v153q0 22 -13.5 33.5t-38.5 11.5h-16v10h281v-10z" />
    <glyph glyph-name="Gcommaaccent" unicode="&#x122;" horiz-adv-x="861" 
d="M955 -198q-25 0 -49 4q-97 15 -165 73.5t-98 145.5q-94 -39 -203 -39q-180 0 -295 102t-115 262q0 107 52.5 190t147.5 128.5t217 45.5q80 0 155 -15.5t121 -38.5l2 -172h-8q-24 91 -92.5 137.5t-164.5 46.5q-118 0 -192.5 -90.5t-74.5 -233t73 -231.5t188 -89
q62 0 107.5 27t61.5 72v152q0 22 -13 34t-37 12h-16v10h281v-10h-15q-25 0 -38 -12t-12 -33v-159q1 -66 25 -123q53 -122 176 -152q33 -8 68.5 -8t72.5 8l2 -10q-86 -34 -162 -34zM402 -239q34 12 34 45q0 19 -16.5 38.5t-16.5 41.5t13.5 36t26.5 14q44 0 60 -35
q9 -24 9 -42q0 -57 -43 -89q-24 -18 -52 -18q-7 0 -13 1z" />
    <glyph glyph-name="gcommaaccent" unicode="&#x123;" horiz-adv-x="836" 
d="M819 325h-15q-24 0 -37 -11.5t-13 -33.5v-165q-39 -51 -129 -90t-202 -39q-171 0 -274.5 98.5t-103.5 266t103.5 265.5t280.5 98q80 0 155 -15.5t121 -38.5l2 -172h-9q-26 97 -89 140.5t-150 43.5q-121 0 -186 -86.5t-65 -237t59.5 -235.5t168.5 -85q79 0 132 45
q26 23 38 54v153q0 22 -13.5 33.5t-38.5 11.5h-16v10h281v-10zM383 -243q34 12 34 45q0 19 -16.5 38.5t-16.5 41.5t13.5 36t26.5 14q45 0 60 -35q9 -24 9 -42q0 -57 -43 -89q-24 -18 -52 -18q-6 0 -13 1z" />
    <glyph glyph-name="Hbar" unicode="&#x126;" horiz-adv-x="862" 
d="M523 10q26 0 45 18t20 44v255h-315v-257q0 -120 -61 -191q-48 -56 -138 -56q-29 0 -63 7l-2 10q74 31 95 92q19 52 19 138v422h-74v42h74v94q-1 26 -19.5 44t-44.5 18h-13v10h304v-10h-13q-25 0 -44 -17.5t-20 -44.5v-94h315v76q0 117 73 186q58 57 146 57q20 0 42 -3
l2 -10q-82 -29 -102 -116q-11 -45 -11 -114v-76h66v-42h-67v-419q1 -26 19.5 -44.5t45.5 -18.5h12v-10h-303v10h12zM273 370h315v122h-315v-122z" />
    <glyph glyph-name="hbar" unicode="&#x127;" horiz-adv-x="861" 
d="M529 10q26 0 40 13q23 23 24 49v255h-324v-254q0 -26 19 -44.5t45 -18.5h12l1 -10h-304v10h13q26 0 44.5 18.5t19.5 44.5v419h-64v42h64v94q-1 26 -19.5 44t-44.5 18h-13v10h304l-1 -10h-12q-26 0 -45 -18t-19 -44v-94h324v94q-1 26 -19.5 44t-44.5 18h-13v10h304v-10
h-13q-26 0 -45 -18.5t-19 -44.5v-93h67v-42h-67v-419q0 -26 19 -44.5t45 -18.5h13v-10h-304v10h13zM269 369h324v123h-324v-123z" />
    <glyph glyph-name="Imacron" unicode="&#x12a;" horiz-adv-x="456" 
d="M129 795v66h274v-66h-274zM403 10h13v-10h-304v10h13q26 0 44.5 18.5t19.5 44.5v586l-95 -4q-94 -4 -94 -70q0 -27 18.5 -45.5t51.5 -18.5h6v-6q-20 -7 -34 -7q-45 0 -69 32q-17 22 -17 50q0 44 34.5 72.5t106.5 33.5q13 1 84 4q162 6 235 20l2 -10q-43 -7 -60.5 -29
t-18.5 -65v-543q1 -26 19.5 -44.5t44.5 -18.5z" />
    <glyph glyph-name="imacron" unicode="&#x12b;" horiz-adv-x="386" 
d="M59 795v66h274v-66h-274zM55 10q26 0 44.5 18.5t19.5 44.5v555q-1 26 -19.5 44t-44.5 18h-13v10h304l-1 -10h-12q-26 0 -45 -18t-19 -44v-555q0 -26 19 -44.5t45 -18.5h12l1 -10h-304v10h13z" />
    <glyph glyph-name="Iogonek" unicode="&#x12e;" horiz-adv-x="456" 
d="M272 -139q12 -4 30.5 -4t44.5 22l6 -6q-5 -33 -28 -53q-24 -21 -53 -21q-69 0 -98 46q-14 24 -14 53q0 33 15 55q28 38 79 47h-142v10h13q26 0 44.5 18.5t19.5 44.5v586l-95 -4q-94 -4 -94 -70q0 -27 18.5 -45.5t51.5 -18.5h6v-6q-20 -7 -34 -7q-45 0 -69 32
q-17 22 -17 50q0 44 34.5 72.5t106.5 33.5q13 1 84 4q162 6 235 20l2 -10q-43 -7 -60.5 -29t-18.5 -65v-543q0 -26 19 -44.5t45 -18.5h13v-10h-120l3 -1q-68 -16 -68 -69t41 -69z" />
    <glyph glyph-name="iogonek" unicode="&#x12f;" horiz-adv-x="386" 
d="M202 -139q11 -5 23 -5q26 0 52 23l6 -6q-5 -33 -28 -53q-24 -21 -53 -21q-69 0 -98 46q-14 24 -14 53q0 46 28 71t65 31h-141v10h13q26 0 44.5 18.5t19.5 44.5v555q-1 26 -19.5 44t-44.5 18h-13v10h304l-1 -10h-12q-26 0 -45 -18t-19 -44v-555q0 -26 19 -44.5t45 -18.5
h12l1 -10h-120q-65 -17 -65 -70t41 -69z" />
    <glyph glyph-name="Idotaccent" unicode="&#x130;" horiz-adv-x="456" 
d="M262.5 764q-25.5 0 -43.5 18t-18 43.5t18 44t43.5 18.5t43.5 -18.5t18 -44t-18 -43.5t-43.5 -18zM403 10h13v-10h-304v10h13q26 0 44.5 18.5t19.5 44.5v586l-95 -4q-94 -5 -94 -70q0 -27 18.5 -45.5t51.5 -18.5h6v-6q-20 -7 -34 -7q-45 0 -69 32q-17 22 -17 50
q0 44 34.5 72.5t106.5 33.5q13 1 84 4q162 6 235 20l2 -10q-43 -7 -60.5 -29t-18.5 -65v-543q1 -26 19.5 -44.5t44.5 -18.5z" />
    <glyph glyph-name="dotlessi" unicode="&#x131;" horiz-adv-x="386" 
d="M55 10q26 0 44.5 18.5t19.5 44.5v555q-1 26 -19.5 44t-44.5 18h-13v10h304l-1 -10h-12q-26 0 -45 -18t-19 -44v-555q0 -26 19 -44.5t45 -18.5h12l1 -10h-304v10h13z" />
    <glyph glyph-name="IJ" unicode="&#x132;" horiz-adv-x="846" 
d="M403 10h13v-10h-304v10h13q26 0 44.5 18.5t19.5 44.5v586l-95 -4q-94 -4 -94 -70q0 -27 18.5 -45.5t51.5 -18.5h6v-6q-20 -7 -34 -7q-45 0 -69 32q-17 22 -17 50q0 44 34.5 72.5t106.5 33.5q13 1 84 4q162 6 235 20l2 -10q-43 -7 -60.5 -29t-18.5 -65v-543
q1 -26 19.5 -44.5t44.5 -18.5zM792 690q-36 0 -55 -31q-9 -14 -9 -32v-547q0 -135 -69 -210q-63 -68 -148 -68q-65 0 -134 37l3 10q19 -4 36 -4q41 0 73 21q89 56 89 217v544q-1 26 -19.5 44.5t-44.5 18.5h-13v10h304v-10h-13z" />
    <glyph glyph-name="ij" unicode="&#x133;" horiz-adv-x="770" 
d="M55 10q26 0 44.5 18.5t19.5 44.5v555q-1 26 -19.5 44t-44.5 18h-13v10h304l-1 -10h-12q-26 0 -45 -18t-19 -44v-555q0 -26 19 -44.5t45 -18.5h12l1 -10h-304v10h13zM722 690q-26 0 -40 -13q-23 -23 -24 -50v-597q0 -71 -38 -127t-93 -80t-110 -24q-13 0 -26 1v9
q60 25 88.5 86.5t28.5 137.5v594q-1 26 -19.5 44.5t-44.5 18.5h-13v10h304v-10h-13z" />
    <glyph glyph-name="Kcommaaccent" unicode="&#x136;" horiz-adv-x="761" 
d="M55 10q26 0 44.5 18.5t19.5 44.5v555q-1 36 -33 54q-14 8 -31 8h-13v10h304l-1 -10h-12q-26 0 -45 -18t-19 -44v-555q0 -26 19 -44.5t45 -18.5h12l1 -10h-304v10h13zM1048 -170q-73 -38 -133 -38t-108 17q-119 43 -243 197l-263 324l237 314q8 10 8 18t-3 14
q-8 15 -28 15h-10v9h229v-9h-4q-67 0 -109 -48l-195 -232l272 -338q91 -120 171 -174t178 -59zM388 -200q34 12 34 45q0 19 -16.5 38.5t-16.5 41.5t13.5 36t26.5 14q45 0 60 -35q9 -24 9 -42q0 -57 -43 -89q-24 -18 -52 -18q-6 0 -13 1z" />
    <glyph glyph-name="kcommaaccent" unicode="&#x137;" horiz-adv-x="756" 
d="M55 10q26 0 44.5 18.5t19.5 44.5v555q-1 36 -33 54q-14 8 -31 8h-13v10h304l-1 -10h-12q-36 0 -55 -31q-9 -14 -9 -31v-555q0 -26 19 -44.5t45 -18.5h12l1 -10h-304v10h13zM777 0h-82q-152 0 -215 83q-179 243 -179 247l237 314q8 10 8 18t-3 14q-8 15 -28 15h-10v9h229
v-9h-4q-67 0 -109 -48l-195 -231l249 -340q46 -60 102 -62v-10zM389 -200q34 12 34 45q0 19 -16.5 38.5t-16.5 41.5t13.5 36t26.5 14q45 0 60 -35q9 -24 9 -42q0 -57 -43 -89q-24 -18 -52 -18q-6 0 -13 1z" />
    <glyph glyph-name="Lacute" unicode="&#x139;" horiz-adv-x="427" 
d="M184 762l-7 7q43 74 144 164q48 -25 67 -81q-102 -65 -204 -90zM854 -139q104 0 168 41l7 -8q-37 -52 -85 -83t-85.5 -42t-65 -11t-66 4t-81 13.5t-106.5 35.5q-81 33 -144 65.5t-72 37.5q-70 35 -107 50q-89 36 -175 36v10h13q36 0 54 31q9 14 10 32v554q-1 27 -19.5 45
t-44.5 18h-13v10h304l-1 -10h-10q-28 0 -47 -18t-19 -45v-580q0 -33 13 -45.5t29 -17.5q376 -123 543 -123z" />
    <glyph glyph-name="lacute" unicode="&#x13a;" horiz-adv-x="616" 
d="M184 762l-7 7q43 74 144 164q48 -25 68 -81q-103 -65 -205 -90zM55 10q26 0 44.5 18.5t19.5 44.5v554q-1 37 -33 55q-14 8 -31 8h-13v10h304l-1 -10h-12q-26 0 -45 -18.5t-19 -44.5v-584h131q73 0 122.5 42t73.5 119h10l-46 -204h-518v10h13z" />
    <glyph glyph-name="Lcommaaccent" unicode="&#x13b;" horiz-adv-x="427" 
d="M854 -139q104 0 168 41l7 -8q-86 -119 -214 -132q-27 -3 -46.5 -3t-45 1.5t-71.5 13.5t-81 24.5t-81 33t-76 36t-71.5 37t-72.5 36.5t-60 26q-82 33 -168 33v10h13q26 0 44.5 18t19.5 45v554q-1 27 -19.5 45t-44.5 18h-13v10h304l-1 -10h-10q-38 0 -57 -31q-9 -14 -9 -32
v-580q0 -33 13 -45.5t29 -17.5q376 -123 543 -123zM208 -287q34 12 34 45q0 19 -16 38.5t-16 41.5t13 35.5t26 13.5q45 0 60 -34q9 -24 9 -42q0 -57 -42 -89q-25 -18 -53 -18q-6 0 -12 1z" />
    <glyph glyph-name="lcommaaccent" unicode="&#x13c;" horiz-adv-x="616" 
d="M55 10q26 0 44.5 18.5t19.5 44.5v554q-1 26 -19.5 44.5t-44.5 18.5h-13v10h304l-1 -10h-12q-26 0 -45 -18.5t-19 -44.5v-584h131q73 0 122.5 42t73.5 119h10l-46 -204h-518v10h13zM282 -239q35 12 35 45q0 19 -16.5 38.5t-16.5 41.5t13.5 36t25.5 14q45 0 60 -35
q9 -24 9 -42q0 -57 -42 -89q-24 -18 -53 -18q-6 0 -12 1z" />
    <glyph glyph-name="Lcaron" unicode="&#x13d;" horiz-adv-x="488" 
d="M404 532q34 13 34 46q0 19 -16 38t-16 41.5t13 36t26 13.5q45 0 60 -34q9 -24 9 -42q0 -58 -42 -89q-25 -18 -53 -18h-12zM894 -210q-35 -14 -67 -17t-50.5 -3t-43 1.5t-67 12.5t-77.5 23.5t-78 31.5t-76 35q-99 49 -145 70q-122 56 -248 56v10h13q26 0 39 13
q24 23 25 50v554q-1 27 -19.5 45t-44.5 18h-13v10h304l-1 -10h-12q-27 0 -45.5 -18t-18.5 -45v-574q0 -30 8 -45.5t34 -23.5q229 -77 316.5 -98.5t121.5 -25.5t56.5 -4t55.5 3q58 4 161 43l7 -8q-60 -73 -135 -104z" />
    <glyph glyph-name="lcaron" unicode="&#x13e;" horiz-adv-x="616" 
d="M404 532q34 13 34 46q0 19 -16 38t-16 41.5t13 36t26 13.5q45 0 60 -34q9 -24 9 -42q0 -58 -42 -89q-25 -18 -53 -18h-12zM55 10q26 0 44.5 18.5t19.5 44.5v554q-1 26 -19.5 44.5t-44.5 18.5h-13v10h304l-1 -10h-12q-26 0 -45 -18.5t-19 -44.5v-584h131q73 0 122.5 42
t73.5 119h10l-46 -204h-518v10h13z" />
    <glyph glyph-name="Ldot" unicode="&#x13f;" horiz-adv-x="548" 
d="M894 -210q-35 -14 -67 -17t-50.5 -3t-43 1.5t-67 12.5t-77.5 23.5t-78 31.5t-76 35q-99 49 -145 70q-122 56 -248 56v10h13q26 0 44.5 18.5t19.5 44.5v554q-1 27 -19.5 45t-44.5 18h-13v10h304l-1 -10h-12q-27 0 -45.5 -18t-18.5 -45v-574q0 -30 8 -45.5t34 -23.5
q229 -77 316.5 -98.5t121.5 -25.5t56.5 -4t55.5 3q58 4 161 43l7 -8q-60 -73 -135 -104zM416 357q-26 0 -44 18.5t-18 44t18 44t44 18.5t44 -18.5t18 -44t-18 -44t-44 -18.5z" />
    <glyph glyph-name="ldot" unicode="&#x140;" horiz-adv-x="616" 
d="M55 10q26 0 44.5 18.5t19.5 44.5v554q-1 26 -19.5 44.5t-44.5 18.5h-13v10h304l-1 -10h-12q-26 0 -45 -18.5t-19 -44.5v-584h131q73 0 122.5 42t73.5 119h10l-46 -204h-518v10h13zM416 357q-26 0 -44 18.5t-18 44t18 44t44 18.5t44 -18.5t18 -44t-18 -44t-44 -18.5z" />
    <glyph glyph-name="Lslash" unicode="&#x141;" horiz-adv-x="463" 
d="M954 -180q-45 -28 -80.5 -39.5t-61 -11.5t-59 2.5t-71.5 10t-98 31.5q-76 29 -165 73t-122 58q-122 56 -248 56v10h13q26 0 45 18.5t19 44.5v199l-63 -36l-21 38l84 49v304q0 27 -19 45t-45 18h-13v10h304v-10h-13q-26 0 -44.5 -18t-19.5 -45v-218l113 65l21 -38
l-134 -77v-306q0 -30 8 -45.5t34 -23.5q230 -77 317 -98.5t121 -25.5t57 -4t56 3q57 4 161 43l6 -8q-37 -46 -82 -74z" />
    <glyph glyph-name="lslash" unicode="&#x142;" horiz-adv-x="616" 
d="M55 10q26 0 44.5 18.5t19.5 44.5v208l-80 -45l-21 38l101 58v295q-1 26 -19.5 44.5t-44.5 18.5h-13v10h304l-1 -10h-12q-26 0 -45 -18.5t-19 -44.5v-208l96 55l21 -38l-117 -68v-325h131q73 0 122.5 42t73.5 119h10l-46 -204h-518v10h13z" />
    <glyph glyph-name="Nacute" unicode="&#x143;" horiz-adv-x="865" 
d="M401 762l-7 7q43 74 144 164q48 -25 68 -81q-103 -65 -205 -90zM971 -122.5q21 -8.5 40.5 -12t43 -3.5t48.5 6l4 -10q-56 -27 -113 -27q-131 0 -267 145l-474 503v-409q0 -25 18 -42.5t43 -17.5h19v-10h-303v10h18q26 0 44 17.5t18 43.5v561q-49 56 -74 78.5t-44.5 37.5
t-37.5 25q-42 24 -67.5 28t-48 4t-48.5 -9l-4 10q55 32 113 32q126 0 267 -150l447 -475v416q-1 26 -19 43.5t-43 17.5h-18v10h303v-10h-19q-25 0 -43 -17.5t-19 -42.5v-569l16 -16q6 -6 18.5 -20.5t22.5 -25t25.5 -26.5t29 -28t32 -26t35 -23.5t37.5 -18z" />
    <glyph glyph-name="nacute" unicode="&#x144;" horiz-adv-x="865" 
d="M407 762l-7 7q43 74 144 164q48 -25 68 -81q-103 -65 -205 -90zM817 690q-25 0 -43 -17.5t-19 -42.5v-516q0 -67 9 -113l3 -15h-9l-505 481v-397q0 -35 31 -52q14 -8 30 -8h19v-10h-303v10h18q26 0 44 17.5t18 43.5v519q0 66 -9 110l-2 15h9l505 -481v395q-1 26 -19 43.5
t-43 17.5h-18v10h303v-10h-19z" />
    <glyph glyph-name="Ncommaaccent" unicode="&#x145;" horiz-adv-x="865" 
d="M971 -122.5q21 -8.5 40.5 -12t43 -3.5t48.5 6l4 -10q-56 -27 -113 -27q-131 0 -267 145l-474 503v-409q0 -25 18 -42.5t43 -17.5h19v-10h-303v10h18q26 0 44 17.5t18 43.5v561q-49 56 -74 78.5t-44.5 37.5t-37.5 25q-42 24 -67.5 28t-48 4t-48.5 -9l-4 10q55 32 113 32
q126 0 267 -150l447 -475v416q-1 26 -19 43.5t-43 17.5h-18v10h303v-10h-19q-25 0 -43 -17.5t-19 -42.5v-569l16 -16q6 -6 18.5 -20.5t22.5 -25t25.5 -26.5t29 -28t32 -26t35 -23.5t37.5 -18zM428 -239q35 12 35 45q0 19 -16.5 38.5t-16.5 41.5t13.5 36t25.5 14q45 0 60 -35
q9 -24 9 -42q0 -57 -42 -89q-24 -18 -52 -18q-7 0 -13 1z" />
    <glyph glyph-name="ncommaaccent" unicode="&#x146;" horiz-adv-x="865" 
d="M817 690q-25 0 -43 -17.5t-19 -42.5v-516q0 -67 9 -113l3 -15h-9l-505 481v-397q0 -25 18 -42.5t43 -17.5h19v-10h-303v10h18q26 0 44 17.5t18 43.5v519q0 66 -9 110l-2 15h9l505 -481v395q-1 26 -19 43.5t-43 17.5h-18v10h303v-10h-19zM424 -239q34 12 34 45
q0 19 -16 38.5t-16 41.5t13 36t26 14q45 0 60 -35q9 -24 9 -42q0 -57 -42 -89q-25 -18 -53 -18q-6 0 -12 1z" />
    <glyph glyph-name="Ncaron" unicode="&#x147;" horiz-adv-x="865" 
d="M417 764h-11l-147 153l6 8l147 -65l137 65l7 -8zM971 -122.5q21 -8.5 40.5 -12t43 -3.5t48.5 6l4 -10q-56 -27 -113 -27q-131 0 -267 145l-474 503v-409q0 -25 18 -42.5t43 -17.5h19v-10h-303v10h18q26 0 44 17.5t18 43.5v561q-49 56 -74.5 78.5t-44.5 37.5t-37 25
q-43 24 -68 28t-47.5 4t-48.5 -9l-4 10q55 32 113 32q126 0 267 -150l447 -475v416q-1 26 -19 43.5t-43 17.5h-18v10h303v-10h-19q-25 0 -43 -17.5t-19 -42.5v-569l16 -16q6 -6 18.5 -20.5t22.5 -25t25.5 -26.5t29 -28t32 -26t35 -23.5t37.5 -18z" />
    <glyph glyph-name="ncaron" unicode="&#x148;" horiz-adv-x="865" 
d="M423 764h-11l-147 153l6 8l147 -65l137 65l7 -8zM817 690q-25 0 -43 -17.5t-19 -42.5v-516q0 -67 9 -113l3 -15h-9l-505 481v-397q0 -35 31 -52q14 -8 30 -8h19v-10h-303v10h18q26 0 44 17.5t18 43.5v519q0 66 -9 110l-2 15h9l505 -481v395q-1 26 -19 43.5t-43 17.5h-18
v10h303v-10h-19z" />
    <glyph glyph-name="Eng" unicode="&#x14a;" horiz-adv-x="862" 
d="M-90 779.5q-23 10.5 -47 17.5t-49.5 7t-52.5 -9l-5 9q55 32 113 32q126 0 267 -149l479 -458v403q-1 23 -18 40t-41 17h-17v11h288v-11h-18q-22 0 -38.5 -15.5t-16.5 -37.5v-651q0 -64 -31.5 -109.5t-74 -61.5t-70.5 -16t-46 2l-5 8q32 23 49 42q39 46 39 164v104
l-373 358v-408q1 -33 30 -49q13 -8 29 -8h17v-11h-288v11h17q23 0 39.5 15.5t17.5 37.5v549q-65 74 -94 97.5t-53 41t-47 28z" />
    <glyph glyph-name="eng" unicode="&#x14b;" horiz-adv-x="870" 
d="M804 689q-23 0 -39.5 -15.5t-16.5 -37.5v-651q0 -64 -31.5 -109.5t-74 -61.5t-70.5 -16t-45 2l-6 8q33 23 49 42q39 46 39 164v104l-373 355v-405q1 -23 18 -40t41 -17h17v-11h-288v11h18q23 0 40 16.5t18 40.5v522q0 66 -9 110l-3 15h10l511 -486v403q-1 23 -18 40
t-41 17h-17v11h288v-11h-17z" />
    <glyph glyph-name="Omacron" unicode="&#x14c;" horiz-adv-x="930" 
d="M333 804v65h274v-65h-274zM332 447q-18 38 -18 72.5t9 64t30 58t59 47.5q52 27 125 27q96 0 182 -49q113 -64 157 -177q25 -62 25 -133q0 -167 -120.5 -269t-314 -102t-315 102t-121.5 268q0 124 70.5 215.5t190.5 124.5l6 -9q-51 -43 -77 -126t-26 -179q0 -162 75 -258
t196.5 -96t196 90.5t74.5 239.5q0 90 -27.5 162.5t-79.5 112t-116 39.5q-71 0 -115 -37q-62 -53 -62 -135q0 -26 7 -53h-11z" />
    <glyph glyph-name="omacron" unicode="&#x14d;" horiz-adv-x="879" 
d="M306 804v65h275v-65h-275zM440 714q185 0 294 -98t109 -266t-109 -266t-294 -98t-294 98t-109 266q0 111 49.5 193.5t140.5 126.5t213 44zM440 28q110 0 174.5 86.5t64.5 235.5q0 98 -29 171t-83 112t-127 39q-110 0 -174.5 -86.5t-64.5 -235.5t64.5 -235.5t174.5 -86.5z
" />
    <glyph glyph-name="Ohungarumlaut" unicode="&#x150;" horiz-adv-x="930" 
d="M369 774l-9 5q27 62 121 164q51 -17 75 -65q-88 -69 -187 -104zM544 774l-8 5q28 66 120 164q52 -17 76 -65q-90 -71 -188 -104zM332 447q-18 38 -18 72.5t9 64t30 58t59 47.5q52 27 125 27q96 0 182 -49q113 -64 157 -177q25 -62 25 -133q0 -167 -120.5 -269t-314 -102
t-315 102t-121.5 268q0 124 71 215.5t190 124.5l6 -9q-51 -43 -77 -126t-26 -179q0 -162 75 -258t196.5 -96t196 90.5t74.5 239.5q0 90 -27 162.5t-79.5 112t-116.5 39.5q-71 0 -115 -37q-62 -53 -62 -135q0 -26 7 -53h-11z" />
    <glyph glyph-name="ohungarumlaut" unicode="&#x151;" horiz-adv-x="879" 
d="M343 774l-9 5q27 62 120 164q52 -17 76 -65q-88 -69 -187 -104zM518 774l-8 5q28 66 120 164q51 -17 75 -65q-90 -71 -187 -104zM440 714q185 0 294 -98t109 -266t-109 -266t-294 -98t-294 98t-109 266q0 111 49.5 193.5t140.5 126.5t213 44zM440 28q110 0 174.5 86.5
t64.5 235.5t-64.5 235.5t-174.5 86.5t-174.5 -86.5t-64.5 -235.5t64.5 -235.5t174.5 -86.5z" />
    <glyph glyph-name="OE" unicode="&#x152;" horiz-adv-x="1051" 
d="M599 0q-43 0 -79.5 -4.5t-50.5 -6.5q-31 -3 -59 -3q-177 0 -283 98.5t-106 266.5t106.5 265.5t289.5 97.5q49 0 99.5 -7t81.5 -7h211q31 0 67.5 6t51.5 12v-175h-11v12q0 45 -26.5 72.5t-71.5 29.5h-131v-291h141q50 1 74 43q10 19 10 43v9h10v-231h-10v8q1 37 -23 61
t-60 25h-142v-281h157q73 0 122 42t73 119h10l-46 -204h-405zM503.5 653.5q-35.5 18.5 -95.5 18.5t-114 -37.5t-85.5 -111.5t-31.5 -173t30 -172t85 -111.5t126 -38.5q49 0 85 18.5t36 41.5v523q0 24 -35.5 42.5z" />
    <glyph glyph-name="oe" unicode="&#x153;" horiz-adv-x="1076" 
d="M623 0q-44 0 -88 -6q-67 -8 -101 -8q-177 0 -283 98.5t-106 266.5t106.5 265.5t289.5 97.5q49 0 99.5 -7t81.5 -7h249q31 0 67.5 6t51.5 12v-175h-11v12q0 45 -26.5 72.5t-71.5 29.5h-169v-291h135q50 1 74 43q10 19 10 43v9h10v-231h-10v8q1 37 -23 61t-60 25h-136v-281
h133q73 0 122.5 42t73.5 119h10l-46 -204h-382zM443 672q-107 0 -174 -86t-67 -238q0 -97 30 -170t84.5 -111.5t126.5 -38.5q49 0 85 18.5t36 41.5v523q0 24 -35.5 42.5t-85.5 18.5z" />
    <glyph glyph-name="Racute" unicode="&#x154;" horiz-adv-x="731" 
d="M354 762l-7 7q43 74 144 164q48 -25 68 -81q-103 -65 -205 -90zM1085 -170q-78 -39 -166 -39q-78 0 -142 24q-138 51 -235 199q-25 36 -93 138t-88 131q-35 54 -56 59v10h2.5h3.5h4h5h5q51 0 94 23q65 36 65 133q0 71 -40 109.5t-96 38.5h-76v-583q0 -26 19 -44.5
t45 -18.5h13v-10h-304v10h13q25 0 44 18t20 44v555q-1 37 -33 55q-14 8 -31 8h-13v10h343q129 0 200 -59q56 -46 56 -130t-54.5 -136.5t-124.5 -52.5q-6 0 -13 1q52 -28 96 -77q36 -40 76.5 -92t71.5 -91.5t71.5 -80t89.5 -74.5q97 -67 228 -68v-10z" />
    <glyph glyph-name="racute" unicode="&#x155;" horiz-adv-x="746" 
d="M350 762l-7 7q43 74 144 164q48 -25 68 -81q-103 -65 -205 -90zM318 656h-43h-3v-583q1 -26 19.5 -44.5t44.5 -18.5h13v-10h-304v10h13q26 0 44.5 18t19.5 44v555q-1 26 -19.5 44.5t-44.5 18.5h-13v10h343q97 0 164 -42q34 -21 54 -58.5t20 -98t-42 -116.5t-122 -64
q30 -9 57 -34t45 -54q108 -173 160 -206q26 -16 65 -17v-10h-98q-85 0 -142 23.5t-93 80.5q-18 29 -46 87.5t-37 83.5q-27 60 -68 67v10h31q45 0 79.5 27t46.5 88q4 21 4 33q0 82 -33 118.5t-85 37.5h-30z" />
    <glyph glyph-name="Rcommaaccent" unicode="&#x156;" horiz-adv-x="731" 
d="M1085 -170q-78 -39 -166 -39q-78 0 -142 24q-138 51 -235 199q-25 36 -93 138t-88 130q-35 55 -56 60v10h2.5h3.5h4h5h5q51 0 94 23q65 36 65 133q0 71 -40 109.5t-96 38.5h-76v-583q0 -26 19 -44.5t45 -18.5h13v-10h-304v10h13q25 0 44 18t20 44v555q-1 26 -19.5 44.5
t-44.5 18.5h-13v10h343q129 0 200 -59q56 -46 56 -130t-54.5 -136.5t-124.5 -52.5q-6 0 -13 1q41 -22 68.5 -49t48 -51t35 -42.5t38.5 -49t50 -63.5t57.5 -67.5t70 -65.5t78.5 -51q85 -43 187 -44v-10zM388 -234q35 12 35 45q0 19 -16.5 38.5t-16.5 41.5t13 36t26 14
q45 0 60 -35q9 -24 9 -42q0 -57 -42 -89q-24 -18 -53 -18q-6 0 -12 1z" />
    <glyph glyph-name="rcommaaccent" unicode="&#x157;" horiz-adv-x="746" 
d="M318 656h-43h-3v-583q1 -37 32 -55q15 -8 32 -8h13v-10h-304v10h13q36 0 55 31q8 14 9 31v555q-1 26 -19.5 44.5t-44.5 18.5h-13v10h343q97 0 164 -42q34 -21 54 -58.5t20 -98t-42 -116.5t-122 -64q58 -19 102 -88q93 -149 141 -191q35 -31 84 -32v-10h-98
q-85 0 -142 23.5t-93 80.5q-18 29 -46 87.5t-37 83.5q-27 60 -68 67v10h31q103 1 126 115q4 21 4 33q0 82 -33 118.5t-85 37.5h-30zM389 -239q34 12 34 45q0 19 -16 38.5t-16 41.5t13 36t26 14q45 0 60 -35q9 -24 9 -42q0 -57 -42 -89q-25 -18 -53 -18q-6 0 -12 1z" />
    <glyph glyph-name="Rcaron" unicode="&#x158;" horiz-adv-x="731" 
d="M371 764h-12l-147 153l7 8l147 -65l136 65l7 -8zM1085 -170q-78 -39 -166 -39q-78 0 -142 24q-138 51 -235 199q-25 36 -93 138t-88 130q-35 55 -56 60v10h3.5h5.5h7q54 -1 98 23q65 36 65 133q0 71 -40 109.5t-96 38.5h-76v-583q0 -26 19 -44.5t45 -18.5h13v-10h-304v10
h13q25 0 44 18t20 44v555q-1 26 -19.5 44.5t-44.5 18.5h-13v10h343q129 0 200 -59q56 -46 56 -130t-54.5 -136.5t-124.5 -52.5q-6 0 -13 1q41 -22 68.5 -49t48 -51t35 -42.5t38.5 -49t50 -63.5t57.5 -67.5t70 -65.5t77.5 -51q86 -43 188 -44v-10z" />
    <glyph glyph-name="rcaron" unicode="&#x159;" horiz-adv-x="746" 
d="M367 764h-12l-147 153l7 8l146 -65l137 65l7 -8zM318 656h-44h-2v-583q1 -26 19.5 -44.5t44.5 -18.5h13v-10h-304v10h13q26 0 44.5 18t19.5 44v555q-1 26 -19.5 44.5t-44.5 18.5h-13v10h343q97 0 164 -42q34 -21 54 -58.5t20 -98t-42 -116.5t-122 -64q58 -19 102 -88
q108 -172 159 -205q27 -17 66 -18v-10h-98q-85 0 -142 23.5t-93 80.5q-18 29 -46 87.5t-37 83.5q-27 60 -68 67v10h31q103 1 126 115q4 21 4 33q0 82 -33 118.5t-85 37.5h-30z" />
    <glyph glyph-name="Sacute" unicode="&#x15a;" horiz-adv-x="623" 
d="M307 762l-7 7q43 74 144 164q48 -25 67 -81q-102 -65 -204 -90zM94 284q-40 -63 -40 -130q0 -52 23 -92t51 -63q62 -51 149 -51q54 0 96 20q84 41 84 134q0 35 -23.5 74t-70.5 70l-170 114q-99 62 -99 160q0 10 1 20q6 77 61.5 125.5t148.5 48.5q57 0 138 -10h62
l-13 -147h-9q-1 52 -40 83.5t-103 31.5q-78 0 -113 -47q-17 -24 -17 -52t17 -47.5t54 -42.5l187 -122q57 -37 89 -87q38 -59 38 -121q0 -40 -16.5 -84.5t-54 -82.5t-96.5 -62t-130.5 -24t-129.5 25q-107 45 -136 157q-6 24 -6 50q0 84 59 159z" />
    <glyph glyph-name="sacute" unicode="&#x15b;" horiz-adv-x="578" 
d="M281 762l-7 7q43 74 144 164q48 -25 68 -81q-103 -65 -205 -90zM50 93q0 72 31 123h9q-1 -8 -1 -16q0 -69 49.5 -120.5t135.5 -51.5q67 0 104.5 32t37.5 81q0 59 -80 103l-174 115q-52 30 -74.5 72.5t-22.5 86.5q0 94 59.5 145t152.5 51q55 0 136 -10h63l-13 -147h-10
q0 52 -38.5 83.5t-102.5 31.5q-78 0 -113 -48q-18 -23 -18 -52q0 -48 70 -89l191 -124q90 -52 90 -153q0 -107 -72.5 -163.5t-192.5 -56.5q-68 0 -125.5 16.5t-84.5 44.5q-7 19 -7 46z" />
    <glyph glyph-name="Scedilla" unicode="&#x15e;" horiz-adv-x="623" 
d="M94 284q-40 -64 -40 -131q0 -73 53 -133q29 -34 73.5 -53t97.5 -19t95 20q84 41 84 134q0 35 -23.5 74t-70.5 70l-170 114q-99 62 -99 160q0 10 1 20q6 77 61.5 125.5t148.5 48.5q57 0 138 -10h62l-13 -147h-9q-1 52 -40 83.5t-103 31.5q-78 0 -113 -47q-17 -24 -17 -52
t17 -47.5t54 -42.5l187 -122q55 -35 87 -83q40 -60 40 -125q0 -88 -60 -156q-33 -38 -87 -64.5t-119 -31.5l-42 -48q15 5 34 5q48 0 68 -26q12 -14 12 -36q0 -53 -57 -79q-31 -14 -59 -14t-54 9l1 10q36 0 67 18.5t31 55.5q0 18 -15 29t-36 11t-41 -7l-5 10l47 61
q-85 4 -147 43q-106 68 -106 186q0 88 58 162z" />
    <glyph glyph-name="scedilla" unicode="&#x15f;" horiz-adv-x="578" 
d="M50 93q0 72 31 123h9q-1 -8 -1 -16q0 -69 49.5 -120.5t135.5 -51.5q67 0 104.5 32t37.5 81q0 59 -80 103l-174 115q-52 30 -74.5 72.5t-22.5 86.5q0 94 59.5 145t152.5 51q55 0 136 -10h63l-13 -147h-10q0 52 -38.5 83.5t-102.5 31.5q-78 0 -113 -48q-18 -23 -18 -52
q0 -48 70 -89l191 -124q90 -52 90 -153q0 -99 -63 -155t-168 -64l-42 -48q15 5 34 5q48 0 68 -26q12 -14 12 -36q0 -53 -57 -79q-31 -14 -59 -14t-54 9l1 10q36 0 67 18.5t31 55.5q0 18 -15 29t-36 11t-41 -7l-5 10l47 61q-64 2 -116.5 18.5t-78.5 42.5q-7 19 -7 46z" />
    <glyph glyph-name="Scaron" unicode="&#x160;" horiz-adv-x="623" 
d="M323 764h-11l-147 153l6 8l147 -65l137 65l7 -8zM94 284q-40 -63 -40 -128q0 -85 61 -145q64 -63 162 -63q54 0 96 20q84 41 84 134q0 35 -23.5 74t-70.5 70l-170 114q-99 62 -99 160q0 10 1 20q6 77 61.5 125.5t148.5 48.5q57 0 138 -10h62l-13 -147h-9q-1 52 -40 83.5
t-99.5 31.5t-97 -28t-36.5 -74q0 -25 17 -44.5t54 -42.5l187 -122q57 -37 89 -87q38 -59 38 -121q0 -40 -16.5 -84.5t-54 -82.5t-96.5 -62t-130.5 -24t-129.5 25q-107 45 -136 157q-6 24 -6 50q0 84 59 159z" />
    <glyph glyph-name="scaron" unicode="&#x161;" horiz-adv-x="578" 
d="M298 764h-12l-147 153l7 8l146 -65l137 65l7 -8zM50 93q0 72 31 123h9q-1 -8 -1 -16q0 -69 49.5 -120.5t135.5 -51.5q67 0 104.5 32t37.5 81q0 59 -80 103l-174 115q-52 30 -74.5 72.5t-22.5 86.5q0 94 59.5 145t152.5 51q55 0 136 -10h63l-13 -147h-10q0 52 -38.5 83.5
t-102.5 31.5q-78 0 -113 -48q-18 -23 -18 -52q0 -48 70 -89l191 -124q90 -52 90 -153q0 -107 -72.5 -163.5t-192.5 -56.5q-68 0 -125.5 16.5t-84.5 44.5q-7 19 -7 46z" />
    <glyph glyph-name="Tcedilla" unicode="&#x162;" horiz-adv-x="698" 
d="M-26 467q-49 47 -49 101q0 42 27 73q51 60 143 60h471q31 0 67.5 6t51.5 12v-174h-10v12q0 62 -47 88q-23 13 -53 14h-135v-587q1 -26 19.5 -44t44.5 -18h13v-10h-133l-42 -48q32 11 61 3q53 -14 53 -63.5t-57 -75.5q-31 -14 -59 -14t-54 9l1 10q36 0 67 18.5t31 55.5
q0 18 -15 29t-36 11t-41 -7l-5 10l48 62h-123v10h13q26 0 44.5 18t19.5 43v588h-195q-41 0 -72 -15q-63 -30 -63 -94q0 -38 24 -78z" />
    <glyph glyph-name="tcedilla" unicode="&#x163;" horiz-adv-x="666" 
d="M330 -104q0 18 -15 29t-36 11t-41 -7l-5 10l47 61h-98v10h13q25 0 43.5 18t20.5 43v588h-135q-46 -1 -73 -29t-27 -73v-12h-10v174q15 -6 51 -12t67 -6h403q31 0 67.5 6t50.5 12v-174h-10v12q0 62 -47 88q-22 13 -53 14h-134v-587q1 -26 19.5 -44t44.5 -18h12l1 -10h-158
l-41 -47q15 5 34 5q48 0 68 -26q12 -14 12 -36q0 -53 -57 -79q-31 -14 -59 -14t-54 9l1 10q36 0 67 18.5t31 55.5z" />
    <glyph glyph-name="Tcaron" unicode="&#x164;" horiz-adv-x="698" 
d="M372 739h-12l-147 153l7 8l147 -65l136 65l7 -8zM-26 467q-49 47 -49 101q0 42 27 73q51 60 143 60h471q31 0 67.5 6t51.5 12v-174h-10v12q0 62 -47 88q-23 13 -53 14h-135v-587q1 -26 19.5 -44t44.5 -18h13v-10h-304v10h13q26 0 44.5 18t19.5 43v588h-195q-41 0 -72 -15
q-63 -30 -63 -94q0 -38 24 -78z" />
    <glyph glyph-name="tcaron" unicode="&#x165;" horiz-adv-x="666" 
d="M340 764h-11l-148 153l7 8l147 -65l137 65l6 -8zM409 659v-587q1 -26 19.5 -44t44.5 -18h12l1 -10h-304v10h13q25 0 43.5 18t20.5 43v588h-135q-46 -1 -73 -29t-27 -73v-12h-10v174q14 -6 50.5 -12t67.5 -6h403q31 0 67.5 6t50.5 12v-174h-10v12q0 62 -47 88
q-22 13 -53 14h-134z" />
    <glyph glyph-name="Tbar" unicode="&#x166;" horiz-adv-x="698" 
d="M-26 467q-49 47 -49 102q0 41 26 72q51 60 144 60h471q44 1 77 7.5t42 10.5v-174h-10v12q0 45 -27 73t-73 29h-135v-269h155v-39h-155v-279q2 -36 33 -54q14 -8 31 -8h13v-10h-304v10h13q26 0 44.5 18t19.5 43v280h-154v39h154v269h-195q-41 0 -72 -15q-63 -30 -63 -94
q0 -38 24 -78z" />
    <glyph glyph-name="tbar" unicode="&#x167;" horiz-adv-x="666" 
d="M409 659v-257h155v-42h-155v-288q1 -26 19.5 -44t44.5 -18h12l1 -10h-304v10h13q25 0 43.5 18t20.5 43v289h-155v42h155v257h-135q-46 -1 -73 -29t-27 -73v-12h-10v174q14 -6 50.5 -12t67.5 -6h403q49 1 80 8t38 10v-174h-10v12q0 45 -27 73t-73 29h-134z" />
    <glyph glyph-name="Umacron" unicode="&#x16a;" horiz-adv-x="824" 
d="M910 903q13 0 27 -1v-10q-118 -9 -170 -112q-34 -67 -34 -170v-357q-2 -126 -81 -196.5t-225.5 -70.5t-233.5 72.5t-86 193.5v389q0 21 -15.5 35t-37.5 14h-16v10h288v-10h-16q-31 0 -46 -24q-7 -11 -7 -24v-382q0 -106 55 -168t145 -62h1h1q89 0 146 58t57 159v363
q0 135 71.5 214t176.5 79zM335 795v66h274v-66h-274z" />
    <glyph glyph-name="umacron" unicode="&#x16b;" horiz-adv-x="821" 
d="M317 795v66h274v-66h-274zM790 690h-17q-21 0 -36.5 -13.5t-15.5 -33.5v-390q0 -123 -77 -195t-211 -72q-158 0 -242 70.5t-84 195.5v388q-1 30 -27 44q-12 6 -26 6h-16v10h288v-10h-16q-22 0 -37 -13.5t-16 -34.5v-382q0 -106 52 -168t143 -62t144 58.5t54 158.5v395
q0 21 -15.5 34.5t-37.5 13.5h-16v10h209v-10z" />
    <glyph glyph-name="Uring" unicode="&#x16e;" horiz-adv-x="824" 
d="M391 907q31 24 78 24t77.5 -23t30.5 -59.5t-31 -60.5t-77.5 -24t-77.5 23.5t-31 59.5t31 60zM910 903q13 0 27 -1v-10q-98 -8 -151 -81t-53 -201v-357q-2 -126 -81 -196.5t-225.5 -70.5t-233.5 72.5t-86 193.5v389q0 21 -15.5 35t-37.5 14h-16v10h288v-10h-16
q-22 0 -37 -14t-16 -34v-382q0 -106 55 -168t145 -62h1h1q89 0 146 58t57 159v363q0 135 71.5 214t176.5 79zM504.5 889.5q-14.5 16.5 -36 16.5t-36 -16.5t-14.5 -42.5t14.5 -42t36 -16t36 16t14.5 42t-14.5 42.5z" />
    <glyph glyph-name="uring" unicode="&#x16f;" horiz-adv-x="821" 
d="M373 907q31 24 78 24t77.5 -23t30.5 -59.5t-31 -60.5t-77.5 -24t-77.5 23.5t-31 59.5t31 60zM486.5 889.5q-14.5 16.5 -36 16.5t-36 -16.5t-14.5 -38t6.5 -35t18 -20.5t26 -7t25.5 7q25 16 25 46.5t-14.5 47zM790 690h-17q-30 0 -45 -23q-7 -11 -7 -24v-390
q0 -123 -77 -195t-211 -72q-158 0 -242 70.5t-84 195.5v388q0 22 -15.5 36t-37.5 14h-16v10h288v-10h-16q-22 0 -37 -13.5t-16 -34.5v-382q0 -106 52 -168t143 -62t144 58.5t54 158.5v395q0 21 -15.5 34.5t-37.5 13.5h-16v10h209v-10z" />
    <glyph glyph-name="Uhungarumlaut" unicode="&#x170;" horiz-adv-x="824" 
d="M371 766l-8 5q27 61 120 164q51 -18 76 -66q-89 -69 -188 -103zM547 766l-9 5q28 65 120 164q52 -17 76 -66q-90 -70 -187 -103zM911 903q13 0 26 -1v-10q-98 -8 -151 -81t-53 -201v-357q-2 -171 -140 -235q-68 -32 -163 -32q-150 0 -237 72.5t-86 193.5v389
q0 21 -15.5 35t-37.5 14h-16v10h288v-10h-16q-31 0 -46 -24q-6 -11 -7 -24v-382q0 -106 55 -168t145 -62h1h1q89 0 145 57q58 58 58 160v363q0 88 33.5 156.5t91.5 102.5t124 34z" />
    <glyph glyph-name="uhungarumlaut" unicode="&#x171;" horiz-adv-x="821" 
d="M353 766l-9 5q27 61 121 164q51 -18 75 -66q-88 -69 -187 -103zM529 766l-9 5q28 65 120 164q52 -17 76 -66q-90 -70 -187 -103zM790 690h-16q-22 0 -37.5 -13.5t-15.5 -33.5v-390q0 -123 -77 -195t-211 -72q-158 0 -242 70.5t-84 195.5v388q-1 30 -27 44q-12 6 -26 6
h-16v10h288v-10h-16q-22 0 -37 -13.5t-16 -34.5v-382q0 -106 52 -168t142 -62q92 0 145 58.5t54 158.5v395q0 21 -15.5 34.5t-37.5 13.5h-16v10h209v-10z" />
    <glyph glyph-name="Uogonek" unicode="&#x172;" horiz-adv-x="824" 
d="M910 903q13 0 27 -1v-10q-98 -7 -151 -80.5t-53 -201.5v-357q-1 -115 -67.5 -184t-188.5 -81q-67 -16 -67 -72q0 -50 41 -66q12 -4 30.5 -4t44.5 22l6 -6q-5 -33 -28 -53q-24 -21 -53 -21q-69 0 -98 46q-14 24 -14 53q0 42 23.5 66t55.5 33q-145 3 -228.5 75t-82.5 191
v389q0 21 -15.5 35t-37.5 14h-16v10h288v-10h-16q-31 0 -46 -24q-7 -11 -7 -24v-382q0 -106 55 -168t145 -62h1h1q89 0 146 58t57 159v363q0 135 71.5 214t176.5 79z" />
    <glyph glyph-name="uogonek" unicode="&#x173;" horiz-adv-x="821" 
d="M790 690h-17q-34 0 -48 -28q-4 -9 -4 -19v-390q0 -115 -67 -185.5t-186 -80.5q-64 -16 -64 -71q0 -50 41 -66q12 -4 30.5 -4t44.5 22l6 -6q-5 -33 -28 -53q-41 -36 -107 -12q-27 10 -42.5 35.5t-15.5 54.5q0 42 23.5 66t56.5 33q-149 5 -227.5 75t-78.5 191v388
q0 22 -15.5 36t-37.5 14h-16v10h288v-10h-16q-22 0 -37 -13.5t-16 -34.5v-382q0 -106 52 -168t143 -62t144 58.5t54 158.5v395q0 21 -15.5 34.5t-37.5 13.5h-16v10h209v-10z" />
    <glyph glyph-name="Wcircumflex" unicode="&#x174;" horiz-adv-x="960" 
d="M1079 934q46 12 75 12t46 -2v-10q-131 -7 -210 -120q-41 -58 -66 -135l-188 -586q-17 -55 -17 -102v-9h-10l-217 482l-178 -423q-27 -66 -79 -128q-56 -66 -136 -87q-19 -6 -40 -6t-45 7l1 10q99 5 182 123q39 55 66 120l-203 552q-13 29 -37 43.5t-49 14.5h-8v10h305
v-10h-9q-21 0 -31.5 -13.5t-10.5 -25.5t4 -23l123 -347l181 435l9 -1l199 -439l115 403q25 87 79 154q63 79 149 101zM527 915h11l153 -153l-7 -8l-152 65l-143 -65l-6 8z" />
    <glyph glyph-name="wcircumflex" unicode="&#x175;" horiz-adv-x="971" 
d="M523 919h11l153 -153l-7 -8l-152 65l-143 -65l-7 8zM1000 690h-9q-25 0 -50.5 -15t-36.5 -43l-168 -539q-17 -55 -17 -102v-9h-10l-218 483l-158 -372q-23 -58 -24 -111h-10l-239 650q-17 39 -55 52q-15 6 -31 6h-8v10h305v-10h-9q-21 0 -31.5 -13.5t-10.5 -25.5t4 -24
l123 -347l181 436l9 -1l199 -439l100 352q3 11 3 23t-9.5 25.5t-31.5 13.5h-9v10h211v-10z" />
    <glyph glyph-name="Ycircumflex" unicode="&#x176;" horiz-adv-x="667" 
d="M345 915h11l154 -153l-7 -8l-153 65l-142 -65l-7 8zM-67 758q16 1 50.5 1t91 -14.5t104.5 -45.5t88 -75q74 -82 116 -197q60 171 156 262q73 69 161 69h8v-10q-50 -1 -103.5 -52.5t-93.5 -124.5t-67.5 -152t-32.5 -137v-209q0 -25 18.5 -44t45.5 -19h13v-10h-304v10h13
q26 0 44.5 18.5t19.5 44.5v210q-12 108 -72 229q-69 140 -155 199q-50 35 -101 37v10z" />
    <glyph glyph-name="ycircumflex" unicode="&#x177;" horiz-adv-x="702" 
d="M393 915h11l153 -153l-7 -8l-152 65l-143 -65l-7 8zM496 700h238v-10h-14q-30 0 -57 -17t-43 -41l-197 -314v-245q0 -37 32 -55q15 -8 32 -8h12l1 -10h-304v10h13q26 0 44.5 18t19.5 44v247l-191 314q-15 24 -42.5 40.5t-56.5 16.5h-14v10h331v-10h-13q-22 0 -34 -20
q-6 -11 -6 -21.5t5 -20.5l143 -260l148 260q6 10 6 20.5t-7 20.5q-12 21 -34 21h-12v10z" />
    <glyph glyph-name="Ydieresis" unicode="&#x178;" horiz-adv-x="667" 
d="M233 759q-25 0 -42.5 17.5t-17.5 42.5t17.5 42.5t42.5 17.5t42.5 -17.5t17.5 -42.5t-17.5 -42.5t-42.5 -17.5zM466 759q-25 0 -42.5 17.5t-17.5 42.5t17.5 42.5t42.5 17.5t42.5 -17.5t17.5 -42.5t-17.5 -42.5t-42.5 -17.5zM-67 758q16 1 50.5 1t91 -14.5t104.5 -45.5
t88 -75q74 -82 116 -197q60 171 156 262q73 69 161 69h8v-10q-34 -1 -70 -25t-67 -63t-59.5 -88.5t-49.5 -101.5q-45 -110 -51 -188v-209q0 -25 18.5 -44t45.5 -19h13v-10h-304v10h13q26 0 44.5 18.5t19.5 44.5v210q-12 108 -72 229q-69 140 -155 199q-50 35 -101 37v10z
" />
    <glyph glyph-name="Zacute" unicode="&#x179;" horiz-adv-x="649" 
d="M320 762l-7 7q43 74 144 164q49 -25 68 -81q-103 -65 -205 -90zM969.5 -187q-47.5 -28 -90.5 -36t-70 -8t-61.5 2t-88.5 16.5t-112 34.5t-111 44t-108 47.5t-102 42.5q-104 43 -174 44h-7v9l367 650h-242q-46 -1 -73.5 -28.5t-27.5 -73.5v-12h-10v174q15 -6 52.5 -12
t53 -6h15.5h319q42 0 71 5t34 8v-9l-390 -697l30 -7q35 -9 107.5 -28.5t104 -28t92 -23.5t90 -21t80 -16t78.5 -12q78 -5 99.5 -5t42.5 2q66 8 111 26l7 -7q-39 -47 -86.5 -75z" />
    <glyph glyph-name="zacute" unicode="&#x17a;" horiz-adv-x="660" 
d="M320 762l-7 7q43 74 144 164q49 -25 68 -81q-103 -65 -205 -90zM59 719q15 -6 52.5 -12t53 -6h15.5h319q42 0 71 5t34 8v-9l-370 -663h210q64 0 111.5 43t67.5 116h10l-36 -201h-552v9l367 650h-242q-46 -1 -73.5 -28.5t-27.5 -73.5v-12h-10v174z" />
    <glyph glyph-name="Zdotaccent" unicode="&#x17b;" horiz-adv-x="649" 
d="M330.5 764q-25.5 0 -44 18t-18.5 43.5t18.5 44t44 18.5t43.5 -18.5t18 -44t-18 -43.5t-43.5 -18zM969.5 -187q-47.5 -28 -90.5 -36t-70 -8t-61.5 2t-88.5 16.5t-112 34.5t-111 44t-108 47.5t-102 42.5q-104 43 -174 44h-7v9l367 650h-242q-46 -1 -73.5 -28.5t-27.5 -73.5
v-12h-10v174q15 -6 52.5 -12t53 -6h15.5h319q42 0 71 5t34 8v-9l-390 -697l30 -7q35 -10 107.5 -29t104 -27.5t92 -23.5t90 -21t80 -16t78.5 -12q78 -5 99.5 -5t42.5 2q66 8 111 26l7 -7q-39 -47 -86.5 -75z" />
    <glyph glyph-name="zdotaccent" unicode="&#x17c;" horiz-adv-x="660" 
d="M330.5 764q-25.5 0 -44 18t-18.5 43.5t18.5 44t44 18.5t43.5 -18.5t18 -44t-18 -43.5t-43.5 -18zM59 719q15 -6 52.5 -12t53 -6h15.5h319q49 0 75 5.5t30 7.5v-9l-370 -663h210q64 0 111.5 43t67.5 116h10l-36 -201h-552v9l367 650h-242q-46 -1 -73.5 -28.5t-27.5 -73.5
v-12h-10v174z" />
    <glyph glyph-name="Zcaron" unicode="&#x17d;" horiz-adv-x="649" 
d="M337 764h-11l-148 153l7 8l147 -65l136 65l7 -8zM969.5 -187q-47.5 -28 -90.5 -36t-70 -8t-61.5 2t-88.5 16.5t-112 34.5t-111 44t-108 47.5t-102 42.5q-104 43 -174 44h-7v9l367 650h-242q-46 -1 -73.5 -28.5t-27.5 -73.5v-12h-10v174q15 -6 52.5 -12t53 -6h15.5h319
q42 0 71 5t34 8v-9l-390 -697l30 -7q35 -9 107.5 -28.5t104 -28t92 -23.5t90 -21t80 -16t78.5 -12q78 -5 99.5 -5t42.5 2q66 8 111 26l7 -7q-39 -47 -86.5 -75z" />
    <glyph glyph-name="zcaron" unicode="&#x17e;" horiz-adv-x="660" 
d="M337 764h-11l-148 153l7 8l147 -65l136 65l7 -8zM59 719q15 -6 52.5 -12t53 -6h15.5h319q29 0 63 4t42 9v-9l-371 -663h210q65 0 112.5 43t67.5 116h10l-36 -201h-552v9l367 650h-242q-46 -1 -73.5 -28.5t-27.5 -73.5v-12h-10v174z" />
    <glyph glyph-name="florin" unicode="&#x192;" horiz-adv-x="544" 
d="M503 455h-9v9q0 60 -43 84q-21 11 -50 12h-131v-243h103q35 1 56 23t21 56v7l9 1v-213l-9 1v6q0 34 -21 56t-55 23h-104v-228q0 -60 -21.5 -105t-57.5 -71q-73 -51 -171 -51v10q101 50 101 198v508q0 23 -15.5 38t-36.5 15h-12v9h345q26 0 57 5t44 10v-160z" />
    <glyph glyph-name="Scommaaccent" unicode="&#x218;" horiz-adv-x="623" 
d="M94 284q-40 -64 -40 -131q0 -73 53 -133q29 -34 73.5 -53t97.5 -19t95 20q84 41 84 134q0 35 -23.5 74t-70.5 70l-170 114q-99 62 -99 160q0 10 1 20q6 77 61.5 125.5t148.5 48.5q57 0 138 -10h62l-13 -147h-9q-1 52 -40 83.5t-103 31.5q-78 0 -113 -47q-17 -24 -17 -52
t17 -47.5t54 -42.5l187 -122q57 -37 89 -87q38 -59 38 -121q0 -40 -16.5 -84.5t-54 -82.5t-96.5 -62t-130.5 -24t-129.5 25q-107 45 -136 157q-6 24 -6 50q0 84 59 159zM259 -334q34 12 34 46q0 18 -16 37.5t-16 41.5t13 36t26 14q45 0 60 -35q10 -21 10 -35t-2.5 -31.5
t-17 -39.5t-36 -32.5t-34 -10.5t-19.5 1z" />
    <glyph glyph-name="scommaaccent" unicode="&#x219;" horiz-adv-x="578" 
d="M50 93q0 72 31 123h9q-1 -8 -1 -16q0 -69 49.5 -120.5t135.5 -51.5q67 0 104.5 32t37.5 81q0 59 -80 103l-174 115q-52 30 -74.5 72.5t-22.5 86.5q0 94 59.5 145t152.5 51q55 0 136 -10h63l-13 -147h-10q0 52 -38.5 83.5t-102.5 31.5q-78 0 -113 -48q-18 -23 -18 -52
q0 -48 70 -89l191 -124q90 -52 90 -153q0 -107 -72.5 -163.5t-192.5 -56.5q-68 0 -125.5 16.5t-84.5 44.5q-7 19 -7 46zM234 -244q34 12 34 45q0 19 -16 38.5t-16 41.5t13 35.5t26 13.5q45 0 60 -34q9 -24 9 -42q0 -57 -42 -89q-25 -18 -53 -18q-6 0 -12 1z" />
    <glyph glyph-name="uni021A" unicode="&#x21a;" horiz-adv-x="698" 
d="M-26 467q-49 47 -49 101q0 42 27 73q51 60 143 60h471q31 0 67.5 6t51.5 12v-174h-10v12q0 45 -27 73t-73 29h-135v-587q2 -36 33 -54q14 -8 31 -8h13v-10h-304v10h13q26 0 44.5 18t19.5 43v588h-195q-41 0 -72 -15q-63 -30 -63 -94q0 -38 24 -78zM314 -175q34 12 34 45
q0 19 -16 38.5t-16 41.5t13 36t26 14q45 0 60 -35q9 -24 9 -42q0 -57 -42 -89q-25 -18 -53 -18q-6 0 -12 1z" />
    <glyph glyph-name="uni021B" unicode="&#x21b;" horiz-adv-x="666" 
d="M409 659v-587q1 -26 19.5 -44t44.5 -18h12l1 -10h-304v10h13q25 0 43.5 18t20.5 43v588h-135q-46 -1 -73 -29t-27 -73v-12h-10v174q14 -6 50.5 -12t67.5 -6h403q49 1 80 8t38 10v-174h-10v12q0 45 -27 73t-73 29h-134zM283 -239q34 12 34 45q0 19 -16.5 38.5t-16.5 41.5
t13.5 36t25.5 14q45 0 61 -35q8 -24 8 -42q0 -57 -42 -89q-24 -18 -52 -18q-7 0 -13 1z" />
    <glyph glyph-name="circumflex" unicode="&#x2c6;" 
d="M271 849h11l153 -154l-6 -8l-153 65l-143 -65l-6 8z" />
    <glyph glyph-name="caron" unicode="&#x2c7;" 
d="M291 693h-11l-148 154l7 8l147 -65l137 65l6 -8z" />
    <glyph glyph-name="breve" unicode="&#x2d8;" horiz-adv-x="537" 
d="M347 846q0 -43 -35 -81.5t-92 -38.5t-92 38.5t-35 81.5q0 10 2 20h12q10 -25 42 -42.5t71 -17.5t71 17.5t43 42.5h11q2 -10 2 -20z" />
    <glyph glyph-name="dotaccent" unicode="&#x2d9;" 
d="M296.5 679q-25.5 0 -43.5 18t-18 43.5t18 44t43.5 18.5t43.5 -18.5t18 -44t-18 -43.5t-43.5 -18z" />
    <glyph glyph-name="ring" unicode="&#x2da;" 
d="M223 842q31 24 70 24t63.5 -10.5t38.5 -29.5t14 -49t-31 -54.5t-77.5 -24.5t-77.5 24t-31 60t31 60zM336.5 824.5q-14.5 16.5 -36 16.5t-36 -16.5t-14.5 -38t7 -34.5q14 -28 39.5 -28t40 16t14.5 42t-14.5 42.5z" />
    <glyph glyph-name="ogonek" unicode="&#x2db;" 
d="M352 -187h-17t-39.5 9.5t-41.5 35t-16 54.5q0 40 22 64q38 41 98 41q5 0 10 -1l10 -2q-69 -17 -69 -73q0 -50 41 -66q12 -4 30.5 -4t44.5 22l6 -6q-5 -33 -27.5 -53t-51.5 -21z" />
    <glyph glyph-name="tilde" unicode="&#x2dc;" 
d="M441 791h11q3 -11 3 -22q0 -30 -20 -62q-27 -41 -79 -41q-35 0 -74 22q-15 9 -34.5 17.5t-30.5 9.5t-23.5 1t-32 -13.5t-28.5 -33.5h-11q-1 7 -1 15q0 38 23.5 77t73.5 39q28 0 76.5 -24.5t86.5 -24.5q13 0 33 11.5t27 28.5z" />
    <glyph glyph-name="hungarumlaut" unicode="&#x2dd;" 
d="M169 746l-9 5q27 61 120 164q52 -17 76 -65q-88 -69 -187 -104zM344 746l-8 5q27 66 120 164q51 -17 75 -65q-90 -71 -187 -104z" />
    <glyph glyph-name="commaaccentcomb" unicode="&#x326;" horiz-adv-x="0" 
d="M33 -175q34 12 34 45q0 19 -16.5 38.5t-16.5 41.5t13.5 36t25.5 14q45 0 60 -35q9 -24 9 -42q0 -57 -42 -89q-24 -18 -52 -18q-7 0 -13 1z" />
    <glyph glyph-name="Delta" unicode="&#x394;" horiz-adv-x="652" 
d="M647 0h-642v10l316 704h10l316 -704v-10zM522 42l-225 521l-230 -521h455z" />
    <glyph glyph-name="Omega" unicode="&#x3a9;" horiz-adv-x="851" 
d="M463 132q85 35 139.5 106.5t54.5 178.5t-65.5 181t-164.5 74t-166 -75.5t-67 -182t53 -177.5t138 -105l-12 -132h-292l-48 213h10q19 -34 33 -51q30 -34 84 -34h164q-128 19 -206.5 100t-78.5 188q0 83 50 151.5t139.5 107.5t198 39t197 -39.5t138.5 -109t50 -153.5
q0 -103 -82.5 -186t-205.5 -98h167q43 0 66 17.5t51 67.5h10l-48 -213h-295z" />
    <glyph glyph-name="mu" unicode="&#x3bc;" horiz-adv-x="953" 
d="M947 10h16v-10h-300v9h15q17 0 29 13.5t10 29.5l-39 363l-188 -324q-37 -62 -38 -111h-10l-257 432l-39 -360q-2 -16 10 -29.5t29 -13.5h15v-9h-209v10h16q28 0 48.5 17t24.5 46l83 641h9l310 -510l298 510h9l85 -641q5 -29 25.5 -46t47.5 -17z" />
    <glyph glyph-name="pi" unicode="&#x3c0;" horiz-adv-x="751" 
d="M445 10q23 0 39 16t16 38v440q0 31 -27 47q-12 7 -26 7h-141q-22 0 -37.5 -15.5t-16.5 -37.5v-442q1 -22 17 -37.5t38 -15.5h11v-10h-281v10h11q22 0 38.5 16t16.5 38v472q-1 31 -28 47q-12 7 -27 7h-11v10h679v-10h-11q-23 0 -38.5 -15.5t-17.5 -37.5v-474q1 -31 28 -46
q13 -7 28 -7h11v-10h-282v10h11z" />
    <glyph glyph-name="Wgrave" unicode="&#x1e80;" horiz-adv-x="960" 
d="M1079 934q46 12 75 12t46 -2v-10q-131 -7 -210 -120q-41 -58 -66 -135l-188 -586q-17 -55 -17 -102v-9h-10l-217 482l-178 -423q-27 -66 -79 -128q-56 -66 -136 -87q-19 -6 -40 -6t-45 7l1 10q99 5 182 123q39 55 66 120l-203 552q-13 29 -37 43.5t-49 14.5h-8v10h305
v-10h-9q-21 0 -31.5 -13.5t-10.5 -25.5t4 -23l123 -347l181 435l9 -1l199 -439l115 403q25 87 79 154q63 79 149 101zM552 771l-7 -7q-100 24 -204 90q19 57 67 81q102 -91 144 -164z" />
    <glyph glyph-name="wgrave" unicode="&#x1e81;" horiz-adv-x="971" 
d="M548 775l-7 -7q-100 23 -204 90q19 56 67 81q102 -91 144 -164zM1000 690h-9q-25 0 -50.5 -15t-36.5 -43l-168 -539q-17 -55 -17 -102v-9h-10l-218 483l-158 -372q-23 -58 -24 -111h-10l-239 650q-13 29 -37 43.5t-49 14.5h-8v10h305v-10h-9q-21 0 -31.5 -13.5
t-10.5 -25.5t4 -24l123 -347l181 436l9 -1l199 -439l100 352q12 44 -19 58q-8 4 -19 4h-9v10h211v-10z" />
    <glyph glyph-name="Wacute" unicode="&#x1e82;" horiz-adv-x="960" 
d="M1079 934q46 12 75 12t46 -2v-10q-131 -7 -210 -120q-41 -58 -66 -135l-188 -586q-17 -55 -17 -102v-9h-10l-217 482l-178 -423q-27 -66 -79 -128q-56 -66 -136 -87q-19 -6 -40 -6t-45 7l1 10q99 5 182 123q39 55 66 120l-203 552q-13 29 -37 43.5t-49 14.5h-8v10h305
v-10h-9q-21 0 -31.5 -13.5t-10.5 -25.5t4 -23l123 -347l181 435l9 -1l199 -439l115 403q25 87 79 154q63 79 149 101zM523 762l-7 7q43 74 144 164q48 -25 67 -81q-102 -65 -204 -90z" />
    <glyph glyph-name="wacute" unicode="&#x1e83;" horiz-adv-x="971" 
d="M519 766l-7 7q43 74 144 164q48 -25 67 -81q-102 -65 -204 -90zM1000 690h-9q-25 0 -50.5 -15t-36.5 -43l-168 -539q-17 -55 -17 -102v-9h-10l-218 483l-158 -372q-23 -58 -24 -111h-10l-239 650q-13 29 -37 43.5t-49 14.5h-8v10h305v-10h-9q-21 0 -31.5 -13.5
t-10.5 -25.5t4 -23l123 -347l181 435l9 -1l199 -439l100 352q12 44 -19 58q-8 4 -19 4h-9v10h211v-10z" />
    <glyph glyph-name="Wdieresis" unicode="&#x1e84;" horiz-adv-x="960" 
d="M1079 934q46 12 75 12t46 -2v-10q-131 -7 -210 -120q-41 -58 -66 -135l-188 -586q-17 -55 -17 -102v-9h-10l-217 482l-178 -423q-27 -66 -79 -128q-56 -66 -136 -87q-19 -6 -40 -6t-45 7l1 10q99 5 182 123q39 55 66 120l-203 552q-13 29 -37 43.5t-49 14.5h-8v10h305
v-10h-9q-21 0 -31.5 -13.5t-10.5 -25.5t4 -23l123 -347l181 435l9 -1l199 -439l115 403q25 87 79 154q63 79 149 101zM414 759q-25 0 -42.5 17.5t-17.5 42.5t17.5 42.5t42.5 17.5t42.5 -17.5t17.5 -42.5t-17.5 -42.5t-42.5 -17.5zM648 759q-25 0 -42.5 17.5t-17.5 42.5
t17.5 42.5t42.5 17.5t42.5 -17.5t17.5 -42.5t-17.5 -42.5t-42.5 -17.5z" />
    <glyph glyph-name="wdieresis" unicode="&#x1e85;" horiz-adv-x="971" 
d="M410 763q-25 0 -42.5 17.5t-17.5 42.5t17.5 42.5t42.5 17.5t42.5 -17.5t17.5 -42.5t-17.5 -42.5t-42.5 -17.5zM644 763q-25 0 -42.5 17.5t-17.5 42.5t17.5 42.5t42.5 17.5t42.5 -17.5t17.5 -42.5t-17.5 -42.5t-42.5 -17.5zM1000 690h-9q-25 0 -50.5 -15t-36.5 -43
l-168 -539q-17 -55 -17 -102v-9h-10l-218 483l-158 -372q-23 -58 -24 -111h-10l-239 650q-13 29 -37 43.5t-49 14.5h-8v10h305v-10h-9q-21 0 -31.5 -13.5t-10.5 -25.5t4 -23l123 -348l181 436l9 -1l199 -439l100 352q12 44 -19 58q-8 4 -19 4h-9v10h211v-10z" />
    <glyph glyph-name="Ygrave" unicode="&#x1ef2;" horiz-adv-x="667" 
d="M371 771l-7 -7q-101 24 -205 90q19 57 68 81q101 -91 144 -164zM-67 758q16 1 50.5 1t91 -14.5t104.5 -45.5t88 -75q74 -82 116 -197q60 171 156 262q73 69 161 69h8v-10q-50 -1 -103.5 -52.5t-93.5 -124.5t-67.5 -152t-32.5 -137v-209q0 -25 18.5 -44t45.5 -19h13v-10
h-304v10h13q26 0 44.5 18.5t19.5 44.5v210q-12 108 -72 229q-69 140 -155 199q-50 35 -101 37v10z" />
    <glyph glyph-name="ygrave" unicode="&#x1ef3;" horiz-adv-x="702" 
d="M418 771l-7 -7q-100 24 -204 90q19 57 67 81q102 -91 144 -164zM734 690h-14q-30 0 -57 -17t-43 -41l-197 -314v-245q0 -26 19 -44.5t45 -18.5h12l1 -10h-304v10h13q26 0 44.5 18t19.5 44v247l-191 314q-15 24 -42.5 40.5t-56.5 16.5h-14v10h331v-10h-13q-22 0 -34 -20
q-6 -11 -6 -21.5t5 -20.5l143 -260l148 260q15 31 -10 52q-11 10 -25 10h-12v10h238v-10z" />
    <glyph glyph-name="endash" unicode="&#x2013;" horiz-adv-x="500" 
d="M0 265v52h500v-52h-500z" />
    <glyph glyph-name="emdash" unicode="&#x2014;" horiz-adv-x="800" 
d="M0 265v52h800v-52h-800z" />
    <glyph glyph-name="quoteleft" unicode="&#x2018;" horiz-adv-x="245" 
d="M203 807q-50 -19 -50 -66q0 -28 24 -56t24 -61.5t-20 -54t-48 -20.5q-57 0 -80 51q-15 31 -15 52q0 60 25 98.5t57 54.5t51 16t28 -2z" />
    <glyph glyph-name="quoteright" unicode="&#x2019;" horiz-adv-x="236" 
d="M43 575q47 18 47 63q0 27 -23 53.5t-23 58.5t19 51.5t46 19.5q55 0 76 -48q14 -30 14 -50q0 -57 -24 -94q-43 -67 -112 -67q-9 0 -17 2z" />
    <glyph glyph-name="quotesinglbase" unicode="&#x201a;" horiz-adv-x="245" 
d="M43 -112q49 19 49 67q0 28 -24 56t-24 61.5t20.5 54t48.5 20.5q57 0 79 -51q15 -31 15 -52q0 -60 -25 -98.5t-57 -54.5t-51 -16t-28 1z" />
    <glyph glyph-name="quotedblleft" unicode="&#x201c;" horiz-adv-x="446" 
d="M403 807q-49 -19 -49 -66q0 -28 23.5 -56t23.5 -61.5t-20 -54t-48 -20.5q-57 0 -79 51q-15 31 -15 52q0 60 25 98.5t56.5 54.5t51 16t28.5 -2zM202 807q-50 -18 -50 -66q0 -28 24 -56t24 -61.5t-20 -54t-48 -20.5q-57 0 -80 51q-15 31 -15 52q0 60 25 98.5t57 54.5t51 16
t28 -2z" />
    <glyph glyph-name="quotedblright" unicode="&#x201d;" horiz-adv-x="433" 
d="M237 575q47 18 47 63q0 27 -22.5 53.5t-22.5 58.5t19 51.5t46 19.5q54 0 76 -48q14 -30 14 -50q0 -57 -24 -94q-43 -67 -113 -67q-8 0 -16 2zM43 575q47 18 47 63q0 27 -23 53.5t-23 58.5t19 51.5t46 19.5q55 0 76 -48q14 -30 14 -50q0 -57 -24 -94q-43 -67 -112 -67
q-9 0 -17 2z" />
    <glyph glyph-name="quotedblbase" unicode="&#x201e;" horiz-adv-x="444" 
d="M240 -118q51 19 51 68q0 28 -24.5 56.5t-24.5 63t20.5 55t49.5 20.5q58 0 81 -52q15 -32 15 -53q0 -61 -25.5 -100t-58 -55t-52 -16t-28.5 1zM43 -118q50 19 50 68q0 28 -24 56.5t-24 63t20 55t49 20.5q58 0 81 -52q15 -32 15 -53q0 -61 -25.5 -100t-57.5 -55t-51.5 -16
t-29.5 1z" />
    <glyph glyph-name="dagger" unicode="&#x2020;" horiz-adv-x="492" 
d="M466 438l-20 -67l-138 32l-57 31l31 -55l30 -224l-60 -335h-10l-61 335l31 224l30 55l-58 -31l-136 -32l-20 67l20 68l136 -32l58 -30l-30 54l-33 196l69 20l66 -20l-32 -196l-30 -54l56 30l138 32z" />
    <glyph glyph-name="daggerdbl" unicode="&#x2021;" horiz-adv-x="493" 
d="M446 163l21 -68l-21 -68l-136 33l-57 30l30 -54l33 -197l-69 -20l-67 20l32 197l31 54l-57 -30l-137 -33l-21 68l21 68l137 -33l57 -30l-31 54l-33 113l33 112l30 55l-58 -31l-136 -32l-20 67l20 68l136 -32l58 -30l-30 54l-33 196l69 20l66 -20l-32 -196l-30 -54l56 30
l138 32l20 -68l-20 -67l-138 32l-57 31l31 -55l33 -112l-32 -113l-31 -54l58 30z" />
    <glyph glyph-name="bullet" unicode="&#x2022;" horiz-adv-x="367" 
d="M184.5 197q-8.5 0 -17.5 3q-56 19 -71.5 34.5t-34.5 71.5q-3 9 -3 17.5t3 17.5q19 56 34.5 71.5t71.5 34.5q8 3 17 3t18 -3q55 -19 71 -34.5t34 -71.5q3 -8 3 -17.5t-3 -19.5q-18 -54 -34 -69.5t-71 -34.5q-9 -3 -17.5 -3zM228 279.5q8 7.5 13.5 23.5t5.5 20.5t-5.5 20.5
t-13.5 23.5t-24 13t-20 5.5t-20 -5.5t-24 -13t-13 -23.5t-5 -20.5t5 -20.5t13 -23.5t24 -13t20.5 -5.5t20 5.5t23.5 13z" />
    <glyph glyph-name="ellipsis" unicode="&#x2026;" horiz-adv-x="672" 
d="M111 -10q-30 0 -51 21t-21 51t21 51.5t51 21.5t51.5 -21.5t21.5 -51.5t-21.5 -51t-51.5 -21zM339 -10q-30 0 -51.5 21t-21.5 51t21.5 51.5t51.5 21.5t51 -21.5t21 -51.5t-21 -51t-51 -21zM562 -10q-30 0 -51 21t-21 51t21 51.5t51 21.5t51 -21.5t21 -51.5t-21 -51
t-51 -21z" />
    <glyph glyph-name="perthousand" unicode="&#x2030;" horiz-adv-x="1107" 
d="M343 648q15 -31 15 -61q0 -120 -66 -179q-52 -47 -127.5 -47t-110.5 48q-24 35 -24 89q0 110 67 170q51 46 129 46q38 0 68 -12t54 -25q29 -15 51 -15t41.5 4.5t33 11t34.5 17.5t26 14l33 -14l-373 -711l-37 16l350 662q-49 -29 -88 -29t-76 15zM132 474q0 -81 41 -81
q30 0 52 38.5t29.5 88.5t7.5 77q0 85 -42 85q-28 0 -49.5 -38.5t-30 -90.5t-8.5 -79zM440 294q51 45 124.5 45t108.5 -47q27 -37 27 -95q0 -106 -64 -164q-52 -47 -128.5 -47t-110.5 49q-25 34 -25 88q0 110 68 171zM807 294q51 45 124.5 45t108.5 -47q27 -37 27 -95
q0 -106 -64 -164q-52 -47 -128.5 -47t-110.5 49q-25 34 -25 88q0 110 68 171zM838 99q0 -81 40 -81q30 0 52.5 38t29.5 88t7 77q0 86 -41 86q-49 0 -74 -103q-14 -56 -14 -105zM471 99q0 -81 40 -81q30 0 52.5 38t29.5 88t7 77q0 86 -41 86q-28 0 -50 -38.5t-30 -90.5
t-8 -79z" />
    <glyph glyph-name="guilsinglleft" unicode="&#x2039;" horiz-adv-x="311" 
d="M160 292l100 -197l-9 -7q-90 117 -211 204q66 46 116 90t95 108l8 -5z" />
    <glyph glyph-name="guilsinglright" unicode="&#x203a;" horiz-adv-x="311" 
d="M153 292l-100 193l8 5q45 -64 95 -108t116 -90q-121 -87 -211 -203l-9 6z" />
    <glyph glyph-name="fraction" unicode="&#x2044;" horiz-adv-x="577" 
d="M498 719l38 -25l-478 -712l-38 26z" />
    <glyph glyph-name="Euro" unicode="&#x20ac;" horiz-adv-x="708" 
d="M584.5 2.5q-64.5 -15.5 -144 -15.5t-157 36.5t-128 100.5t-67.5 147h-116l15 43h95q-4 35 -1 70h-109l15 42h100q25 128 125.5 208t242.5 80q119 0 187 -32q24 -12 36 -27l-44 -132h-10q1 10 1 26t-7.5 39t-23.5 39t-39 27q-39 18 -90 18q-89 0 -147 -66t-73 -180h356
l-15 -42h-346v-33q0 -19 1 -37h321l-14 -43h-303q16 -113 75.5 -177.5t147 -64.5t134.5 39.5t68 121.5h9v-141q-30 -31 -94.5 -46.5z" />
    <glyph glyph-name="trademark" unicode="&#x2122;" horiz-adv-x="486" 
d="M193 651q0 34 -31 34h-33v-163q0 -11 6.5 -14.5t10.5 -3.5h4v-3h-94v3h3q7 0 12.5 5t5.5 13v163h-34q-14 0 -22 -8.5t-8 -22.5v-3h-3v55q13 -5 34 -5h118q21 0 33 5v-55h-2zM477 501h-94v3h5q4 0 7.5 3.5t3.5 8.5l-14 91l-49 -80q-11 -18 -11 -32h-3l-72 109l-9 -89
q0 -6 4 -8.5t7 -2.5h4v-3h-63v3h4q17 0 21 16l24 184h3l92 -136l84 136h2l29 -183q4 -17 20 -17h5v-3z" />
    <glyph glyph-name="partialdiff" unicode="&#x2202;" horiz-adv-x="615" 
d="M279 717q150 0 230 -123q62 -95 62 -230q0 -179 -82 -280q-80 -99 -227 -99q-48 0 -92 15q-83 29 -115 116q-14 37 -14 77q0 45 18.5 97t69.5 94.5t125 52.5q12 2 25 2q63 0 134 -42q-4 88 -31.5 149t-76.5 83q-42 21 -79 21q-94 0 -150 -67l-9 7q37 72 102 103
q50 24 110 24zM270 356q-48 -41 -67 -125q-6 -36 -6 -61q0 -78 31 -116q21 -26 50 -26q55 0 92 87t44 218v29q-45 16 -81 16t-63 -22z" />
    <glyph glyph-name="product" unicode="&#x220f;" horiz-adv-x="817" 
d="M505 -190q23 0 39 15.5t16 38.5v740q0 22 -15.5 38t-37.5 16h-195q-22 0 -37.5 -15.5t-16.5 -37.5v-742q1 -22 17 -37.5t38 -15.5h11v-10h-281v10h11q23 0 39 15.5t16 38.5v772q0 31 -28 47q-12 7 -27 7h-11v10h733v-10h-11q-23 0 -38.5 -15.5t-17.5 -37.5v-774
q1 -22 17 -37.5t39 -15.5h11v-10h-282v10h11z" />
    <glyph glyph-name="summation" unicode="&#x2211;" horiz-adv-x="636" 
d="M31 -181v11l272 410l-267 450v10h415q44 0 78 7t44 11v-174h-10v12q0 46 -27 73.5t-74 28.5h-241l197 -339l-245 -368h259q61 4 105.5 46.5t63.5 112.5h10l-36 -291h-544z" />
    <glyph glyph-name="minus" unicode="&#x2212;" horiz-adv-x="481" 
d="M40 281v57h402v-57h-402z" />
    <glyph glyph-name="radical" unicode="&#x221a;" horiz-adv-x="592" 
d="M24 387l-10 43l197 44l95 -330l230 699l45 -2l-320 -988l-168 548z" />
    <glyph glyph-name="infinity" unicode="&#x221e;" horiz-adv-x="617" 
d="M248.5 185q-41.5 -27 -91.5 -27t-86.5 39.5t-36.5 98.5t37.5 99.5t84.5 40.5q88 0 161 -92q31 39 72 65.5t88.5 26.5t84.5 -40.5t37 -100.5q0 -38 -16.5 -69t-46 -49.5t-70.5 -18.5t-82 27t-68 67q-26 -40 -67.5 -67zM112.5 238.5q21.5 -24.5 52 -24.5t62 24t55.5 59
q-63 83 -120 83q-28 0 -49.5 -24.5t-21.5 -58.5t21.5 -58.5zM471 214q29 0 50 24.5t21 52.5t-10 47q-21 42 -61 42q-56 0 -120 -83q56 -83 120 -83z" />
    <glyph glyph-name="integral" unicode="&#x222b;" horiz-adv-x="562" 
d="M217 575q5 97 57 157.5t142 60.5q76 0 112 -30q23 -19 23 -42t-17 -39q-18 -16 -38 -16q-40 0 -58 45q-6 15 -12.5 23t-19.5 8q-28 -1 -32.5 -79t-9.5 -174.5t-9 -167t-8 -135.5q-7 -135 -9 -160q-7 -102 -53 -156q-53 -62 -146 -62q-76 0 -110 31q-21 19 -21 40.5
t14 38.5q19 18 40 18q38 0 56 -46q7 -15 13.5 -23t17.5 -7.5t17 6.5q13 15 16 71z" />
    <glyph glyph-name="approxequal" unicode="&#x2248;" horiz-adv-x="481" 
d="M243 411.5q62 -29.5 72 -30.5t18.5 -1t26.5 7.5t27 14t29 23.5l38 -36q-1 -2 -10 -10.5t-18 -17.5q-46 -40 -91 -40q-32 0 -68.5 16.5t-64.5 29.5q-36 17 -56.5 17t-34 -8t-27.5 -22t-17 -16l-39 35q14 20 36 38q37 30 77 30t102 -29.5zM243 241.5q62 -29.5 72 -30.5
t18.5 -1t26.5 7.5t27 14t29 23.5l38 -36q-1 -2 -10 -11t-18 -17q-46 -40 -91 -40q-9 0 -29 3.5t-74.5 29.5t-69.5 28t-26 2q-22 0 -62 -40q-4 -4 -7 -6l-39 35q14 20 36 38q37 30 77 30t102 -29.5z" />
    <glyph glyph-name="notequal" unicode="&#x2260;" horiz-adv-x="481" 
d="M442 358h-129l-57 -118h186v-57h-213l-59 -122l-53 24l47 98h-124v57h152l57 118h-209v57h236l53 110l53 -24l-42 -86h102v-57z" />
    <glyph glyph-name="lessequal" unicode="&#x2264;" horiz-adv-x="493" 
d="M442 219v-62l-402 188v54l402 188v-62l-322 -153zM40 94h402v-57h-402v57z" />
    <glyph glyph-name="greaterequal" unicode="&#x2265;" horiz-adv-x="553" 
d="M40 587l402 -188v-54l-402 -188v62l322 153l-322 153v62zM40 37v57h402v-57h-402z" />
    <glyph glyph-name="lozenge" unicode="&#x25ca;" horiz-adv-x="517" 
d="M475 350l-222 -364l-209 364l209 364zM101 350l153 -271l164 271l-164 271z" />
    <glyph glyph-name="fi" unicode="&#xfb01;" horiz-adv-x="981" 
d="M269 657v-291h132q37 1 61 25t24 61v9h10v-231h-10v8q0 37 -23.5 61t-60.5 25h-133v-251q0 -37 32 -55q15 -8 32 -8h12l1 -10h-304v10h13q26 0 44.5 18.5t19.5 44.5v557q-2 25 -20.5 42.5t-43.5 17.5h-13v10h383q49 0 81 7.5t39 10.5v-169h-10v10q0 44 -25.5 70.5
t-69.5 27.5h-171zM650 10q26 0 44.5 18.5t19.5 44.5v555q-1 26 -19.5 44t-44.5 18h-13v10h304l-1 -10h-12q-26 0 -45 -18t-19 -44v-555q0 -26 19 -44.5t45 -18.5h12l1 -10h-304v10h13z" />
    <glyph glyph-name="fl" unicode="&#xfb02;" horiz-adv-x="1211" 
d="M269 657v-291h132q37 1 61 25t24 61v9h10v-231h-10v8q0 37 -23.5 61t-60.5 25h-133v-251q0 -37 32 -55q15 -8 32 -8h12l1 -10h-304v10h13q26 0 44.5 18.5t19.5 44.5v557q-2 25 -20.5 42.5t-43.5 17.5h-13v10h383q49 0 81 7.5t39 10.5v-169h-10v10q0 44 -25.5 70.5
t-69.5 27.5h-171zM650 10q26 0 44.5 18.5t19.5 44.5v554q-1 26 -19.5 44.5t-44.5 18.5h-13v10h304l-1 -10h-12q-37 0 -55 -31q-9 -15 -9 -32v-584h131q73 0 122.5 42t73.5 119h10l-46 -204h-518v10h13z" />
    </font>
</defs>
</svg>
